AcariSans-Bold.ufo
<glyph name="exclam" format="2">
  <advance width="650"/>
  <unicode hex="0021"/>
  <outline>
    <contour>
      <point x="420" y="438" type="line"/>
      <point x="449" y="1468" type="line"/>
      <point x="202" y="1468" type="line"/>
      <point x="230" y="438" type="line"/>
    </contour>
    <contour>
      <point x="462" y="0" type="line"/>
      <point x="462" y="270" type="line"/>
      <point x="188" y="270" type="line"/>
      <point x="188" y="0" type="line"/>
    </contour>
  </outline>
</glyph>
<glyph name="quotedbl" format="2">
  <advance width="981"/>
  <unicode hex="0022"/>
  <outline>
    <contour>
      <point x="417.792" y="886.784" type="line"/>
      <point x="417.792" y="1446.91" type="line"/>
      <point x="207.872" y="1446.91" type="line"/>
      <point x="207.872" y="886.784" type="line"/>
    </contour>
    <contour>
      <point x="774.144" y="886.784" type="line"/>
      <point x="774.144" y="1446.91" type="line"/>
      <point x="564.224" y="1446.91" type="line"/>
      <point x="564.224" y="886.784" type="line"/>
    </contour>
  </outline>
</glyph>
<glyph name="numbersign" format="2">
  <advance width="1415"/>
  <unicode hex="0023"/>
  <outline>
    <contour>
      <point x="870" y="0" type="line"/>
      <point x="965" y="416" type="line"/>
      <point x="1250" y="416" type="line"/>
      <point x="1250" y="600" type="line"/>
      <point x="1002" y="600" type="line"/>
      <point x="1057" y="868" type="line"/>
      <point x="1334" y="868" type="line"/>
      <point x="1334" y="1044" type="line"/>
      <point x="1095" y="1044" type="line"/>
      <point x="1191" y="1468" type="line"/>
      <point x="994" y="1468" type="line"/>
      <point x="900" y="1021" type="line"/>
      <point x="644" y="1021" type="line"/>
      <point x="742" y="1468" type="line"/>
      <point x="545" y="1468" type="line"/>
      <point x="449" y="1053" type="line"/>
      <point x="164" y="1053" type="line"/>
      <point x="164" y="868" type="line"/>
      <point x="411" y="868" type="line"/>
      <point x="356" y="600" type="line"/>
      <point x="80" y="600" type="line"/>
      <point x="80" y="424" type="line"/>
      <point x="318" y="424" type="line"/>
      <point x="226" y="0" type="line"/>
      <point x="422" y="0" type="line"/>
      <point x="514" y="446" type="line"/>
      <point x="770" y="446" type="line"/>
      <point x="675" y="0" type="line"/>
    </contour>
    <contour>
      <point x="807" y="600" type="line"/>
      <point x="552" y="600" type="line"/>
      <point x="606" y="868" type="line"/>
      <point x="862" y="868" type="line"/>
    </contour>
  </outline>
</glyph>
<glyph name="dollar" format="2">
  <advance width="1157"/>
  <unicode hex="0024"/>
  <outline>
    <contour>
      <point x="46.08" y="394.24" type="line"/>
      <point x="88.064" y="165.888"/>
      <point x="252.928" y="28.672"/>
      <point x="476.16" y="-12.288" type="curve"/>
      <point x="476.16" y="-251.904" type="line"/>
      <point x="681.984" y="-251.904" type="line"/>
      <point x="681.984" y="-16.384" type="line"/>
      <point x="919.552" y="10.24"/>
      <point x="1096.7" y="178.176"/>
      <point x="1096.7" y="419.84" type="curve" smooth="yes"/>
      <point x="1096.7" y="674.816"/>
      <point x="910.336" y="774.144"/>
      <point x="701.44" y="860.16" type="curve" smooth="yes"/>
      <point x="644.096" y="883.712" type="line" smooth="yes"/>
      <point x="546.816" y="923.648"/>
      <point x="400.384" y="994.304"/>
      <point x="400.384" y="1090.56" type="curve" smooth="yes"/>
      <point x="400.384" y="1191.94"/>
      <point x="493.568" y="1243.14"/>
      <point x="584.704" y="1243.14" type="curve" smooth="yes"/>
      <point x="678.912" y="1243.14"/>
      <point x="764.928" y="1200.13"/>
      <point x="818.176" y="1104.9" type="curve"/>
      <point x="1028.1" y="1228.8" type="line"/>
      <point x="954.368" y="1361.92"/>
      <point x="838.656" y="1440.77"/>
      <point x="681.984" y="1466.37" type="curve"/>
      <point x="681.984" y="1698.82" type="line"/>
      <point x="476.16" y="1698.82" type="line"/>
      <point x="476.16" y="1461.25" type="line"/>
      <point x="291.84" y="1422.34"/>
      <point x="142.336" y="1283.07"/>
      <point x="142.336" y="1080.32" type="curve" smooth="yes"/>
      <point x="142.336" y="831.488"/>
      <point x="339.968" y="741.376"/>
      <point x="534.528" y="658.432" type="curve" smooth="yes"/>
      <point x="591.872" y="633.856" type="line" smooth="yes"/>
      <point x="696.32" y="588.8"/>
      <point x="838.656" y="515.072"/>
      <point x="838.656" y="412.672" type="curve" smooth="yes"/>
      <point x="838.656" y="281.6"/>
      <point x="758.784" y="216.064"/>
      <point x="598.016" y="216.064" type="curve"/>
      <point x="445.44" y="216.064"/>
      <point x="320.512" y="288.768"/>
      <point x="297.984" y="448.512" type="curve"/>
    </contour>
  </outline>
  <guideline angle="244.165" x="708.608" y="874.496"/>
  <guideline angle="244.165" x="638.976" y="874.496"/>
</glyph>
<glyph name="percent" format="2">
  <advance width="1591"/>
  <unicode hex="0025"/>
  <outline>
    <contour>
      <point x="275.288" y="-20.48" type="line"/>
      <point x="491.352" y="-20.48" type="line"/>
      <point x="1301.34" y="1488.9" type="line"/>
      <point x="1085.27" y="1488.9" type="line"/>
    </contour>
    <contour>
      <point x="375.64" y="784.432" type="curve" smooth="yes"/>
      <point x="540.157" y="784.432"/>
      <point x="659.288" y="927.217"/>
      <point x="659.288" y="1124.4" type="curve" smooth="yes"/>
      <point x="659.288" y="1325.44"/>
      <point x="538.82" y="1468.46"/>
      <point x="369.496" y="1468.46" type="curve" smooth="yes"/>
      <point x="199.089" y="1468.46"/>
      <point x="84.824" y="1331.18"/>
      <point x="84.824" y="1126.45" type="curve" smooth="yes"/>
      <point x="84.824" y="922.773"/>
      <point x="202.455" y="784.432"/>
    </contour>
    <contour>
      <point x="371.544" y="960.56" type="curve" smooth="yes"/>
      <point x="309.548" y="960.56"/>
      <point x="265.048" y="1029.88"/>
      <point x="265.048" y="1126.45" type="curve" smooth="yes"/>
      <point x="265.048" y="1220.84"/>
      <point x="309.323" y="1290.29"/>
      <point x="369.496" y="1290.29" type="curve" smooth="yes"/>
      <point x="430.709" y="1290.29"/>
      <point x="474.968" y="1221.54"/>
      <point x="474.968" y="1126.45" type="curve" smooth="yes"/>
      <point x="474.968" y="1033.31"/>
      <point x="429.609" y="960.56"/>
    </contour>
    <contour>
      <point x="1222.49" y="-20" type="curve" smooth="yes"/>
      <point x="1387.01" y="-20"/>
      <point x="1506.14" y="122.785"/>
      <point x="1506.14" y="319.968" type="curve" smooth="yes"/>
      <point x="1506.14" y="521.003"/>
      <point x="1385.67" y="664.032"/>
      <point x="1216.34" y="664.032" type="curve" smooth="yes"/>
      <point x="1045.94" y="664.032"/>
      <point x="931.672" y="526.75"/>
      <point x="931.672" y="322.016" type="curve" smooth="yes"/>
      <point x="931.672" y="118.341"/>
      <point x="1049.3" y="-20"/>
    </contour>
    <contour>
      <point x="1218.39" y="156.128" type="curve" smooth="yes"/>
      <point x="1156.4" y="156.128"/>
      <point x="1111.9" y="225.445"/>
      <point x="1111.9" y="322.016" type="curve" smooth="yes"/>
      <point x="1111.9" y="416.405"/>
      <point x="1156.17" y="485.856"/>
      <point x="1216.34" y="485.856" type="curve" smooth="yes"/>
      <point x="1277.56" y="485.856"/>
      <point x="1321.82" y="417.104"/>
      <point x="1321.82" y="322.016" type="curve" smooth="yes"/>
      <point x="1321.82" y="228.883"/>
      <point x="1276.46" y="156.128"/>
    </contour>
  </outline>
</glyph>
<glyph name="ampersand" format="2">
  <advance width="1415"/>
  <unicode hex="0026"/>
  <outline>
    <contour>
      <point x="82" y="338" type="curve" smooth="yes"/>
      <point x="82" y="124"/>
      <point x="272" y="-20"/>
      <point x="556" y="-20" type="curve" smooth="yes"/>
      <point x="724" y="-20"/>
      <point x="873" y="35"/>
      <point x="992" y="140" type="curve"/>
      <point x="1183" y="-78" type="line"/>
      <point x="1359" y="80" type="line"/>
      <point x="1144" y="322" type="line"/>
      <point x="1209" y="434"/>
      <point x="1245" y="555"/>
      <point x="1252" y="688" type="curve"/>
      <point x="1009" y="713" type="line"/>
      <point x="1009" y="644"/>
      <point x="997" y="577"/>
      <point x="974" y="512" type="curve"/>
      <point x="769" y="741" type="line"/>
      <point x="949" y="863"/>
      <point x="1030" y="982"/>
      <point x="1030" y="1126" type="curve" smooth="yes"/>
      <point x="1030" y="1328"/>
      <point x="873" y="1468"/>
      <point x="646" y="1468" type="curve" smooth="yes"/>
      <point x="410" y="1468"/>
      <point x="246" y="1326"/>
      <point x="246" y="1124" type="curve" smooth="yes"/>
      <point x="246" y="1011"/>
      <point x="303" y="897"/>
      <point x="417" y="783" type="curve"/>
      <point x="183" y="644"/>
      <point x="82" y="510"/>
    </contour>
    <contour>
      <point x="608" y="894" type="curve"/>
      <point x="527" y="988"/>
      <point x="486" y="1064"/>
      <point x="486" y="1120" type="curve" smooth="yes"/>
      <point x="486" y="1217"/>
      <point x="545" y="1273"/>
      <point x="648" y="1273" type="curve" smooth="yes"/>
      <point x="746" y="1273"/>
      <point x="799" y="1220"/>
      <point x="799" y="1122" type="curve" smooth="yes"/>
      <point x="799" y="1041"/>
      <point x="741" y="973"/>
    </contour>
    <contour>
      <point x="323" y="334" type="curve" smooth="yes"/>
      <point x="323" y="436"/>
      <point x="406" y="533"/>
      <point x="572" y="621" type="curve"/>
      <point x="846" y="308" type="line"/>
      <point x="764" y="228"/>
      <point x="666" y="188"/>
      <point x="550" y="188" type="curve" smooth="yes"/>
      <point x="410" y="188"/>
      <point x="323" y="244"/>
    </contour>
  </outline>
</glyph>
<glyph name="quotesingle" format="2">
  <advance width="625"/>
  <unicode hex="0027"/>
  <outline>
    <contour>
      <point x="417.792" y="916.48" type="line"/>
      <point x="417.792" y="1476.61" type="line"/>
      <point x="207.872" y="1476.61" type="line"/>
      <point x="207.872" y="916.48" type="line"/>
    </contour>
  </outline>
</glyph>
<glyph name="parenleft" format="2">
  <advance width="601"/>
  <unicode hex="0028"/>
  <outline>
    <contour>
      <point x="80" y="724" type="qcurve" smooth="yes"/>
      <point x="80" y="609"/>
      <point x="120" y="379"/>
      <point x="197" y="160"/>
      <point x="308" y="-41"/>
      <point x="380" y="-128" type="qcurve"/>
      <point x="601" y="-128" type="line"/>
      <point x="532" y="-28"/>
      <point x="426" y="175"/>
      <point x="355" y="385"/>
      <point x="318" y="606"/>
      <point x="318" y="724" type="qcurve" smooth="yes"/>
      <point x="318" y="842"/>
      <point x="355" y="1063"/>
      <point x="427" y="1273"/>
      <point x="532" y="1476"/>
      <point x="601" y="1576" type="qcurve"/>
      <point x="380" y="1576" type="line"/>
      <point x="308" y="1489"/>
      <point x="197" y="1298"/>
      <point x="120" y="1087"/>
      <point x="80" y="854"/>
    </contour>
  </outline>
</glyph>
<glyph name="parenright" format="2">
  <advance width="601"/>
  <unicode hex="0029"/>
  <outline>
    <contour>
      <point x="521" y="724" type="curve" smooth="yes"/>
      <point x="521" y="879"/>
      <point x="494" y="1033"/>
      <point x="443" y="1179" type="curve" smooth="yes"/>
      <point x="391" y="1325"/>
      <point x="317" y="1460"/>
      <point x="221" y="1576" type="curve"/>
      <point x="0" y="1576" type="line"/>
      <point x="92" y="1443"/>
      <point x="163" y="1308"/>
      <point x="211" y="1168" type="curve" smooth="yes"/>
      <point x="258" y="1028"/>
      <point x="283" y="881"/>
      <point x="283" y="724" type="curve" smooth="yes"/>
      <point x="283" y="567"/>
      <point x="258" y="420"/>
      <point x="210" y="280" type="curve" smooth="yes"/>
      <point x="162" y="140"/>
      <point x="92" y="5"/>
      <point x="0" y="-128" type="curve"/>
      <point x="221" y="-128" type="line"/>
      <point x="317" y="-12"/>
      <point x="391" y="115"/>
      <point x="443" y="256" type="curve" smooth="yes"/>
      <point x="494" y="396"/>
      <point x="521" y="551"/>
    </contour>
  </outline>
</glyph>
<glyph name="asterisk" format="2">
  <advance width="923"/>
  <unicode hex="002A"/>
  <outline>
    <contour>
      <point x="574.464" y="854.016" type="line"/>
      <point x="736.256" y="958.464" type="line"/>
      <point x="574.464" y="1122.3" type="line"/>
      <point x="806.912" y="1153.02" type="line"/>
      <point x="746.496" y="1325.06" type="line"/>
      <point x="532.48" y="1241.09" type="line"/>
      <point x="562.176" y="1446.91" type="line"/>
      <point x="362.496" y="1446.91" type="line"/>
      <point x="392.192" y="1241.09" type="line"/>
      <point x="178.176" y="1325.06" type="line"/>
      <point x="115.712" y="1153.02" type="line"/>
      <point x="348.16" y="1122.3" type="line"/>
      <point x="186.368" y="958.464" type="line"/>
      <point x="348.16" y="854.016" type="line"/>
      <point x="461.824" y="1067.01" type="line"/>
    </contour>
  </outline>
</glyph>
<glyph name="plus" format="2">
  <advance width="1283"/>
  <unicode hex="002B"/>
  <outline>
    <contour>
      <point x="736" y="109" type="line"/>
      <point x="736" y="545" type="line"/>
      <point x="1204" y="545" type="line"/>
      <point x="1204" y="734" type="line"/>
      <point x="736" y="734" type="line"/>
      <point x="736" y="1170" type="line"/>
      <point x="548" y="1170" type="line"/>
      <point x="548" y="734" type="line"/>
      <point x="80" y="734" type="line"/>
      <point x="80" y="545" type="line"/>
      <point x="548" y="545" type="line"/>
      <point x="548" y="109" type="line"/>
    </contour>
  </outline>
</glyph>
<glyph name="comma" format="2">
  <advance width="614"/>
  <unicode hex="002C"/>
  <outline>
    <contour>
      <point x="269.312" y="-311.296" type="line"/>
      <point x="530.432" y="270.336" type="line"/>
      <point x="242.688" y="270.336" type="line"/>
      <point x="103.424" y="-311.296" type="line"/>
    </contour>
  </outline>
</glyph>
<glyph name="hyphen" format="2">
  <advance width="887"/>
  <unicode hex="002D"/>
  <outline>
    <contour>
      <point x="742" y="520" type="line"/>
      <point x="742" y="709" type="line"/>
      <point x="144" y="709" type="line"/>
      <point x="144" y="520" type="line"/>
    </contour>
  </outline>
</glyph>
<glyph name="period" format="2">
  <advance width="614"/>
  <unicode hex="002E"/>
  <outline>
    <contour>
      <point x="432" y="0" type="line"/>
      <point x="432" y="270" type="line"/>
      <point x="181" y="270" type="line"/>
      <point x="181" y="0" type="line"/>
    </contour>
  </outline>
</glyph>
<glyph name="slash" format="2">
  <advance width="956"/>
  <unicode hex="002F"/>
  <outline>
    <contour>
      <point x="195" y="-440" type="line"/>
      <point x="994" y="1552" type="line"/>
      <point x="761" y="1552" type="line"/>
      <point x="-38" y="-440" type="line"/>
    </contour>
  </outline>
</glyph>
<glyph name="zero" format="2">
  <advance width="1229"/>
  <unicode hex="0030"/>
  <outline>
    <contour>
      <point x="621" y="-20" type="qcurve" smooth="yes"/>
      <point x="716" y="-20"/>
      <point x="868" y="45"/>
      <point x="985" y="155"/>
      <point x="1070" y="302"/>
      <point x="1125" y="467"/>
      <point x="1151" y="640"/>
      <point x="1151" y="722" type="qcurve" smooth="yes"/>
      <point x="1151" y="808"/>
      <point x="1122" y="986"/>
      <point x="1064" y="1152"/>
      <point x="975" y="1298"/>
      <point x="854" y="1407"/>
      <point x="701" y="1470"/>
      <point x="608" y="1470" type="qcurve" smooth="yes"/>
      <point x="509" y="1470"/>
      <point x="352" y="1404"/>
      <point x="234" y="1292"/>
      <point x="152" y="1143"/>
      <point x="100" y="977"/>
      <point x="77" y="804"/>
      <point x="77" y="724" type="qcurve" smooth="yes"/>
      <point x="77" y="638"/>
      <point x="103" y="460"/>
      <point x="159" y="295"/>
      <point x="246" y="150"/>
      <point x="367" y="42"/>
      <point x="524" y="-20"/>
    </contour>
    <contour>
      <point x="615" y="226" type="qcurve" smooth="yes"/>
      <point x="558" y="226"/>
      <point x="470" y="273"/>
      <point x="406" y="352"/>
      <point x="361" y="453"/>
      <point x="335" y="561"/>
      <point x="323" y="668"/>
      <point x="323" y="712" type="qcurve" smooth="yes"/>
      <point x="323" y="760"/>
      <point x="334" y="873"/>
      <point x="360" y="986"/>
      <point x="402" y="1090"/>
      <point x="465" y="1171"/>
      <point x="549" y="1219"/>
      <point x="604" y="1219" type="qcurve" smooth="yes"/>
      <point x="659" y="1219"/>
      <point x="744" y="1174"/>
      <point x="808" y="1098"/>
      <point x="852" y="1000"/>
      <point x="880" y="894"/>
      <point x="892" y="788"/>
      <point x="892" y="742" type="qcurve" smooth="yes"/>
      <point x="892" y="700"/>
      <point x="883" y="590"/>
      <point x="860" y="476"/>
      <point x="820" y="365"/>
      <point x="758" y="279"/>
      <point x="672" y="226"/>
    </contour>
  </outline>
</glyph>
<glyph name="one" format="2">
  <advance width="1229"/>
  <unicode hex="0031"/>
  <outline>
    <contour>
      <point x="574" y="0" type="line"/>
      <point x="830" y="0" type="line"/>
      <point x="830" y="1447" type="line"/>
      <point x="585" y="1447" type="line"/>
      <point x="585" y="1407" type="line" smooth="yes"/>
      <point x="585" y="1309"/>
      <point x="529" y="1252"/>
      <point x="430" y="1252" type="curve" smooth="yes"/>
      <point x="191" y="1252" type="line"/>
      <point x="191" y="1055" type="line"/>
      <point x="574" y="1055" type="line"/>
    </contour>
  </outline>
</glyph>
<glyph name="two" format="2">
  <advance width="1229"/>
  <unicode hex="0032"/>
  <outline>
    <contour>
      <point x="53.248" y="0" type="line"/>
      <point x="1149.95" y="0" type="line"/>
      <point x="1149.95" y="234.496" type="line"/>
      <point x="481.28" y="234.496" type="line"/>
      <point x="734.208" y="388.096"/>
      <point x="1079.3" y="733.184"/>
      <point x="1079.3" y="1038.34" type="curve" smooth="yes"/>
      <point x="1079.3" y="1301.5"/>
      <point x="862.208" y="1466.37"/>
      <point x="613.376" y="1466.37" type="curve" smooth="yes"/>
      <point x="312.32" y="1466.37"/>
      <point x="109.568" y="1224.7"/>
      <point x="109.568" y="936.96" type="curve"/>
      <point x="363.52" y="920.576" type="line"/>
      <point x="363.52" y="1079.3"/>
      <point x="434.176" y="1232.9"/>
      <point x="615.424" y="1232.9" type="curve" smooth="yes"/>
      <point x="756.736" y="1232.9"/>
      <point x="819.2" y="1141.76"/>
      <point x="819.2" y="1022.98" type="curve" smooth="yes"/>
      <point x="819.2" y="736.256"/>
      <point x="376.832" y="407.552"/>
      <point x="138.24" y="258.048" type="curve" smooth="yes"/>
      <point x="53.248" y="205.824" type="line"/>
    </contour>
  </outline>
</glyph>
<glyph name="three" format="2">
  <advance width="1229"/>
  <unicode hex="0033"/>
  <outline>
    <contour>
      <point x="58.368" y="456.704" type="line"/>
      <point x="58.368" y="136.192"/>
      <point x="308.224" y="-20.48"/>
      <point x="598.016" y="-20.48" type="curve" smooth="yes"/>
      <point x="882.688" y="-20.48"/>
      <point x="1132.54" y="131.072"/>
      <point x="1132.54" y="432.128" type="curve" smooth="yes"/>
      <point x="1132.54" y="580.608"/>
      <point x="1068.03" y="707.584"/>
      <point x="928.768" y="786.432" type="curve"/>
      <point x="1006.59" y="856.064"/>
      <point x="1054.72" y="956.416"/>
      <point x="1054.72" y="1074.18" type="curve" smooth="yes"/>
      <point x="1054.72" y="1331.2"/>
      <point x="822.272" y="1468.42"/>
      <point x="590.848" y="1468.42" type="curve" smooth="yes"/>
      <point x="326.656" y="1468.42"/>
      <point x="128" y="1303.55"/>
      <point x="128" y="1038.34" type="curve"/>
      <point x="372.736" y="1020.93" type="line"/>
      <point x="378.88" y="1153.02"/>
      <point x="465.92" y="1226.75"/>
      <point x="595.968" y="1226.75" type="curve" smooth="yes"/>
      <point x="713.728" y="1226.75"/>
      <point x="804.864" y="1167.36"/>
      <point x="804.864" y="1042.43" type="curve" smooth="yes"/>
      <point x="804.864" y="934.912"/>
      <point x="741.376" y="876.544"/>
      <point x="634.88" y="876.544" type="curve" smooth="yes"/>
      <point x="467.968" y="876.544" type="line"/>
      <point x="467.968" y="658.432" type="line"/>
      <point x="634.88" y="658.432" type="line" smooth="yes"/>
      <point x="791.552" y="658.432"/>
      <point x="884.736" y="577.536"/>
      <point x="884.736" y="446.464" type="curve" smooth="yes"/>
      <point x="884.736" y="283.648"/>
      <point x="740.352" y="218.112"/>
      <point x="600.064" y="218.112" type="curve" smooth="yes"/>
      <point x="432.128" y="218.112"/>
      <point x="306.176" y="310.272"/>
      <point x="306.176" y="472.064" type="curve"/>
    </contour>
  </outline>
</glyph>
<glyph name="four" format="2">
  <advance width="1229"/>
  <unicode hex="0034"/>
  <outline>
    <contour>
      <point x="40" y="339" type="line"/>
      <point x="683" y="339" type="line"/>
      <point x="683" y="0" type="line"/>
      <point x="939" y="0" type="line"/>
      <point x="939" y="339" type="line"/>
      <point x="1161" y="339" type="line"/>
      <point x="1161" y="578" type="line"/>
      <point x="939" y="578" type="line"/>
      <point x="939" y="1447" type="line"/>
      <point x="719" y="1447" type="line"/>
      <point x="40" y="488" type="line"/>
    </contour>
    <contour>
      <point x="371" y="578" type="line"/>
      <point x="683" y="1030" type="line"/>
      <point x="683" y="578" type="line"/>
    </contour>
  </outline>
</glyph>
<glyph name="five" format="2">
  <advance width="1229"/>
  <unicode hex="0035"/>
  <outline>
    <contour>
      <point x="84" y="420" type="line"/>
      <point x="113" y="291"/>
      <point x="181" y="181"/>
      <point x="273" y="103" type="curve" smooth="yes"/>
      <point x="365" y="25"/>
      <point x="481" y="-20"/>
      <point x="606" y="-20" type="curve" smooth="yes"/>
      <point x="750" y="-20"/>
      <point x="883" y="39"/>
      <point x="980" y="132" type="curve" smooth="yes"/>
      <point x="1076" y="225"/>
      <point x="1137" y="353"/>
      <point x="1137" y="493" type="curve" smooth="yes"/>
      <point x="1137" y="632"/>
      <point x="1081" y="756"/>
      <point x="992" y="847" type="curve" smooth="yes"/>
      <point x="903" y="938"/>
      <point x="780" y="994"/>
      <point x="644" y="994" type="curve" smooth="yes"/>
      <point x="567" y="994"/>
      <point x="492" y="976"/>
      <point x="420" y="937" type="curve"/>
      <point x="472" y="1208" type="line"/>
      <point x="1072" y="1208" type="line"/>
      <point x="1072" y="1447" type="line"/>
      <point x="266" y="1447" type="line"/>
      <point x="126" y="686" type="line"/>
      <point x="360" y="627" type="line"/>
      <point x="387" y="668"/>
      <point x="423" y="701"/>
      <point x="466" y="725" type="curve" smooth="yes"/>
      <point x="509" y="748"/>
      <point x="557" y="761"/>
      <point x="606" y="761" type="curve" smooth="yes"/>
      <point x="685" y="761"/>
      <point x="750" y="734"/>
      <point x="798" y="687" type="curve" smooth="yes"/>
      <point x="845" y="639"/>
      <point x="872" y="574"/>
      <point x="872" y="495" type="curve" smooth="yes"/>
      <point x="872" y="419"/>
      <point x="842" y="348"/>
      <point x="794" y="297" type="curve" smooth="yes"/>
      <point x="745" y="246"/>
      <point x="678" y="214"/>
      <point x="606" y="214" type="curve" smooth="yes"/>
      <point x="534" y="214"/>
      <point x="474" y="238"/>
      <point x="427" y="284" type="curve" smooth="yes"/>
      <point x="379" y="330"/>
      <point x="345" y="398"/>
      <point x="325" y="486" type="curve"/>
    </contour>
  </outline>
</glyph>
<glyph name="six" format="2">
  <advance width="1229"/>
  <unicode hex="0036"/>
  <outline>
    <contour>
      <point x="615.424" y="-20.48" type="curve" smooth="yes"/>
      <point x="898.048" y="-20.48"/>
      <point x="1143.81" y="193.536"/>
      <point x="1143.81" y="486.4" type="curve" smooth="yes"/>
      <point x="1143.81" y="775.168"/>
      <point x="898.048" y="970.752"/>
      <point x="617.472" y="970.752" type="curve" smooth="yes"/>
      <point x="586.752" y="970.752" type="line"/>
      <point x="899.072" y="1446.91" type="line"/>
      <point x="601.088" y="1446.91" type="line"/>
      <point x="166.912" y="734.208" type="line" smooth="yes"/>
      <point x="118.784" y="655.36"/>
      <point x="89.088" y="572.416"/>
      <point x="89.088" y="478.208" type="curve" smooth="yes"/>
      <point x="89.088" y="191.488"/>
      <point x="333.824" y="-20.48"/>
    </contour>
    <contour>
      <point x="617.472" y="222.208" type="curve" smooth="yes"/>
      <point x="471.04" y="222.208"/>
      <point x="343.04" y="335.872"/>
      <point x="343.04" y="484.352" type="curve" smooth="yes"/>
      <point x="343.04" y="635.904"/>
      <point x="471.04" y="746.496"/>
      <point x="617.472" y="746.496" type="curve" smooth="yes"/>
      <point x="764.928" y="746.496"/>
      <point x="890.88" y="632.832"/>
      <point x="890.88" y="484.352" type="curve" smooth="yes"/>
      <point x="890.88" y="333.824"/>
      <point x="762.88" y="222.208"/>
    </contour>
  </outline>
</glyph>
<glyph name="seven" format="2">
  <advance width="1229"/>
  <unicode hex="0037"/>
  <outline>
    <contour>
      <point x="215" y="0" type="line"/>
      <point x="502" y="0" type="line"/>
      <point x="1144" y="1315" type="line"/>
      <point x="1144" y="1447" type="line"/>
      <point x="99" y="1447" type="line"/>
      <point x="99" y="1210" type="line"/>
      <point x="829" y="1210" type="line"/>
    </contour>
  </outline>
</glyph>
<glyph name="eight" format="2">
  <advance width="1229"/>
  <unicode hex="0038"/>
  <outline>
    <contour>
      <point x="614" y="-20" type="curve" smooth="yes"/>
      <point x="773" y="-20"/>
      <point x="907" y="24"/>
      <point x="1001" y="101" type="curve" smooth="yes"/>
      <point x="1095" y="178"/>
      <point x="1149" y="287"/>
      <point x="1149" y="418" type="curve" smooth="yes"/>
      <point x="1149" y="575"/>
      <point x="1076" y="702"/>
      <point x="939" y="782" type="curve"/>
      <point x="1028" y="858"/>
      <point x="1076" y="960"/>
      <point x="1076" y="1076" type="curve" smooth="yes"/>
      <point x="1076" y="1188"/>
      <point x="1027" y="1287"/>
      <point x="944" y="1357" type="curve" smooth="yes"/>
      <point x="861" y="1427"/>
      <point x="746" y="1468"/>
      <point x="614" y="1468" type="curve" smooth="yes"/>
      <point x="481" y="1468"/>
      <point x="366" y="1427"/>
      <point x="284" y="1357" type="curve" smooth="yes"/>
      <point x="202" y="1287"/>
      <point x="153" y="1189"/>
      <point x="153" y="1074" type="curve" smooth="yes"/>
      <point x="153" y="957"/>
      <point x="199" y="858"/>
      <point x="290" y="782" type="curve"/>
      <point x="153" y="702"/>
      <point x="80" y="573"/>
      <point x="80" y="416" type="curve" smooth="yes"/>
      <point x="80" y="288"/>
      <point x="135" y="178"/>
      <point x="229" y="102" type="curve" smooth="yes"/>
      <point x="323" y="25"/>
      <point x="457" y="-20"/>
    </contour>
    <contour>
      <point x="618" y="879" type="curve" smooth="yes"/>
      <point x="554" y="879"/>
      <point x="502" y="898"/>
      <point x="466" y="931" type="curve" smooth="yes"/>
      <point x="430" y="964"/>
      <point x="409" y="1012"/>
      <point x="409" y="1069" type="curve" smooth="yes"/>
      <point x="409" y="1125"/>
      <point x="429" y="1170"/>
      <point x="466" y="1202" type="curve" smooth="yes"/>
      <point x="502" y="1234"/>
      <point x="554" y="1252"/>
      <point x="618" y="1252" type="curve" smooth="yes"/>
      <point x="683" y="1252"/>
      <point x="736" y="1234"/>
      <point x="772" y="1202" type="curve" smooth="yes"/>
      <point x="808" y="1170"/>
      <point x="828" y="1124"/>
      <point x="828" y="1065" type="curve" smooth="yes"/>
      <point x="828" y="1009"/>
      <point x="807" y="962"/>
      <point x="771" y="930" type="curve" smooth="yes"/>
      <point x="735" y="897"/>
      <point x="682" y="879"/>
    </contour>
    <contour>
      <point x="612" y="202" type="curve" smooth="yes"/>
      <point x="527" y="202"/>
      <point x="457" y="224"/>
      <point x="409" y="264" type="curve" smooth="yes"/>
      <point x="361" y="304"/>
      <point x="334" y="361"/>
      <point x="334" y="430" type="curve" smooth="yes"/>
      <point x="334" y="501"/>
      <point x="361" y="557"/>
      <point x="409" y="597" type="curve" smooth="yes"/>
      <point x="457" y="636"/>
      <point x="527" y="658"/>
      <point x="612" y="658" type="curve" smooth="yes"/>
      <point x="697" y="658"/>
      <point x="767" y="636"/>
      <point x="816" y="596" type="curve" smooth="yes"/>
      <point x="864" y="556"/>
      <point x="891" y="499"/>
      <point x="891" y="428" type="curve" smooth="yes"/>
      <point x="891" y="359"/>
      <point x="864" y="302"/>
      <point x="816" y="263" type="curve" smooth="yes"/>
      <point x="767" y="224"/>
      <point x="697" y="202"/>
    </contour>
  </outline>
</glyph>
<glyph name="nine" format="2">
  <advance width="1229"/>
  <unicode hex="0039"/>
  <outline>
    <contour>
      <point x="330" y="0" type="line"/>
      <point x="628" y="0" type="line"/>
      <point x="1061" y="713" type="line" smooth="yes"/>
      <point x="1079" y="742"/>
      <point x="1107" y="803"/>
      <point x="1128" y="866"/>
      <point x="1139" y="933"/>
      <point x="1139" y="969" type="qcurve" smooth="yes"/>
      <point x="1139" y="1077"/>
      <point x="1054" y="1260"/>
      <point x="910" y="1393"/>
      <point x="719" y="1468"/>
      <point x="612" y="1468" type="qcurve" smooth="yes"/>
      <point x="506" y="1468"/>
      <point x="314" y="1392"/>
      <point x="169" y="1256"/>
      <point x="84" y="1071"/>
      <point x="84" y="961" type="qcurve" smooth="yes"/>
      <point x="84" y="853"/>
      <point x="170" y="675"/>
      <point x="315" y="547"/>
      <point x="505" y="476"/>
      <point x="610" y="476" type="qcurve" smooth="yes"/>
      <point x="615" y="476"/>
      <point x="639" y="476"/>
      <point x="642" y="476" type="qcurve"/>
    </contour>
    <contour>
      <point x="610" y="700" type="qcurve" smooth="yes"/>
      <point x="555" y="700"/>
      <point x="457" y="741"/>
      <point x="382" y="811"/>
      <point x="338" y="908"/>
      <point x="338" y="963" type="qcurve" smooth="yes"/>
      <point x="338" y="1020"/>
      <point x="382" y="1116"/>
      <point x="457" y="1186"/>
      <point x="556" y="1225"/>
      <point x="610" y="1225" type="qcurve" smooth="yes"/>
      <point x="666" y="1225"/>
      <point x="765" y="1186"/>
      <point x="841" y="1116"/>
      <point x="885" y="1020"/>
      <point x="885" y="963" type="qcurve" smooth="yes"/>
      <point x="885" y="906"/>
      <point x="840" y="810"/>
      <point x="764" y="739"/>
      <point x="665" y="700"/>
    </contour>
  </outline>
</glyph>
<glyph name="colon" format="2">
  <advance width="614"/>
  <unicode hex="003A"/>
  <outline>
    <contour>
      <point x="443" y="707" type="line"/>
      <point x="443" y="977" type="line"/>
      <point x="171" y="977" type="line"/>
      <point x="171" y="707" type="line"/>
    </contour>
    <contour>
      <point x="443" y="0" type="line"/>
      <point x="443" y="270" type="line"/>
      <point x="171" y="270" type="line"/>
      <point x="171" y="0" type="line"/>
    </contour>
  </outline>
</glyph>
<glyph name="semicolon" format="2">
  <advance width="614"/>
  <unicode hex="003B"/>
  <outline>
    <contour>
      <point x="451" y="707" type="line"/>
      <point x="451" y="977" type="line"/>
      <point x="178" y="977" type="line"/>
      <point x="178" y="707" type="line"/>
    </contour>
    <contour>
      <point x="245" y="-311" type="line"/>
      <point x="506" y="270" type="line"/>
      <point x="218" y="270" type="line"/>
      <point x="79" y="-311" type="line"/>
    </contour>
  </outline>
</glyph>
<glyph name="less" format="2">
  <advance width="1267"/>
  <unicode hex="003C"/>
  <outline>
    <contour>
      <point x="1055" y="156" type="line"/>
      <point x="1160" y="338" type="line"/>
      <point x="451" y="690" type="line"/>
      <point x="1160" y="1042" type="line"/>
      <point x="1055" y="1225" type="line"/>
      <point x="46" y="690" type="line"/>
    </contour>
  </outline>
</glyph>
<glyph name="greater" format="2">
  <advance width="1267"/>
  <unicode hex="003E"/>
  <outline>
    <contour>
      <point x="211.968" y="155.648" type="line"/>
      <point x="1220.61" y="690.176" type="line"/>
      <point x="211.968" y="1224.7" type="line"/>
      <point x="106.496" y="1042.43" type="line"/>
      <point x="816.128" y="690.176" type="line"/>
      <point x="106.496" y="337.92" type="line"/>
    </contour>
  </outline>
</glyph>
<glyph name="question" format="2">
  <advance width="1021"/>
  <unicode hex="003F"/>
  <outline>
    <contour>
      <point x="608" y="434" type="line"/>
      <point x="608" y="581" type="line" smooth="yes"/>
      <point x="608" y="627"/>
      <point x="641" y="654"/>
      <point x="722" y="698" type="curve" smooth="yes"/>
      <point x="876" y="781"/>
      <point x="956" y="871"/>
      <point x="956" y="1059" type="curve" smooth="yes"/>
      <point x="956" y="1324"/>
      <point x="747" y="1468"/>
      <point x="493" y="1468" type="curve" smooth="yes"/>
      <point x="229" y="1468"/>
      <point x="46" y="1306"/>
      <point x="46" y="1015" type="curve"/>
      <point x="266" y="1015" type="line"/>
      <point x="266" y="1179"/>
      <point x="344" y="1261"/>
      <point x="501" y="1261" type="curve" smooth="yes"/>
      <point x="634" y="1261"/>
      <point x="738" y="1210"/>
      <point x="738" y="1063" type="curve" smooth="yes"/>
      <point x="738" y="955"/>
      <point x="672" y="915"/>
      <point x="589" y="870" type="curve" smooth="yes"/>
      <point x="443" y="790"/>
      <point x="396" y="724"/>
      <point x="396" y="583" type="curve" smooth="yes"/>
      <point x="396" y="434" type="line"/>
    </contour>
    <contour>
      <point x="642" y="0" type="line"/>
      <point x="642" y="270" type="line"/>
      <point x="369" y="270" type="line"/>
      <point x="369" y="0" type="line"/>
    </contour>
  </outline>
</glyph>
<glyph name="at" format="2">
  <advance width="2063"/>
  <unicode hex="0040"/>
  <outline>
    <contour>
      <point x="102" y="532" type="qcurve" smooth="yes"/>
      <point x="102" y="404"/>
      <point x="165" y="172"/>
      <point x="281" y="-25"/>
      <point x="445" y="-184"/>
      <point x="650" y="-296"/>
      <point x="890" y="-356"/>
      <point x="1023" y="-356" type="qcurve" smooth="yes"/>
      <point x="1111" y="-356"/>
      <point x="1269" y="-329"/>
      <point x="1342" y="-302" type="qcurve"/>
      <point x="1273" y="-116" type="line"/>
      <point x="1213" y="-136"/>
      <point x="1091" y="-156"/>
      <point x="1025" y="-156" type="qcurve" smooth="yes"/>
      <point x="865" y="-156"/>
      <point x="598" y="-54"/>
      <point x="405" y="130"/>
      <point x="298" y="384"/>
      <point x="298" y="537" type="qcurve" smooth="yes"/>
      <point x="298" y="698"/>
      <point x="408" y="969"/>
      <point x="606" y="1165"/>
      <point x="879" y="1275"/>
      <point x="1042" y="1275" type="qcurve" smooth="yes"/>
      <point x="1199" y="1275"/>
      <point x="1465" y="1167"/>
      <point x="1660" y="977"/>
      <point x="1770" y="715"/>
      <point x="1770" y="562" type="qcurve" smooth="yes"/>
      <point x="1770" y="466"/>
      <point x="1728" y="306"/>
      <point x="1652" y="190"/>
      <point x="1546" y="126"/>
      <point x="1483" y="126" type="qcurve" smooth="yes"/>
      <point x="1455" y="126"/>
      <point x="1418" y="138"/>
      <point x="1396" y="165"/>
      <point x="1386" y="209"/>
      <point x="1386" y="242" type="qcurve" smooth="yes"/>
      <point x="1386" y="268"/>
      <point x="1389" y="320"/>
      <point x="1396" y="373"/>
      <point x="1405" y="427"/>
      <point x="1411" y="455" type="qcurve" smooth="yes"/>
      <point x="1480" y="762" type="line" smooth="yes"/>
      <point x="1486" y="791"/>
      <point x="1503" y="865"/>
      <point x="1520" y="941"/>
      <point x="1536" y="1011"/>
      <point x="1542" y="1036" type="qcurve"/>
      <point x="1341" y="1036" type="line"/>
      <point x="1321" y="948" type="line"/>
      <point x="1282" y="1015"/>
      <point x="1145" y="1086"/>
      <point x="1055" y="1086" type="qcurve" smooth="yes"/>
      <point x="988" y="1086"/>
      <point x="862" y="1040"/>
      <point x="752" y="956"/>
      <point x="660" y="840"/>
      <point x="594" y="700"/>
      <point x="558" y="540"/>
      <point x="558" y="455" type="qcurve" smooth="yes"/>
      <point x="558" y="361"/>
      <point x="607" y="209"/>
      <point x="697" y="102"/>
      <point x="824" y="44"/>
      <point x="902" y="44" type="qcurve" smooth="yes"/>
      <point x="983" y="44"/>
      <point x="1138" y="106"/>
      <point x="1202" y="164" type="qcurve"/>
      <point x="1207" y="106"/>
      <point x="1250" y="15"/>
      <point x="1324" y="-46"/>
      <point x="1425" y="-78"/>
      <point x="1489" y="-78" type="qcurve" smooth="yes"/>
      <point x="1558" y="-78"/>
      <point x="1682" y="-35"/>
      <point x="1788" y="45"/>
      <point x="1873" y="158"/>
      <point x="1933" y="300"/>
      <point x="1965" y="466"/>
      <point x="1965" y="558" type="qcurve" smooth="yes"/>
      <point x="1965" y="689"/>
      <point x="1902" y="925"/>
      <point x="1785" y="1126"/>
      <point x="1619" y="1289"/>
      <point x="1413" y="1404"/>
      <point x="1173" y="1466"/>
      <point x="1040" y="1466" type="qcurve" smooth="yes"/>
      <point x="904" y="1466"/>
      <point x="660" y="1403"/>
      <point x="451" y="1285"/>
      <point x="283" y="1118"/>
      <point x="166" y="910"/>
      <point x="102" y="667"/>
    </contour>
    <contour>
      <point x="919" y="244" type="qcurve" smooth="yes"/>
      <point x="832" y="244"/>
      <point x="746" y="350"/>
      <point x="746" y="457" type="qcurve" smooth="yes"/>
      <point x="746" y="552"/>
      <point x="800" y="721"/>
      <point x="892" y="847"/>
      <point x="1015" y="921"/>
      <point x="1084" y="921" type="qcurve" smooth="yes"/>
      <point x="1170" y="921"/>
      <point x="1254" y="817"/>
      <point x="1254" y="712" type="qcurve" smooth="yes"/>
      <point x="1254" y="616"/>
      <point x="1201" y="445"/>
      <point x="1110" y="318"/>
      <point x="988" y="244"/>
    </contour>
  </outline>
</glyph>
<glyph name="A" format="2">
  <advance width="1376"/>
  <unicode hex="0041"/>
  <anchor x="690" y="1620" name="top"/>
  <anchor x="1363" y="0" name="ogonek"/>
  <anchor x="690" y="1555" name="center"/>
  <anchor x="690" y="-150" name="bottom"/>
  <outline>
    <contour>
      <point x="1362.94" y="0" type="line"/>
      <point x="786.432" y="1447.94" type="line"/>
      <point x="591.872" y="1447.94" type="line"/>
      <point x="12.288" y="0" type="line"/>
      <point x="295.936" y="0" type="line"/>
      <point x="408.576" y="314.368" type="line"/>
      <point x="970.752" y="314.368" type="line"/>
      <point x="1082.37" y="0" type="line"/>
    </contour>
    <contour>
      <point x="882.688" y="536.576" type="line"/>
      <point x="496.64" y="536.576" type="line"/>
      <point x="690.176" y="1065.98" type="line"/>
    </contour>
  </outline>
  <guideline angle="90" name="vertical" x="690" y="0"/>
</glyph>
<glyph name="B" format="2">
  <advance width="1305"/>
  <unicode hex="0042"/>
  <outline>
    <contour>
      <point x="186" y="0" type="line"/>
      <point x="751" y="0" type="line" smooth="yes"/>
      <point x="1027" y="0"/>
      <point x="1223" y="174"/>
      <point x="1223" y="420" type="curve" smooth="yes"/>
      <point x="1223" y="599"/>
      <point x="1125" y="736"/>
      <point x="962" y="784" type="curve"/>
      <point x="962" y="761" type="line"/>
      <point x="1075" y="805"/>
      <point x="1151" y="925"/>
      <point x="1151" y="1057" type="curve" smooth="yes"/>
      <point x="1151" y="1297"/>
      <point x="973" y="1448"/>
      <point x="688" y="1448" type="curve" smooth="yes"/>
      <point x="186" y="1448" type="line"/>
    </contour>
    <contour>
      <point x="446" y="864" type="line"/>
      <point x="446" y="1213" type="line"/>
      <point x="692" y="1213" type="line" smooth="yes"/>
      <point x="827" y="1213"/>
      <point x="912" y="1146"/>
      <point x="912" y="1042" type="curve" smooth="yes"/>
      <point x="912" y="923"/>
      <point x="846" y="864"/>
      <point x="713" y="864" type="curve" smooth="yes"/>
    </contour>
    <contour>
      <point x="446" y="248" type="line"/>
      <point x="446" y="640" type="line"/>
      <point x="744" y="640" type="line" smooth="yes"/>
      <point x="873" y="640"/>
      <point x="967" y="560"/>
      <point x="967" y="449" type="curve" smooth="yes"/>
      <point x="967" y="317"/>
      <point x="894" y="248"/>
      <point x="755" y="248" type="curve" smooth="yes"/>
    </contour>
  </outline>
</glyph>
<glyph name="C" format="2">
  <advance width="1466"/>
  <unicode hex="0043"/>
  <outline>
    <contour>
      <point x="784" y="-20" type="curve" smooth="yes"/>
      <point x="929" y="-20"/>
      <point x="1064" y="14"/>
      <point x="1175" y="80" type="curve" smooth="yes"/>
      <point x="1286" y="146"/>
      <point x="1372" y="247"/>
      <point x="1417" y="380" type="curve"/>
      <point x="1177" y="479" type="line"/>
      <point x="1145" y="407"/>
      <point x="1096" y="339"/>
      <point x="1031" y="290" type="curve" smooth="yes"/>
      <point x="966" y="241"/>
      <point x="883" y="210"/>
      <point x="784" y="210" type="curve" smooth="yes"/>
      <point x="627" y="210"/>
      <point x="516" y="270"/>
      <point x="445" y="366" type="curve" smooth="yes"/>
      <point x="374" y="462"/>
      <point x="342" y="593"/>
      <point x="342" y="734" type="curve" smooth="yes"/>
      <point x="342" y="877"/>
      <point x="378" y="1004"/>
      <point x="451" y="1094" type="curve" smooth="yes"/>
      <point x="524" y="1184"/>
      <point x="633" y="1238"/>
      <point x="780" y="1238" type="curve" smooth="yes"/>
      <point x="885" y="1238"/>
      <point x="971" y="1206"/>
      <point x="1036" y="1158" type="curve" smooth="yes"/>
      <point x="1101" y="1109"/>
      <point x="1147" y="1042"/>
      <point x="1172" y="973" type="curve"/>
      <point x="1415" y="1070" type="line"/>
      <point x="1367" y="1202"/>
      <point x="1283" y="1303"/>
      <point x="1173" y="1369" type="curve" smooth="yes"/>
      <point x="1063" y="1435"/>
      <point x="929" y="1468"/>
      <point x="782" y="1468" type="curve" smooth="yes"/>
      <point x="562" y="1468"/>
      <point x="388" y="1391"/>
      <point x="269" y="1260" type="curve" smooth="yes"/>
      <point x="149" y="1128"/>
      <point x="84" y="943"/>
      <point x="84" y="724" type="curve" smooth="yes"/>
      <point x="84" y="504"/>
      <point x="149" y="319"/>
      <point x="269" y="188" type="curve" smooth="yes"/>
      <point x="389" y="56"/>
      <point x="564" y="-20"/>
    </contour>
  </outline>
</glyph>
<glyph name="D" format="2">
  <advance width="1443"/>
  <unicode hex="0044"/>
  <outline>
    <contour>
      <point x="186.368" y="0" type="line"/>
      <point x="604.16" y="0" type="line" smooth="yes"/>
      <point x="1065.98" y="0"/>
      <point x="1358.85" y="236.544"/>
      <point x="1358.85" y="712.704" type="curve" smooth="yes"/>
      <point x="1358.85" y="1187.84"/>
      <point x="1096.7" y="1447.94"/>
      <point x="606.208" y="1447.94" type="curve" smooth="yes"/>
      <point x="186.368" y="1447.94" type="line"/>
    </contour>
    <contour>
      <point x="446.464" y="238.592" type="line"/>
      <point x="446.464" y="1209.34" type="line"/>
      <point x="602.112" y="1209.34" type="line" smooth="yes"/>
      <point x="939.008" y="1209.34"/>
      <point x="1098.75" y="1088.51"/>
      <point x="1098.75" y="723.968" type="curve" smooth="yes"/>
      <point x="1098.75" y="375.808"/>
      <point x="914.432" y="238.592"/>
      <point x="578.56" y="238.592" type="curve" smooth="yes"/>
    </contour>
  </outline>
</glyph>
<glyph name="E" format="2">
  <advance width="1275"/>
  <unicode hex="0045"/>
  <anchor x="686.08" y="1617.92" name="top"/>
  <outline>
    <contour>
      <point x="1148.93" y="0" type="line"/>
      <point x="1148.93" y="245.76" type="line"/>
      <point x="446.464" y="245.76" type="line"/>
      <point x="446.464" y="605.184" type="line"/>
      <point x="1100.8" y="605.184" type="line"/>
      <point x="1100.8" y="843.776" type="line"/>
      <point x="446.464" y="843.776" type="line"/>
      <point x="446.464" y="1209.34" type="line"/>
      <point x="1148.93" y="1209.34" type="line"/>
      <point x="1148.93" y="1447.94" type="line"/>
      <point x="186.368" y="1447.94" type="line"/>
      <point x="186.368" y="0" type="line"/>
    </contour>
  </outline>
  <guideline angle="90" name="vertical" x="686.08" y="0"/>
</glyph>
<glyph name="F" format="2">
  <advance width="1265"/>
  <unicode hex="0046"/>
  <anchor x="682" y="1617.92" name="top"/>
  <outline>
    <contour>
      <point x="446" y="0" type="line"/>
      <point x="446" y="605" type="line"/>
      <point x="1122" y="605" type="line"/>
      <point x="1122" y="844" type="line"/>
      <point x="446" y="844" type="line"/>
      <point x="446" y="1209" type="line"/>
      <point x="1212" y="1209" type="line"/>
      <point x="1212" y="1448" type="line"/>
      <point x="186" y="1448" type="line"/>
      <point x="186" y="0" type="line"/>
    </contour>
  </outline>
</glyph>
<glyph name="G" format="2">
  <advance width="1571"/>
  <unicode hex="0047"/>
  <anchor x="783" y="1617.92" name="top"/>
  <outline>
    <contour>
      <point x="785.384" y="-20.48" type="curve" smooth="yes"/>
      <point x="965.655" y="-20.48"/>
      <point x="1135.67" y="68.8363"/>
      <point x="1213.42" y="203.776" type="curve"/>
      <point x="1235.94" y="0" type="line"/>
      <point x="1441.77" y="0" type="line"/>
      <point x="1441.77" y="782.336" type="line"/>
      <point x="861.16" y="782.336" type="line"/>
      <point x="861.16" y="572.416" type="line"/>
      <point x="1189.86" y="572.416" type="line"/>
      <point x="1158.41" y="353.26"/>
      <point x="998.497" y="209.968"/>
      <point x="785.384" y="209.968" type="curve" smooth="yes"/>
      <point x="510.286" y="209.968"/>
      <point x="359.016" y="392.414"/>
      <point x="359.016" y="724.208" type="curve" smooth="yes"/>
      <point x="359.016" y="1044.96"/>
      <point x="517.742" y="1238.14"/>
      <point x="781.288" y="1238.14" type="curve" smooth="yes"/>
      <point x="979.067" y="1238.14"/>
      <point x="1120.93" y="1137.79"/>
      <point x="1183.72" y="953.464" type="curve"/>
      <point x="1414.12" y="1049.72" type="line"/>
      <point x="1294.13" y="1318.91"/>
      <point x="1068.85" y="1468.46"/>
      <point x="783.336" y="1468.46" type="curve" smooth="yes"/>
      <point x="357.105" y="1468.46"/>
      <point x="84.968" y="1178.35"/>
      <point x="84.968" y="723.968" type="curve" smooth="yes"/>
      <point x="84.968" y="270.32"/>
      <point x="358.568" y="-20.48"/>
    </contour>
  </outline>
  <guideline angle="90" name="vertical" x="783" y="0"/>
</glyph>
<glyph name="H" format="2">
  <advance width="1527"/>
  <unicode hex="0048"/>
  <anchor x="762.88" y="1617.92" name="top"/>
  <outline>
    <contour>
      <point x="1340.42" y="0" type="line"/>
      <point x="1340.42" y="1447.94" type="line"/>
      <point x="1080.32" y="1447.94" type="line"/>
      <point x="1080.32" y="842.752" type="line"/>
      <point x="446.464" y="842.752" type="line"/>
      <point x="446.464" y="1447.94" type="line"/>
      <point x="186.368" y="1447.94" type="line"/>
      <point x="186.368" y="0" type="line"/>
      <point x="446.464" y="0" type="line"/>
      <point x="446.464" y="604.16" type="line"/>
      <point x="1080.32" y="604.16" type="line"/>
      <point x="1080.32" y="0" type="line"/>
    </contour>
  </outline>
  <guideline angle="90" name="vertical" x="762.88" y="0"/>
</glyph>
<glyph name="I" format="2">
  <advance width="633"/>
  <unicode hex="0049"/>
  <anchor x="316.416" y="1617.92" name="top"/>
  <outline>
    <contour>
      <point x="446.464" y="0" type="line"/>
      <point x="446.464" y="1447.94" type="line"/>
      <point x="186.368" y="1447.94" type="line"/>
      <point x="186.368" y="0" type="line"/>
    </contour>
  </outline>
  <guideline angle="90" name="vertical" x="316.416" y="0"/>
</glyph>
<glyph name="J" format="2">
  <advance width="1166"/>
  <unicode hex="004A"/>
  <outline>
    <contour>
      <point x="32" y="451" type="line"/>
      <point x="41" y="312"/>
      <point x="94" y="195"/>
      <point x="179" y="112" type="curve" smooth="yes"/>
      <point x="264" y="28"/>
      <point x="381" y="-20"/>
      <point x="520" y="-20" type="curve" smooth="yes"/>
      <point x="692" y="-20"/>
      <point x="814" y="34"/>
      <point x="894" y="130" type="curve" smooth="yes"/>
      <point x="973" y="225"/>
      <point x="1009" y="361"/>
      <point x="1009" y="522" type="curve" smooth="yes"/>
      <point x="1009" y="1448" type="line"/>
      <point x="749" y="1448" type="line"/>
      <point x="749" y="518" type="line" smooth="yes"/>
      <point x="749" y="433"/>
      <point x="741" y="358"/>
      <point x="708" y="305" type="curve" smooth="yes"/>
      <point x="675" y="252"/>
      <point x="619" y="220"/>
      <point x="520" y="220" type="curve" smooth="yes"/>
      <point x="443" y="220"/>
      <point x="386" y="250"/>
      <point x="349" y="298" type="curve" smooth="yes"/>
      <point x="312" y="345"/>
      <point x="292" y="409"/>
      <point x="288" y="480" type="curve"/>
    </contour>
  </outline>
</glyph>
<glyph name="K" format="2">
  <advance width="1527"/>
  <unicode hex="004B"/>
  <outline>
    <contour>
      <point x="1510" y="0" type="line"/>
      <point x="921" y="854" type="line"/>
      <point x="1499" y="1448" type="line"/>
      <point x="1151" y="1448" type="line"/>
      <point x="446" y="692" type="line"/>
      <point x="446" y="1448" type="line"/>
      <point x="186" y="1448" type="line"/>
      <point x="186" y="0" type="line"/>
      <point x="446" y="0" type="line"/>
      <point x="446" y="376" type="line"/>
      <point x="740" y="680" type="line"/>
      <point x="1187" y="0" type="line"/>
    </contour>
  </outline>
</glyph>
<glyph name="L" format="2">
  <advance width="1089"/>
  <unicode hex="004C"/>
  <outline>
    <contour>
      <point x="1065" y="0" type="line"/>
      <point x="1065" y="246" type="line"/>
      <point x="446" y="246" type="line"/>
      <point x="446" y="1448" type="line"/>
      <point x="186" y="1448" type="line"/>
      <point x="186" y="0" type="line"/>
    </contour>
  </outline>
</glyph>
<glyph name="M" format="2">
  <advance width="1841"/>
  <unicode hex="004D"/>
  <outline>
    <contour>
      <point x="1654.78" y="0" type="line"/>
      <point x="1654.78" y="1447.91" type="line"/>
      <point x="1304.58" y="1447.91" type="line"/>
      <point x="920.576" y="417.792" type="line"/>
      <point x="536.576" y="1447.91" type="line"/>
      <point x="186.368" y="1447.91" type="line"/>
      <point x="186.368" y="0" type="line"/>
      <point x="436.224" y="0" type="line"/>
      <point x="436.224" y="1083.37" type="line"/>
      <point x="794.624" y="125.952" type="line"/>
      <point x="1046.53" y="125.952" type="line"/>
      <point x="1404.93" y="1083.37" type="line"/>
      <point x="1404.93" y="0" type="line"/>
    </contour>
  </outline>
</glyph>
<glyph name="N" format="2">
  <advance width="1489"/>
  <unicode hex="004E"/>
  <anchor x="753.664" y="1617.92" name="top"/>
  <outline>
    <contour>
      <point x="1302.53" y="0" type="line"/>
      <point x="1302.53" y="1447.91" type="line"/>
      <point x="1052.67" y="1447.91" type="line"/>
      <point x="1052.67" y="434.176" type="line"/>
      <point x="444.416" y="1447.91" type="line"/>
      <point x="186.368" y="1447.91" type="line"/>
      <point x="186.368" y="0" type="line"/>
      <point x="436.224" y="0" type="line"/>
      <point x="436.224" y="1015.78" type="line"/>
      <point x="1042.43" y="0" type="line"/>
    </contour>
  </outline>
  <guideline angle="90" name="vertical" x="753.664" y="0"/>
</glyph>
<glyph name="O" format="2">
  <advance width="1566"/>
  <unicode hex="004F"/>
  <anchor x="783" y="1617.92" name="top"/>
  <anchor x="956.392" y="0" name="ogonek"/>
  <anchor x="1546" y="1448" name="horn"/>
  <outline>
    <contour>
      <point x="783.336" y="-20.48" type="curve" smooth="yes"/>
      <point x="1223.66" y="-20.48"/>
      <point x="1481.7" y="286.72"/>
      <point x="1481.7" y="723.968" type="curve" smooth="yes"/>
      <point x="1481.7" y="1162.24"/>
      <point x="1223.66" y="1468.42"/>
      <point x="783.336" y="1468.42" type="curve" smooth="yes"/>
      <point x="343.016" y="1468.42"/>
      <point x="84.968" y="1162.24"/>
      <point x="84.968" y="723.968" type="curve" smooth="yes"/>
      <point x="84.968" y="286.72"/>
      <point x="343.016" y="-20.48"/>
    </contour>
    <contour>
      <point x="783.336" y="209.92" type="curve" smooth="yes"/>
      <point x="471.016" y="209.92"/>
      <point x="359.4" y="452.608"/>
      <point x="359.4" y="723.968" type="curve" smooth="yes"/>
      <point x="359.4" y="1006.59"/>
      <point x="480.232" y="1237.99"/>
      <point x="783.336" y="1237.99" type="curve" smooth="yes"/>
      <point x="1092.58" y="1237.99"/>
      <point x="1207.27" y="1000.45"/>
      <point x="1207.27" y="723.968" type="curve" smooth="yes"/>
      <point x="1207.27" y="442.368"/>
      <point x="1086.44" y="209.92"/>
    </contour>
  </outline>
  <guideline angle="90" name="vertical" x="783" y="0"/>
  <guideline angle="0" x="0" y="723.968"/>
</glyph>
<glyph name="P" format="2">
  <advance width="1195"/>
  <unicode hex="0050"/>
  <outline>
    <contour>
      <point x="186" y="0" type="line"/>
      <point x="444" y="0" type="line"/>
      <point x="444" y="600" type="line"/>
      <point x="640" y="600" type="line" smooth="yes"/>
      <point x="907" y="600"/>
      <point x="1151" y="729"/>
      <point x="1151" y="1019" type="curve" smooth="yes"/>
      <point x="1151" y="1315"/>
      <point x="902" y="1448"/>
      <point x="640" y="1448" type="curve" smooth="yes"/>
      <point x="186" y="1448" type="line"/>
    </contour>
    <contour>
      <point x="444" y="843" type="line"/>
      <point x="444" y="1205" type="line"/>
      <point x="640" y="1205" type="line" smooth="yes"/>
      <point x="809" y="1205"/>
      <point x="893" y="1143"/>
      <point x="893" y="1019" type="curve" smooth="yes"/>
      <point x="893" y="896"/>
      <point x="807" y="843"/>
      <point x="640" y="843" type="curve" smooth="yes"/>
    </contour>
  </outline>
</glyph>
<glyph name="Q" format="2">
  <advance width="1611"/>
  <unicode hex="0051"/>
  <outline>
    <contour>
      <point x="1009" y="245" type="line"/>
      <point x="1172" y="401" type="line"/>
      <point x="956" y="600" type="line"/>
      <point x="788" y="446" type="line"/>
    </contour>
    <contour>
      <point x="1148" y="108" type="line"/>
      <point x="1378" y="-122" type="line"/>
      <point x="1545" y="36" type="line"/>
      <point x="1316" y="254" type="line"/>
    </contour>
    <contour>
      <point x="783" y="-20" type="curve" smooth="yes"/>
      <point x="1223" y="-20"/>
      <point x="1482" y="287"/>
      <point x="1482" y="724" type="curve" smooth="yes"/>
      <point x="1482" y="1162"/>
      <point x="1223" y="1468"/>
      <point x="783" y="1468" type="curve" smooth="yes"/>
      <point x="343" y="1468"/>
      <point x="85" y="1162"/>
      <point x="85" y="724" type="curve" smooth="yes"/>
      <point x="85" y="287"/>
      <point x="343" y="-20"/>
    </contour>
    <contour>
      <point x="783" y="210" type="curve" smooth="yes"/>
      <point x="471" y="210"/>
      <point x="359" y="453"/>
      <point x="359" y="724" type="curve" smooth="yes"/>
      <point x="359" y="1007"/>
      <point x="480" y="1238"/>
      <point x="783" y="1238" type="curve" smooth="yes"/>
      <point x="1092" y="1238"/>
      <point x="1207" y="1000"/>
      <point x="1207" y="724" type="curve" smooth="yes"/>
      <point x="1207" y="442"/>
      <point x="1086" y="210"/>
    </contour>
  </outline>
</glyph>
<glyph name="R" format="2">
  <advance width="1298"/>
  <unicode hex="0052"/>
  <outline>
    <contour>
      <point x="186" y="0" type="line"/>
      <point x="446" y="0" type="line"/>
      <point x="446" y="618" type="line"/>
      <point x="621" y="618" type="line"/>
      <point x="977" y="0" type="line"/>
      <point x="1275" y="0" type="line"/>
      <point x="872" y="644" type="line"/>
      <point x="933" y="665"/>
      <point x="1037" y="737"/>
      <point x="1112" y="833"/>
      <point x="1155" y="952"/>
      <point x="1155" y="1021" type="qcurve" smooth="yes"/>
      <point x="1155" y="1126"/>
      <point x="1072" y="1285"/>
      <point x="933" y="1393"/>
      <point x="752" y="1448"/>
      <point x="654" y="1448" type="qcurve" smooth="yes"/>
      <point x="186" y="1448" type="line"/>
    </contour>
    <contour>
      <point x="449" y="830" type="line"/>
      <point x="449" y="1215" type="line"/>
      <point x="656" y="1215" type="line" smooth="yes"/>
      <point x="703" y="1215"/>
      <point x="790" y="1192"/>
      <point x="858" y="1144"/>
      <point x="898" y="1069"/>
      <point x="898" y="1017" type="qcurve" smooth="yes"/>
      <point x="898" y="977"/>
      <point x="869" y="909"/>
      <point x="814" y="859"/>
      <point x="732" y="830"/>
      <point x="678" y="830" type="qcurve" smooth="yes"/>
    </contour>
  </outline>
</glyph>
<glyph name="S" format="2">
  <advance width="1172"/>
  <unicode hex="0053"/>
  <outline>
    <contour>
      <point x="53" y="412" type="line"/>
      <point x="76" y="272"/>
      <point x="147" y="165"/>
      <point x="245" y="93" type="curve" smooth="yes"/>
      <point x="343" y="21"/>
      <point x="469" y="-16"/>
      <point x="604" y="-16" type="curve" smooth="yes"/>
      <point x="744" y="-16"/>
      <point x="869" y="26"/>
      <point x="959" y="102" type="curve" smooth="yes"/>
      <point x="1049" y="177"/>
      <point x="1104" y="286"/>
      <point x="1104" y="422" type="curve" smooth="yes"/>
      <point x="1104" y="550"/>
      <point x="1044" y="642"/>
      <point x="957" y="713" type="curve" smooth="yes"/>
      <point x="870" y="784"/>
      <point x="757" y="833"/>
      <point x="649" y="878" type="curve" smooth="yes"/>
      <point x="585" y="905"/>
      <point x="527" y="929"/>
      <point x="484" y="960" type="curve" smooth="yes"/>
      <point x="440" y="991"/>
      <point x="413" y="1030"/>
      <point x="413" y="1083" type="curve" smooth="yes"/>
      <point x="413" y="1132"/>
      <point x="435" y="1170"/>
      <point x="468" y="1197" type="curve" smooth="yes"/>
      <point x="500" y="1224"/>
      <point x="544" y="1238"/>
      <point x="589" y="1238" type="curve" smooth="yes"/>
      <point x="641" y="1238"/>
      <point x="688" y="1220"/>
      <point x="728" y="1192" type="curve"/>
      <point x="767" y="1163"/>
      <point x="799" y="1122"/>
      <point x="823" y="1077" type="curve"/>
      <point x="1040" y="1211" type="line"/>
      <point x="940" y="1383"/>
      <point x="794" y="1468"/>
      <point x="597" y="1468" type="curve" smooth="yes"/>
      <point x="469" y="1468"/>
      <point x="357" y="1428"/>
      <point x="277" y="1359" type="curve" smooth="yes"/>
      <point x="197" y="1290"/>
      <point x="150" y="1190"/>
      <point x="150" y="1070" type="curve" smooth="yes"/>
      <point x="150" y="945"/>
      <point x="200" y="860"/>
      <point x="276" y="796" type="curve" smooth="yes"/>
      <point x="351" y="732"/>
      <point x="451" y="690"/>
      <point x="551" y="647" type="curve" smooth="yes"/>
      <point x="623" y="616"/>
      <point x="696" y="586"/>
      <point x="750" y="548" type="curve" smooth="yes"/>
      <point x="804" y="510"/>
      <point x="840" y="463"/>
      <point x="840" y="400" type="curve" smooth="yes"/>
      <point x="840" y="335"/>
      <point x="812" y="288"/>
      <point x="769" y="258" type="curve" smooth="yes"/>
      <point x="725" y="228"/>
      <point x="667" y="214"/>
      <point x="607" y="214" type="curve" smooth="yes"/>
      <point x="520" y="214"/>
      <point x="453" y="241"/>
      <point x="405" y="287" type="curve" smooth="yes"/>
      <point x="356" y="333"/>
      <point x="325" y="400"/>
      <point x="313" y="480" type="curve"/>
    </contour>
  </outline>
</glyph>
<glyph name="T" format="2">
  <advance width="1208"/>
  <unicode hex="0054"/>
  <anchor x="582" y="0" name="cedilla"/>
  <outline>
    <contour>
      <point x="474" y="0" type="line"/>
      <point x="734" y="0" type="line"/>
      <point x="734" y="1215" type="line"/>
      <point x="1187" y="1215" type="line"/>
      <point x="1187" y="1448" type="line"/>
      <point x="20" y="1448" type="line"/>
      <point x="20" y="1215" type="line"/>
      <point x="474" y="1215" type="line"/>
    </contour>
  </outline>
</glyph>
<glyph name="U" format="2">
  <advance width="1413"/>
  <unicode hex="0055"/>
  <outline>
    <contour>
      <point x="707" y="-20" type="curve" smooth="yes"/>
      <point x="899" y="-20"/>
      <point x="1039" y="37"/>
      <point x="1129" y="139" type="curve" smooth="yes"/>
      <point x="1219" y="241"/>
      <point x="1261" y="389"/>
      <point x="1261" y="574" type="curve" smooth="yes"/>
      <point x="1261" y="1448" type="line"/>
      <point x="1000" y="1448" type="line"/>
      <point x="1000" y="594" type="line" smooth="yes"/>
      <point x="1000" y="469"/>
      <point x="983" y="377"/>
      <point x="937" y="318" type="curve" smooth="yes"/>
      <point x="891" y="258"/>
      <point x="818" y="230"/>
      <point x="707" y="230" type="curve" smooth="yes"/>
      <point x="588" y="230"/>
      <point x="515" y="265"/>
      <point x="471" y="329" type="curve" smooth="yes"/>
      <point x="427" y="392"/>
      <point x="413" y="482"/>
      <point x="413" y="594" type="curve" smooth="yes"/>
      <point x="413" y="1448" type="line"/>
      <point x="154" y="1448" type="line"/>
      <point x="154" y="564" type="line" smooth="yes"/>
      <point x="154" y="381"/>
      <point x="198" y="235"/>
      <point x="289" y="135" type="curve" smooth="yes"/>
      <point x="380" y="35"/>
      <point x="519" y="-20"/>
    </contour>
  </outline>
</glyph>
<glyph name="V" format="2">
  <advance width="1375"/>
  <unicode hex="0056"/>
  <outline>
    <contour>
      <point x="786" y="0" type="line"/>
      <point x="1363" y="1448" type="line"/>
      <point x="1078" y="1448" type="line"/>
      <point x="690" y="422" type="line"/>
      <point x="300" y="1448" type="line"/>
      <point x="12" y="1448" type="line"/>
      <point x="592" y="0" type="line"/>
    </contour>
  </outline>
</glyph>
<glyph name="W" format="2">
  <advance width="2051"/>
  <unicode hex="0057"/>
  <anchor x="1025" y="1617.92" name="top"/>
  <outline>
    <contour>
      <point x="1591" y="0" type="line"/>
      <point x="2025" y="1448" type="line"/>
      <point x="1755" y="1448" type="line"/>
      <point x="1447" y="382" type="line"/>
      <point x="1126" y="1448" type="line"/>
      <point x="925" y="1448" type="line"/>
      <point x="604" y="382" type="line"/>
      <point x="296" y="1448" type="line"/>
      <point x="26" y="1448" type="line"/>
      <point x="460" y="0" type="line"/>
      <point x="711" y="0" type="line"/>
      <point x="1025" y="1037" type="line"/>
      <point x="1340" y="0" type="line"/>
    </contour>
  </outline>
</glyph>
<glyph name="X" format="2">
  <advance width="1375"/>
  <unicode hex="0058"/>
  <outline>
    <contour>
      <point x="1351" y="0" type="line"/>
      <point x="866" y="724" type="line"/>
      <point x="1349" y="1448" type="line"/>
      <point x="1038" y="1448" type="line"/>
      <point x="688" y="889" type="line"/>
      <point x="338" y="1448" type="line"/>
      <point x="28" y="1448" type="line"/>
      <point x="510" y="724" type="line"/>
      <point x="26" y="0" type="line"/>
      <point x="336" y="0" type="line"/>
      <point x="686" y="550" type="line"/>
      <point x="1040" y="0" type="line"/>
    </contour>
  </outline>
</glyph>
<glyph name="Y" format="2">
  <advance width="1351"/>
  <unicode hex="0059"/>
  <anchor x="672.768" y="1617.92" name="top"/>
  <outline>
    <contour>
      <point x="812.032" y="0" type="line"/>
      <point x="812.032" y="564.224" type="line"/>
      <point x="1352.7" y="1447.91" type="line"/>
      <point x="1036.29" y="1447.91" type="line"/>
      <point x="672.768" y="814.08" type="line"/>
      <point x="312.32" y="1447.91" type="line"/>
      <point x="-2.048" y="1447.91" type="line"/>
      <point x="540.672" y="564.224" type="line"/>
      <point x="540.672" y="0" type="line"/>
    </contour>
  </outline>
  <guideline angle="90" name="vertical" x="672.768" y="0"/>
</glyph>
<glyph name="Z" format="2">
  <advance width="1303"/>
  <unicode hex="005A"/>
  <anchor x="666.624" y="1617.92" name="top"/>
  <outline>
    <contour>
      <point x="1226.75" y="0" type="line"/>
      <point x="1226.75" y="234.496" type="line"/>
      <point x="423.936" y="234.496" type="line"/>
      <point x="1226.75" y="1259.5" type="line"/>
      <point x="1226.75" y="1447.91" type="line"/>
      <point x="106.496" y="1447.91" type="line"/>
      <point x="106.496" y="1209.32" type="line"/>
      <point x="868.352" y="1209.32" type="line"/>
      <point x="60.416" y="180.224" type="line"/>
      <point x="60.416" y="0" type="line"/>
    </contour>
  </outline>
  <guideline angle="90" name="vertical" x="666.624" y="0"/>
</glyph>
<glyph name="bracketleft" format="2">
  <advance width="656"/>
  <unicode hex="005B"/>
  <outline>
    <contour>
      <point x="622.592" y="-167.936" type="line"/>
      <point x="622.592" y="0" type="line"/>
      <point x="381.952" y="0" type="line"/>
      <point x="381.952" y="1444.86" type="line"/>
      <point x="622.592" y="1444.86" type="line"/>
      <point x="622.592" y="1610.75" type="line"/>
      <point x="180.224" y="1610.75" type="line"/>
      <point x="180.224" y="-167.936" type="line"/>
    </contour>
  </outline>
</glyph>
<glyph name="bracketright" format="2">
  <advance width="656"/>
  <unicode hex="005D"/>
  <outline>
    <contour>
      <point x="476.16" y="-167.936" type="line"/>
      <point x="476.16" y="1610.75" type="line"/>
      <point x="33.792" y="1610.75" type="line"/>
      <point x="33.792" y="1444.86" type="line"/>
      <point x="274.432" y="1444.86" type="line"/>
      <point x="274.432" y="0" type="line"/>
      <point x="33.792" y="0" type="line"/>
      <point x="33.792" y="-167.936" type="line"/>
    </contour>
  </outline>
</glyph>
<glyph name="asciicircum" format="2">
  <advance width="1005"/>
  <unicode hex="005E"/>
  <outline>
    <contour>
      <point x="940" y="824" type="line"/>
      <point x="501" y="1533" type="line"/>
      <point x="65" y="824" type="line"/>
      <point x="312" y="824" type="line"/>
      <point x="501" y="1133" type="line"/>
      <point x="692" y="824" type="line"/>
    </contour>
  </outline>
</glyph>
<glyph name="underscore" format="2">
  <advance width="1277"/>
  <unicode hex="005F"/>
  <outline>
    <contour>
      <point x="1074" y="-188" type="line"/>
      <point x="1074" y="0" type="line"/>
      <point x="204" y="0" type="line"/>
      <point x="204" y="-188" type="line"/>
    </contour>
  </outline>
</glyph>
<glyph name="grave" format="2">
  <advance width="545"/>
  <unicode hex="0060"/>
  <outline>
    <contour>
      <point x="510.976" y="1191.94" type="line"/>
      <point x="279.552" y="1508.35" type="line"/>
      <point x="13.312" y="1508.35" type="line"/>
      <point x="328.704" y="1191.94" type="line"/>
    </contour>
  </outline>
  <guideline angle="90" x="13.312" y="0"/>
  <guideline angle="90" x="510.976" y="0"/>
</glyph>
<glyph name="a" format="2">
  <advance width="1092"/>
  <unicode hex="0061"/>
  <anchor x="974" y="0" name="ogonek"/>
  <anchor x="531" y="1192" name="top"/>
  <anchor x="531" y="1406" name="center"/>
  <anchor x="531" y="-150" name="bottom"/>
  <outline>
    <contour>
      <point x="423" y="-20" type="curve" smooth="yes"/>
      <point x="567" y="-20"/>
      <point x="670" y="26"/>
      <point x="752" y="148" type="curve" name=".iv01"/>
      <point x="771" y="0" type="line"/>
      <point x="1008" y="0" type="line"/>
      <point x="988" y="75"/>
      <point x="974" y="181"/>
      <point x="974" y="252" type="curve" smooth="yes"/>
      <point x="974" y="625" type="line" smooth="yes" name=".sh01"/>
      <point x="974" y="915"/>
      <point x="807" y="1084"/>
      <point x="527" y="1084" type="curve" smooth="yes" name=".dv04"/>
      <point x="340" y="1084"/>
      <point x="200" y="1007"/>
      <point x="97" y="863" type="curve"/>
      <point x="289" y="724" type="line" name=".sh04"/>
      <point x="341" y="813"/>
      <point x="424" y="866"/>
      <point x="532" y="866" type="curve" smooth="yes" name=".dv03"/>
      <point x="671" y="866"/>
      <point x="736" y="775"/>
      <point x="736" y="614" type="curve" name=".dv06"/>
      <point x="467" y="614" type="line" smooth="yes"/>
      <point x="266" y="614"/>
      <point x="45" y="554"/>
      <point x="45" y="310" type="curve" smooth="yes" name=".sh02"/>
      <point x="45" y="98"/>
      <point x="228" y="-20"/>
    </contour>
    <contour>
      <point x="467" y="190" type="curve" smooth="yes" name=".dv02"/>
      <point x="369" y="190"/>
      <point x="301" y="236"/>
      <point x="301" y="308" type="curve" smooth="yes" name=".sh03"/>
      <point x="301" y="416"/>
      <point x="425" y="434"/>
      <point x="509" y="434" type="curve" smooth="yes" name=".sv01"/>
      <point x="736" y="434" type="line" name=".dv05"/>
      <point x="736" y="297"/>
      <point x="595" y="190"/>
    </contour>
  </outline>
</glyph>
<glyph name="b" format="2">
  <advance width="1223"/>
  <unicode hex="0062"/>
  <outline>
    <contour>
      <point x="714" y="-20" type="curve" smooth="yes"/>
      <point x="865" y="-20"/>
      <point x="977" y="49"/>
      <point x="1052" y="153" type="curve" smooth="yes"/>
      <point x="1089" y="204"/>
      <point x="1117" y="263"/>
      <point x="1136" y="330" type="curve" smooth="yes"/>
      <point x="1155" y="396"/>
      <point x="1164" y="463"/>
      <point x="1164" y="532" type="curve" smooth="yes"/>
      <point x="1164" y="671"/>
      <point x="1129" y="808"/>
      <point x="1054" y="912" type="curve" smooth="yes"/>
      <point x="979" y="1015"/>
      <point x="866" y="1084"/>
      <point x="710" y="1084" type="curve" smooth="yes"/>
      <point x="595" y="1084"/>
      <point x="490" y="1049"/>
      <point x="415" y="961" type="curve"/>
      <point x="415" y="1448" type="line"/>
      <point x="157" y="1448" type="line"/>
      <point x="157" y="0" type="line"/>
      <point x="415" y="0" type="line"/>
      <point x="415" y="102" type="line"/>
      <point x="491" y="15"/>
      <point x="601" y="-20"/>
    </contour>
    <contour>
      <point x="653" y="210" type="curve" smooth="yes"/>
      <point x="564" y="210"/>
      <point x="498" y="245"/>
      <point x="455" y="303" type="curve" smooth="yes"/>
      <point x="412" y="361"/>
      <point x="392" y="440"/>
      <point x="392" y="532" type="curve" smooth="yes"/>
      <point x="392" y="616"/>
      <point x="410" y="698"/>
      <point x="451" y="759" type="curve" smooth="yes"/>
      <point x="492" y="819"/>
      <point x="558" y="858"/>
      <point x="653" y="858" type="curve" smooth="yes"/>
      <point x="748" y="858"/>
      <point x="813" y="818"/>
      <point x="854" y="758" type="curve" smooth="yes"/>
      <point x="894" y="697"/>
      <point x="912" y="616"/>
      <point x="912" y="532" type="curve" smooth="yes"/>
      <point x="912" y="447"/>
      <point x="895" y="367"/>
      <point x="854" y="308" type="curve" smooth="yes"/>
      <point x="813" y="248"/>
      <point x="748" y="210"/>
    </contour>
  </outline>
</glyph>
<glyph name="c" format="2">
  <advance width="1055"/>
  <unicode hex="0063"/>
  <anchor x="568" y="1191.94" name="top"/>
  <outline>
    <contour>
      <point x="570" y="-20" type="curve" smooth="yes"/>
      <point x="777" y="-20"/>
      <point x="943" y="92"/>
      <point x="1014" y="288" type="curve"/>
      <point x="777" y="379" type="line"/>
      <point x="748" y="278"/>
      <point x="670" y="214"/>
      <point x="564" y="214" type="curve" smooth="yes"/>
      <point x="380" y="214"/>
      <point x="314" y="367"/>
      <point x="314" y="530" type="curve" smooth="yes"/>
      <point x="314" y="693"/>
      <point x="385" y="849"/>
      <point x="564" y="849" type="curve" smooth="yes"/>
      <point x="666" y="849"/>
      <point x="747" y="794"/>
      <point x="777" y="684" type="curve"/>
      <point x="1024" y="782" type="line"/>
      <point x="940" y="972"/>
      <point x="777" y="1084"/>
      <point x="568" y="1084" type="curve" smooth="yes"/>
      <point x="253" y="1084"/>
      <point x="60" y="839"/>
      <point x="60" y="530" type="curve" smooth="yes"/>
      <point x="60" y="244"/>
      <point x="230" y="-20"/>
    </contour>
  </outline>
</glyph>
<glyph name="d" format="2">
  <advance width="1218"/>
  <unicode hex="0064"/>
  <outline>
    <component base="a.cv01" xOffset="18"/>
    <contour>
      <point x="816" y="1000" type="line"/>
      <point x="1070" y="1000" type="line"/>
      <point x="1070" y="1448" type="line"/>
      <point x="816" y="1448" type="line"/>
    </contour>
  </outline>
</glyph>
<glyph name="e" format="2">
  <advance width="1132"/>
  <unicode hex="0065"/>
  <outline>
    <contour>
      <point x="591" y="-12" type="qcurve" smooth="yes"/>
      <point x="661" y="-12"/>
      <point x="784" y="9"/>
      <point x="894" y="53"/>
      <point x="991" y="119"/>
      <point x="1034" y="164" type="qcurve"/>
      <point x="855" y="324" type="line"/>
      <point x="827" y="292"/>
      <point x="768" y="252"/>
      <point x="702" y="229"/>
      <point x="630" y="220"/>
      <point x="589" y="220" type="qcurve" smooth="yes"/>
      <point x="534" y="220"/>
      <point x="445" y="250"/>
      <point x="380" y="309"/>
      <point x="340" y="395"/>
      <point x="334" y="451" type="qcurve"/>
      <point x="1064" y="451" type="line"/>
      <point x="1069" y="464"/>
      <point x="1073" y="503"/>
      <point x="1073" y="530" type="qcurve" smooth="yes"/>
      <point x="1073" y="665"/>
      <point x="1007" y="872"/>
      <point x="879" y="1012"/>
      <point x="692" y="1084"/>
      <point x="571" y="1084" type="qcurve" smooth="yes"/>
      <point x="457" y="1084"/>
      <point x="269" y="1004"/>
      <point x="133" y="857"/>
      <point x="58" y="652"/>
      <point x="58" y="526" type="qcurve" smooth="yes"/>
      <point x="58" y="406"/>
      <point x="135" y="207"/>
      <point x="275" y="66"/>
      <point x="471" y="-12"/>
    </contour>
    <contour>
      <point x="334" y="631" type="line"/>
      <point x="343" y="691"/>
      <point x="383" y="783"/>
      <point x="443" y="844"/>
      <point x="523" y="874"/>
      <point x="571" y="874" type="qcurve" smooth="yes"/>
      <point x="626" y="874"/>
      <point x="712" y="845"/>
      <point x="774" y="784"/>
      <point x="811" y="693"/>
      <point x="818" y="631" type="qcurve"/>
    </contour>
  </outline>
</glyph>
<glyph name="f" format="2">
  <advance width="722"/>
  <unicode hex="0066"/>
  <outline>
    <contour>
      <point x="216" y="0" type="line"/>
      <point x="466" y="0" type="line"/>
      <point x="466" y="855" type="line"/>
      <point x="714" y="855" type="line"/>
      <point x="714" y="1064" type="line"/>
      <point x="466" y="1064" type="line"/>
      <point x="466" y="1155" type="line" smooth="yes"/>
      <point x="466" y="1204"/>
      <point x="523" y="1246"/>
      <point x="564" y="1246" type="qcurve" smooth="yes"/>
      <point x="584" y="1246"/>
      <point x="624" y="1236"/>
      <point x="647" y="1226" type="qcurve"/>
      <point x="732" y="1426" type="line"/>
      <point x="683" y="1447"/>
      <point x="590" y="1468"/>
      <point x="543" y="1468" type="qcurve" smooth="yes"/>
      <point x="471" y="1468"/>
      <point x="351" y="1428"/>
      <point x="266" y="1354"/>
      <point x="218" y="1251"/>
      <point x="218" y="1189" type="qcurve" smooth="yes"/>
      <point x="218" y="1064" type="line"/>
      <point x="22" y="1064" type="line"/>
      <point x="22" y="855" type="line"/>
      <point x="216" y="855" type="line"/>
    </contour>
  </outline>
</glyph>
<glyph name="g" format="2">
  <advance width="1139"/>
  <unicode hex="0067"/>
  <anchor x="571" y="-465" name="m.uni0326"/>
  <anchor x="0" y="11" name="m.uni0328_1"/>
  <anchor x="571" y="1072" name="m.uni0308_2"/>
  <anchor x="0" y="11" name="m.uni031B_3_2"/>
  <outline>
    <contour>
      <point x="577" y="-467" type="curve"/>
      <point x="805" y="-467"/>
      <point x="1074" y="-375"/>
      <point x="1074" y="-112" type="curve" smooth="yes"/>
      <point x="1074" y="104"/>
      <point x="892" y="194"/>
      <point x="695" y="194" type="curve" smooth="yes"/>
      <point x="470" y="194" type="line" smooth="yes"/>
      <point x="364" y="194"/>
      <point x="310" y="217"/>
      <point x="310" y="286" type="curve" smooth="yes"/>
      <point x="310" y="328"/>
      <point x="331" y="357"/>
      <point x="368" y="373" type="curve"/>
      <point x="433" y="347"/>
      <point x="505" y="333"/>
      <point x="584" y="333" type="curve" smooth="yes"/>
      <point x="807" y="333"/>
      <point x="1001" y="461"/>
      <point x="1001" y="697" type="curve" smooth="yes"/>
      <point x="1001" y="764"/>
      <point x="986" y="826"/>
      <point x="957" y="881" type="curve"/>
      <point x="1112" y="1005" type="line"/>
      <point x="982" y="1168" type="line"/>
      <point x="818" y="1027" type="line"/>
      <point x="747" y="1067"/>
      <point x="665" y="1084"/>
      <point x="572" y="1084" type="curve" smooth="yes"/>
      <point x="337" y="1084"/>
      <point x="140" y="946"/>
      <point x="140" y="705" type="curve" smooth="yes"/>
      <point x="140" y="623"/>
      <point x="162" y="553"/>
      <point x="208" y="493" type="curve"/>
      <point x="117" y="437"/>
      <point x="72" y="354"/>
      <point x="72" y="263" type="curve" smooth="yes"/>
      <point x="72" y="155"/>
      <point x="135" y="76"/>
      <point x="217" y="25" type="curve"/>
      <point x="68" y="-34" type="line"/>
      <point x="57" y="-62"/>
      <point x="51" y="-93"/>
      <point x="51" y="-128" type="curve" smooth="yes"/>
      <point x="51" y="-378"/>
      <point x="363" y="-470"/>
    </contour>
    <contour>
      <point x="576" y="517" type="curve" smooth="yes"/>
      <point x="462" y="517"/>
      <point x="395" y="592"/>
      <point x="395" y="700" type="curve" smooth="yes"/>
      <point x="395" y="811"/>
      <point x="461" y="881"/>
      <point x="576" y="881" type="curve" smooth="yes"/>
      <point x="690" y="881"/>
      <point x="754" y="811"/>
      <point x="754" y="700" type="curve" smooth="yes"/>
      <point x="754" y="592"/>
      <point x="688" y="517"/>
    </contour>
    <contour>
      <point x="585" y="-276" type="curve" smooth="yes"/>
      <point x="429" y="-276"/>
      <point x="287" y="-215"/>
      <point x="290" y="-110" type="curve"/>
      <point x="384" y="-21" type="line"/>
      <point x="593" y="-21" type="line" smooth="yes"/>
      <point x="750" y="-21"/>
      <point x="828" y="-43"/>
      <point x="828" y="-133" type="curve" smooth="yes"/>
      <point x="828" y="-226"/>
      <point x="717" y="-276"/>
    </contour>
  </outline>
</glyph>
<glyph name="h" format="2">
  <advance width="1213"/>
  <unicode hex="0068"/>
  <anchor x="283.648" y="1617.92" name="top"/>
  <outline>
    <contour>
      <point x="156.672" y="0" type="line"/>
      <point x="410.624" y="0" type="line"/>
      <point x="410.624" y="588.8" type="line" smooth="yes"/>
      <point x="410.624" y="730.112"/>
      <point x="538.624" y="847.872"/>
      <point x="676.864" y="847.872" type="curve" smooth="yes"/>
      <point x="819.2" y="847.872"/>
      <point x="846.848" y="732.16"/>
      <point x="846.848" y="612.352" type="curve" smooth="yes"/>
      <point x="846.848" y="0" type="line"/>
      <point x="1100.8" y="0" type="line"/>
      <point x="1100.8" y="638.976" type="line" smooth="yes"/>
      <point x="1100.8" y="877.568"/>
      <point x="977.92" y="1081.34"/>
      <point x="713.728" y="1081.34" type="curve" smooth="yes"/>
      <point x="606.208" y="1081.34"/>
      <point x="492.544" y="1042.43"/>
      <point x="410.624" y="945.152" type="curve"/>
      <point x="410.624" y="1446.91" type="line"/>
      <point x="156.672" y="1446.91" type="line"/>
    </contour>
  </outline>
  <guideline angle="90" name="vertical" x="283.648" y="0"/>
</glyph>
<glyph name="i" format="2">
  <advance width="557"/>
  <unicode hex="0069"/>
  <anchor x="394" y="0" name="ogonek"/>
  <outline>
    <contour>
      <point x="148" y="1217" type="line"/>
      <point x="409" y="1217" type="line"/>
      <point x="409" y="1448" type="line"/>
      <point x="148" y="1448" type="line"/>
    </contour>
    <contour>
      <point x="153" y="0" type="line"/>
      <point x="403" y="0" type="line"/>
      <point x="403" y="1064" type="line"/>
      <point x="153" y="1064" type="line"/>
    </contour>
  </outline>
</glyph>
<glyph name="j" format="2">
  <advance width="565"/>
  <unicode hex="006A"/>
  <outline>
    <contour>
      <point x="148" y="1217" type="line"/>
      <point x="410" y="1217" type="line"/>
      <point x="410" y="1447" type="line"/>
      <point x="148" y="1447" type="line"/>
    </contour>
    <contour>
      <point x="-25" y="-210" type="curve"/>
      <point x="-83" y="-416" type="line"/>
      <point x="-23" y="-438"/>
      <point x="35" y="-449"/>
      <point x="90" y="-449" type="curve" smooth="yes"/>
      <point x="303" y="-449"/>
      <point x="398" y="-302"/>
      <point x="398" y="-109" type="curve" smooth="yes"/>
      <point x="398" y="1064" type="line"/>
      <point x="160" y="1064" type="line"/>
      <point x="160" y="-123" type="line" smooth="yes"/>
      <point x="160" y="-197"/>
      <point x="139" y="-224"/>
      <point x="87" y="-224" type="curve" smooth="yes"/>
      <point x="53" y="-224"/>
      <point x="16" y="-219"/>
    </contour>
  </outline>
</glyph>
<glyph name="k" format="2">
  <advance width="1211"/>
  <unicode hex="006B"/>
  <outline>
    <contour>
      <point x="154.624" y="0" type="line"/>
      <point x="405.48" y="0" type="line"/>
      <point x="405.48" y="312.32" type="line"/>
      <point x="569.32" y="493.568" type="line"/>
      <point x="881.64" y="0" type="line"/>
      <point x="1187.82" y="0" type="line"/>
      <point x="746.472" y="651.264" type="line"/>
      <point x="1144.81" y="1063.94" type="line"/>
      <point x="806.888" y="1063.94" type="line"/>
      <point x="405.48" y="621.568" type="line"/>
      <point x="405.48" y="1447.91" type="line"/>
      <point x="154.624" y="1447.91" type="line"/>
    </contour>
  </outline>
</glyph>
<glyph name="l" format="2">
  <advance width="592"/>
  <unicode hex="006C"/>
  <anchor x="273.408" y="1617.92" name="top"/>
  <outline>
    <contour>
      <point x="371.712" y="-20.48" type="curve" smooth="yes"/>
      <point x="422.912" y="-20.48"/>
      <point x="483.328" y="-13.312"/>
      <point x="553.984" y="0" type="curve"/>
      <point x="553.984" y="209.92" type="line"/>
      <point x="526.336" y="205.824"/>
      <point x="499.712" y="203.776"/>
      <point x="468.992" y="203.776" type="curve" smooth="yes"/>
      <point x="422.912" y="203.776"/>
      <point x="398.336" y="226.304"/>
      <point x="398.336" y="272.384" type="curve" smooth="yes"/>
      <point x="398.336" y="1446.91" type="line"/>
      <point x="148.48" y="1446.91" type="line"/>
      <point x="148.48" y="203.776" type="line" smooth="yes"/>
      <point x="148.48" y="47.104"/>
      <point x="215.04" y="-20.48"/>
    </contour>
  </outline>
  <guideline angle="90" name="vertical" x="273.408" y="0"/>
</glyph>
<glyph name="m" format="2">
  <advance width="1815"/>
  <unicode hex="006D"/>
  <outline>
    <contour>
      <point x="155" y="0" type="line"/>
      <point x="407" y="0" type="line"/>
      <point x="407" y="592" type="line" smooth="yes"/>
      <point x="407" y="663"/>
      <point x="428" y="727"/>
      <point x="466" y="775" type="curve" smooth="yes"/>
      <point x="504" y="822"/>
      <point x="560" y="852"/>
      <point x="629" y="852" type="curve" smooth="yes"/>
      <point x="700" y="852"/>
      <point x="743" y="824"/>
      <point x="768" y="780" type="curve" smooth="yes"/>
      <point x="793" y="736"/>
      <point x="800" y="677"/>
      <point x="800" y="617" type="curve" smooth="yes"/>
      <point x="800" y="0" type="line"/>
      <point x="1054" y="0" type="line"/>
      <point x="1054" y="592" type="line" smooth="yes"/>
      <point x="1054" y="661"/>
      <point x="1074" y="726"/>
      <point x="1111" y="774" type="curve" smooth="yes"/>
      <point x="1148" y="822"/>
      <point x="1204" y="852"/>
      <point x="1276" y="852" type="curve" smooth="yes"/>
      <point x="1347" y="852"/>
      <point x="1390" y="822"/>
      <point x="1415" y="778" type="curve" smooth="yes"/>
      <point x="1440" y="733"/>
      <point x="1447" y="673"/>
      <point x="1447" y="613" type="curve" smooth="yes"/>
      <point x="1447" y="0" type="line"/>
      <point x="1701" y="0" type="line"/>
      <point x="1701" y="640" type="line" smooth="yes"/>
      <point x="1701" y="759"/>
      <point x="1670" y="870"/>
      <point x="1606" y="951" type="curve" smooth="yes"/>
      <point x="1542" y="1031"/>
      <point x="1446" y="1082"/>
      <point x="1314" y="1082" type="curve" smooth="yes"/>
      <point x="1249" y="1082"/>
      <point x="1184" y="1069"/>
      <point x="1125" y="1044" type="curve" smooth="yes"/>
      <point x="1066" y="1019"/>
      <point x="1013" y="980"/>
      <point x="970" y="927" type="curve"/>
      <point x="897" y="1032"/>
      <point x="797" y="1084"/>
      <point x="668" y="1084" type="curve" smooth="yes"/>
      <point x="621" y="1084"/>
      <point x="573" y="1075"/>
      <point x="529" y="1055" type="curve" smooth="yes"/>
      <point x="484" y="1035"/>
      <point x="442" y="1003"/>
      <point x="407" y="958" type="curve"/>
      <point x="407" y="1064" type="line"/>
      <point x="155" y="1064" type="line"/>
    </contour>
  </outline>
</glyph>
<glyph name="n" format="2">
  <advance width="1211"/>
  <unicode hex="006E"/>
  <outline>
    <contour>
      <point x="155" y="0" type="line"/>
      <point x="409" y="0" type="line"/>
      <point x="409" y="592" type="line" smooth="yes"/>
      <point x="409" y="645"/>
      <point x="452" y="739"/>
      <point x="525" y="809"/>
      <point x="621" y="851"/>
      <point x="675" y="851" type="qcurve" smooth="yes"/>
      <point x="762" y="851"/>
      <point x="845" y="735"/>
      <point x="845" y="615" type="qcurve" smooth="yes"/>
      <point x="845" y="0" type="line"/>
      <point x="1099" y="0" type="line"/>
      <point x="1099" y="642" type="line" smooth="yes"/>
      <point x="1099" y="743"/>
      <point x="1045" y="907"/>
      <point x="944" y="1022"/>
      <point x="801" y="1084"/>
      <point x="712" y="1084" type="qcurve" smooth="yes"/>
      <point x="667" y="1084"/>
      <point x="581" y="1066"/>
      <point x="504" y="1031"/>
      <point x="437" y="981"/>
      <point x="409" y="948" type="qcurve"/>
      <point x="409" y="1064" type="line"/>
      <point x="155" y="1064" type="line"/>
    </contour>
  </outline>
</glyph>
<glyph name="o" format="2">
  <advance width="1171"/>
  <unicode hex="006F"/>
  <outline>
    <contour>
      <point x="586" y="-20" type="qcurve" smooth="yes"/>
      <point x="711" y="-20"/>
      <point x="909" y="58"/>
      <point x="1047" y="202"/>
      <point x="1121" y="406"/>
      <point x="1121" y="532" type="qcurve" smooth="yes"/>
      <point x="1121" y="657"/>
      <point x="1049" y="860"/>
      <point x="913" y="1005"/>
      <point x="714" y="1084"/>
      <point x="586" y="1084" type="qcurve" smooth="yes"/>
      <point x="462" y="1084"/>
      <point x="263" y="1006"/>
      <point x="124" y="862"/>
      <point x="50" y="658"/>
      <point x="50" y="532" type="qcurve" smooth="yes"/>
      <point x="50" y="408"/>
      <point x="123" y="205"/>
      <point x="261" y="60"/>
      <point x="460" y="-20"/>
    </contour>
    <contour>
      <point x="586" y="196" type="qcurve" smooth="yes"/>
      <point x="512" y="196"/>
      <point x="407" y="251"/>
      <point x="341" y="344"/>
      <point x="310" y="466"/>
      <point x="310" y="532" type="qcurve" smooth="yes"/>
      <point x="310" y="600"/>
      <point x="341" y="722"/>
      <point x="408" y="814"/>
      <point x="513" y="868"/>
      <point x="586" y="868" type="qcurve" smooth="yes"/>
      <point x="661" y="868"/>
      <point x="766" y="814"/>
      <point x="831" y="721"/>
      <point x="861" y="600"/>
      <point x="861" y="532" type="qcurve" smooth="yes"/>
      <point x="861" y="465"/>
      <point x="831" y="343"/>
      <point x="765" y="251"/>
      <point x="661" y="196"/>
    </contour>
  </outline>
</glyph>
<glyph name="p" format="2">
  <advance width="1218"/>
  <unicode hex="0070"/>
  <outline>
    <contour>
      <point x="410.624" y="-448.512" type="line"/>
      <point x="410.624" y="102.4" type="line"/>
      <point x="485.376" y="16.384"/>
      <point x="598.016" y="-20.48"/>
      <point x="709.632" y="-20.48" type="curve" smooth="yes"/>
      <point x="1011.71" y="-20.48"/>
      <point x="1159.17" y="257.024"/>
      <point x="1159.17" y="532.48" type="curve" smooth="yes"/>
      <point x="1159.17" y="807.936"/>
      <point x="1017.86" y="1085.44"/>
      <point x="705.536" y="1085.44" type="curve" smooth="yes"/>
      <point x="591.872" y="1085.44"/>
      <point x="484.352" y="1048.58"/>
      <point x="410.624" y="961.536" type="curve"/>
      <point x="410.624" y="1063.94" type="line"/>
      <point x="156.672" y="1063.94" type="line"/>
      <point x="156.672" y="-448.512" type="line"/>
    </contour>
    <contour>
      <point x="646.144" y="209.92" type="curve" smooth="yes"/>
      <point x="468.992" y="209.92"/>
      <point x="388.096" y="347.136"/>
      <point x="388.096" y="532.48" type="curve" smooth="yes"/>
      <point x="388.096" y="699.392"/>
      <point x="455.68" y="861.184"/>
      <point x="646.144" y="861.184" type="curve" smooth="yes"/>
      <point x="836.608" y="861.184"/>
      <point x="905.216" y="700.416"/>
      <point x="905.216" y="532.48" type="curve" smooth="yes"/>
      <point x="905.216" y="347.136"/>
      <point x="825.344" y="209.92"/>
    </contour>
  </outline>
</glyph>
<glyph name="q" format="2">
  <advance width="1215"/>
  <unicode hex="0071"/>
  <outline>
    <contour>
      <point x="1068.03" y="-448.512" type="line"/>
      <point x="1068.03" y="1063.94" type="line"/>
      <point x="816.128" y="1063.94" type="line"/>
      <point x="816.128" y="961.536" type="line"/>
      <point x="748.745" y="1040.15"/>
      <point x="641.362" y="1084.44"/>
      <point x="518.144" y="1084.44" type="curve" smooth="yes"/>
      <point x="254.678" y="1084.44"/>
      <point x="67.584" y="855.24"/>
      <point x="67.584" y="532.48" type="curve" smooth="yes"/>
      <point x="67.584" y="205.45"/>
      <point x="253.349" y="-20.48"/>
      <point x="522.24" y="-20.48" type="curve" smooth="yes"/>
      <point x="647.317" y="-20.48"/>
      <point x="749" y="22.0354"/>
      <point x="816.128" y="102.4" type="curve"/>
      <point x="816.128" y="-448.512" type="line"/>
    </contour>
    <contour>
      <point x="580.608" y="209.92" type="curve" smooth="yes"/>
      <point x="416.576" y="209.92"/>
      <point x="321.536" y="328.251"/>
      <point x="321.536" y="532.48" type="curve" smooth="yes"/>
      <point x="321.536" y="735"/>
      <point x="419.496" y="858.136"/>
      <point x="580.608" y="858.136" type="curve" smooth="yes"/>
      <point x="742.112" y="858.136"/>
      <point x="837.632" y="737.109"/>
      <point x="837.632" y="532.48" type="curve" smooth="yes"/>
      <point x="837.632" y="326.338"/>
      <point x="744.867" y="209.92"/>
    </contour>
  </outline>
</glyph>
<glyph name="r" format="2">
  <advance width="853"/>
  <unicode hex="0072"/>
  <outline>
    <contour>
      <point x="155" y="0" type="line"/>
      <point x="396" y="0" type="line"/>
      <point x="396" y="504" type="line" smooth="yes"/>
      <point x="396" y="529"/>
      <point x="398" y="554"/>
      <point x="402" y="581" type="curve" smooth="yes"/>
      <point x="410" y="634"/>
      <point x="428" y="686"/>
      <point x="454" y="731" type="curve" smooth="yes"/>
      <point x="467" y="754"/>
      <point x="482" y="774"/>
      <point x="501" y="791" type="curve"/>
      <point x="537" y="826"/>
      <point x="583" y="847"/>
      <point x="642" y="847" type="curve" smooth="yes"/>
      <point x="697" y="847"/>
      <point x="736" y="835"/>
      <point x="760" y="810" type="curve"/>
      <point x="776" y="837"/>
      <point x="803" y="885"/>
      <point x="828" y="928" type="curve" smooth="yes"/>
      <point x="852" y="971"/>
      <point x="875" y="1009"/>
      <point x="879" y="1017" type="curve"/>
      <point x="814" y="1064"/>
      <point x="728" y="1084"/>
      <point x="653" y="1084" type="curve" smooth="yes"/>
      <point x="593" y="1084"/>
      <point x="539" y="1065"/>
      <point x="495" y="1031" type="curve" smooth="yes"/>
      <point x="451" y="997"/>
      <point x="418" y="948"/>
      <point x="398" y="892" type="curve"/>
      <point x="398" y="1064" type="line"/>
      <point x="155" y="1064" type="line"/>
    </contour>
  </outline>
</glyph>
<glyph name="s" format="2">
  <advance width="963"/>
  <unicode hex="0073"/>
  <anchor x="522" y="0" name="m.uni0326"/>
  <anchor x="0" y="0" name="m.uni0328_1"/>
  <anchor x="457" y="1062" name="m.uni0308_2"/>
  <anchor x="0" y="0" name="m.uni031B_3_2"/>
  <outline>
    <contour>
      <point x="474" y="-21" type="curve" smooth="yes"/>
      <point x="690" y="-21"/>
      <point x="889" y="101"/>
      <point x="886" y="332" type="curve"/>
      <point x="886" y="557"/>
      <point x="713" y="623"/>
      <point x="530" y="671" type="curve"/>
      <point x="471" y="689"/>
      <point x="351" y="711"/>
      <point x="347" y="788" type="curve"/>
      <point x="347" y="841"/>
      <point x="401" y="880"/>
      <point x="484" y="880" type="curve"/>
      <point x="589" y="880"/>
      <point x="651" y="824"/>
      <point x="695" y="744" type="curve"/>
      <point x="893" y="854" type="line"/>
      <point x="811" y="1000"/>
      <point x="672" y="1084"/>
      <point x="492" y="1084" type="curve" smooth="yes"/>
      <point x="286" y="1084"/>
      <point x="101" y="975"/>
      <point x="101" y="754" type="curve"/>
      <point x="101" y="540"/>
      <point x="271" y="490"/>
      <point x="438" y="444" type="curve" smooth="yes"/>
      <point x="502" y="427"/>
      <point x="633" y="405"/>
      <point x="633" y="319" type="curve"/>
      <point x="633" y="258"/>
      <point x="576" y="192"/>
      <point x="461" y="191" type="curve"/>
      <point x="340" y="191"/>
      <point x="275" y="260"/>
      <point x="234" y="368" type="curve"/>
      <point x="31" y="277" type="line"/>
      <point x="91" y="89"/>
      <point x="285" y="-21"/>
    </contour>
  </outline>
</glyph>
<glyph name="t" format="2">
  <advance width="788"/>
  <unicode hex="0074"/>
  <outline>
    <contour>
      <point x="526.336" y="-20.48" type="curve" smooth="yes"/>
      <point x="595.968" y="-20.48"/>
      <point x="670.72" y="-6.144"/>
      <point x="714.752" y="10.24" type="curve"/>
      <point x="714.752" y="238.592" type="line"/>
      <point x="664.576" y="212.992"/>
      <point x="614.4" y="199.68"/>
      <point x="566.272" y="199.68" type="curve" smooth="yes"/>
      <point x="480.256" y="199.68"/>
      <point x="437.248" y="244.736"/>
      <point x="437.248" y="334.848" type="curve" smooth="yes"/>
      <point x="437.248" y="855.04" type="line"/>
      <point x="714.752" y="855.04" type="line"/>
      <point x="714.752" y="1063.94" type="line"/>
      <point x="437.248" y="1063.94" type="line"/>
      <point x="437.248" y="1455.1" type="line"/>
      <point x="201.728" y="1293.31" type="line"/>
      <point x="201.728" y="1063.94" type="line"/>
      <point x="26.624" y="1063.94" type="line"/>
      <point x="26.624" y="855.04" type="line"/>
      <point x="197.632" y="855.04" type="line"/>
      <point x="197.632" y="297.984" type="line" smooth="yes"/>
      <point x="197.632" y="96.256"/>
      <point x="327.68" y="-20.48"/>
    </contour>
  </outline>
</glyph>
<glyph name="u" format="2">
  <advance width="1211"/>
  <unicode hex="0075"/>
  <outline>
    <contour>
      <point x="511" y="-19" type="qcurve" smooth="yes"/>
      <point x="553" y="-19"/>
      <point x="636" y="-2"/>
      <point x="714" y="33"/>
      <point x="784" y="87"/>
      <point x="814" y="124" type="qcurve"/>
      <point x="814" y="0" type="line"/>
      <point x="1068" y="0" type="line"/>
      <point x="1068" y="1064" type="line"/>
      <point x="814" y="1064" type="line"/>
      <point x="814" y="540" type="line" smooth="yes"/>
      <point x="814" y="476"/>
      <point x="793" y="360"/>
      <point x="737" y="271"/>
      <point x="642" y="218"/>
      <point x="568" y="218" type="qcurve" smooth="yes"/>
      <point x="511" y="218"/>
      <point x="437" y="252"/>
      <point x="393" y="313"/>
      <point x="376" y="399"/>
      <point x="376" y="450" type="qcurve" smooth="yes"/>
      <point x="376" y="1064" type="line"/>
      <point x="123" y="1064" type="line"/>
      <point x="123" y="443" type="line" smooth="yes"/>
      <point x="123" y="353"/>
      <point x="169" y="187"/>
      <point x="264" y="58"/>
      <point x="410" y="-19"/>
    </contour>
  </outline>
</glyph>
<glyph name="v" format="2">
  <advance width="1064"/>
  <unicode hex="0076"/>
  <outline>
    <contour>
      <point x="639" y="0" type="line"/>
      <point x="1073" y="1064" type="line"/>
      <point x="792" y="1064" type="line"/>
      <point x="532" y="336" type="line"/>
      <point x="274" y="1064" type="line"/>
      <point x="-8" y="1064" type="line"/>
      <point x="425" y="0" type="line"/>
    </contour>
  </outline>
</glyph>
<glyph name="w" format="2">
  <advance width="1560"/>
  <unicode hex="0077"/>
  <anchor x="780" y="1191.94" name="top"/>
  <outline>
    <contour>
      <point x="571" y="-4" type="line"/>
      <point x="780" y="697" type="line"/>
      <point x="990" y="0" type="line"/>
      <point x="1224" y="0" type="line"/>
      <point x="1552" y="1064" type="line"/>
      <point x="1276" y="1064" type="line"/>
      <point x="1093" y="399" type="line"/>
      <point x="893" y="1064" type="line"/>
      <point x="670" y="1064" type="line"/>
      <point x="469" y="397" type="line"/>
      <point x="288" y="1064" type="line"/>
      <point x="10" y="1064" type="line"/>
      <point x="338" y="-4" type="line"/>
    </contour>
  </outline>
</glyph>
<glyph name="x" format="2">
  <advance width="1096"/>
  <unicode hex="0078"/>
  <outline>
    <contour>
      <point x="768" y="0" type="line"/>
      <point x="1086" y="0" type="line"/>
      <point x="720" y="537" type="line"/>
      <point x="548" y="714" type="line"/>
      <point x="327" y="1064" type="line"/>
      <point x="10" y="1064" type="line"/>
      <point x="375" y="537" type="line"/>
      <point x="548" y="357" type="line"/>
    </contour>
    <contour>
      <point x="10" y="0" type="line"/>
      <point x="327" y="0" type="line"/>
      <point x="564" y="383" type="line"/>
      <point x="392" y="562" type="line"/>
    </contour>
    <contour>
      <point x="531" y="688" type="line"/>
      <point x="702" y="511" type="line"/>
      <point x="1086" y="1064" type="line"/>
      <point x="768" y="1064" type="line"/>
    </contour>
  </outline>
</glyph>
<glyph name="y" format="2">
  <advance width="1099"/>
  <unicode hex="0079"/>
  <anchor x="548" y="1191.94" name="top"/>
  <outline>
    <contour>
      <point x="498" y="-440" type="line"/>
      <point x="1106" y="1064" type="line"/>
      <point x="820" y="1064" type="line"/>
      <point x="548" y="334" type="line"/>
      <point x="279" y="1064" type="line"/>
      <point x="-6" y="1064" type="line"/>
      <point x="410" y="41" type="line"/>
      <point x="214" y="-440" type="line"/>
    </contour>
  </outline>
</glyph>
<glyph name="z" format="2">
  <advance width="1064"/>
  <unicode hex="007A"/>
  <anchor x="549" y="1191.94" name="top"/>
  <outline>
    <contour>
      <point x="994" y="0" type="line"/>
      <point x="994" y="210" type="line"/>
      <point x="418" y="210" type="line"/>
      <point x="994" y="886" type="line"/>
      <point x="994" y="1064" type="line"/>
      <point x="87" y="1064" type="line"/>
      <point x="87" y="855" type="line"/>
      <point x="658" y="855" type="line"/>
      <point x="56" y="166" type="line"/>
      <point x="56" y="0" type="line"/>
    </contour>
  </outline>
</glyph>
<glyph name="braceleft" format="2">
  <advance width="633"/>
  <unicode hex="007B"/>
  <outline>
    <contour>
      <point x="188" y="130" type="line" smooth="yes"/>
      <point x="188" y="61"/>
      <point x="226" y="-47"/>
      <point x="294" y="-121"/>
      <point x="389" y="-160"/>
      <point x="447" y="-160" type="qcurve" smooth="yes"/>
      <point x="579" y="-160" type="line"/>
      <point x="579" y="2" type="line"/>
      <point x="489" y="2" type="line" smooth="yes"/>
      <point x="447" y="2"/>
      <point x="400" y="71"/>
      <point x="400" y="134" type="qcurve" smooth="yes"/>
      <point x="400" y="504" type="line" smooth="yes"/>
      <point x="400" y="531"/>
      <point x="381" y="582"/>
      <point x="344" y="628"/>
      <point x="291" y="668"/>
      <point x="256" y="684" type="qcurve"/>
      <point x="293" y="704"/>
      <point x="347" y="750"/>
      <point x="383" y="804"/>
      <point x="400" y="866"/>
      <point x="400" y="902" type="qcurve" smooth="yes"/>
      <point x="400" y="1384" type="line" smooth="yes"/>
      <point x="400" y="1400"/>
      <point x="413" y="1426"/>
      <point x="437" y="1445"/>
      <point x="470" y="1455"/>
      <point x="489" y="1455" type="qcurve" smooth="yes"/>
      <point x="579" y="1455" type="line"/>
      <point x="579" y="1617" type="line"/>
      <point x="447" y="1617" type="line" smooth="yes"/>
      <point x="327" y="1617"/>
      <point x="188" y="1484"/>
      <point x="188" y="1353" type="qcurve" smooth="yes"/>
      <point x="188" y="916" type="line" smooth="yes"/>
      <point x="188" y="889"/>
      <point x="175" y="847"/>
      <point x="144" y="814"/>
      <point x="92" y="786"/>
      <point x="54" y="772" type="qcurve"/>
      <point x="54" y="608" type="line"/>
      <point x="123" y="591"/>
      <point x="188" y="539"/>
      <point x="188" y="499" type="qcurve" smooth="yes"/>
    </contour>
  </outline>
</glyph>
<glyph name="bar" format="2">
  <advance width="638"/>
  <unicode hex="007C"/>
  <outline>
    <contour>
      <point x="411" y="-524" type="line"/>
      <point x="411" y="1571" type="line"/>
      <point x="226" y="1571" type="line"/>
      <point x="226" y="-524" type="line"/>
    </contour>
  </outline>
</glyph>
<glyph name="asciitilde" format="2">
  <advance width="1185"/>
  <unicode hex="007E"/>
  <outline>
    <contour>
      <point x="176" y="416" type="qcurve"/>
      <point x="350" y="416" type="line"/>
      <point x="350" y="431"/>
      <point x="357" y="461"/>
      <point x="373" y="484"/>
      <point x="401" y="498"/>
      <point x="422" y="498" type="qcurve" smooth="yes"/>
      <point x="442" y="498"/>
      <point x="489" y="485"/>
      <point x="542" y="465"/>
      <point x="602" y="443"/>
      <point x="667" y="423"/>
      <point x="738" y="410"/>
      <point x="776" y="410" type="qcurve" smooth="yes"/>
      <point x="839" y="410"/>
      <point x="927" y="442"/>
      <point x="983" y="505"/>
      <point x="1009" y="599"/>
      <point x="1009" y="660" type="qcurve"/>
      <point x="835" y="660" type="line"/>
      <point x="835" y="645"/>
      <point x="828" y="615"/>
      <point x="812" y="593"/>
      <point x="784" y="579"/>
      <point x="763" y="579" type="qcurve" smooth="yes"/>
      <point x="745" y="579"/>
      <point x="700" y="592"/>
      <point x="647" y="612"/>
      <point x="586" y="634"/>
      <point x="520" y="654"/>
      <point x="447" y="667"/>
      <point x="409" y="667" type="qcurve" smooth="yes"/>
      <point x="346" y="667"/>
      <point x="257" y="635"/>
      <point x="202" y="571"/>
      <point x="176" y="478"/>
    </contour>
  </outline>
</glyph>
<glyph name="exclamdown" format="2">
  <advance width="650"/>
  <unicode hex="00A1"/>
  <outline>
    <contour>
      <point x="462" y="753" type="line"/>
      <point x="462" y="1023" type="line"/>
      <point x="188" y="1023" type="line"/>
      <point x="188" y="753" type="line"/>
    </contour>
    <contour>
      <point x="449" y="-444" type="line"/>
      <point x="420" y="585" type="line"/>
      <point x="230" y="585" type="line"/>
      <point x="202" y="-444" type="line"/>
    </contour>
  </outline>
</glyph>
<glyph name="cent" format="2">
  <advance width="1143"/>
  <unicode hex="00A2"/>
  <outline>
    <contour>
      <point x="690" y="-210" type="line"/>
      <point x="690" y="-20" type="line"/>
      <point x="856" y="8"/>
      <point x="970" y="108"/>
      <point x="1032" y="283" type="curve"/>
      <point x="824" y="365" type="line"/>
      <point x="786" y="234"/>
      <point x="718" y="176"/>
      <point x="600" y="176" type="curve" smooth="yes"/>
      <point x="444" y="176"/>
      <point x="350" y="301"/>
      <point x="350" y="510" type="curve" smooth="yes"/>
      <point x="350" y="715"/>
      <point x="446" y="843"/>
      <point x="600" y="843" type="curve" smooth="yes"/>
      <point x="719" y="843"/>
      <point x="787" y="785"/>
      <point x="824" y="654" type="curve"/>
      <point x="1047" y="740" type="line"/>
      <point x="969" y="917"/>
      <point x="850" y="1016"/>
      <point x="690" y="1040" type="curve"/>
      <point x="690" y="1229" type="line"/>
      <point x="506" y="1229" type="line"/>
      <point x="506" y="1040" type="line"/>
      <point x="267" y="992"/>
      <point x="118" y="789"/>
      <point x="118" y="510" type="curve" smooth="yes"/>
      <point x="118" y="227"/>
      <point x="264" y="28"/>
      <point x="506" y="-20" type="curve"/>
      <point x="506" y="-210" type="line"/>
    </contour>
  </outline>
</glyph>
<glyph name="sterling" format="2">
  <advance width="1229"/>
  <unicode hex="00A3"/>
  <outline>
    <contour>
      <point x="140" y="0" type="line"/>
      <point x="1206" y="0" type="line"/>
      <point x="1206" y="210" type="line"/>
      <point x="472" y="210" type="line"/>
      <point x="549" y="256"/>
      <point x="598" y="367"/>
      <point x="598" y="490" type="curve" smooth="yes"/>
      <point x="598" y="525"/>
      <point x="594" y="568"/>
      <point x="585" y="618" type="curve"/>
      <point x="1025" y="618" type="line"/>
      <point x="1025" y="828" type="line"/>
      <point x="537" y="828" type="line"/>
      <point x="509" y="891"/>
      <point x="493" y="992"/>
      <point x="493" y="1057" type="curve" smooth="yes"/>
      <point x="493" y="1200"/>
      <point x="575" y="1271"/>
      <point x="724" y="1271" type="curve" smooth="yes"/>
      <point x="822" y="1271"/>
      <point x="902" y="1204"/>
      <point x="944" y="1091" type="curve"/>
      <point x="1139" y="1162" type="line"/>
      <point x="1078" y="1339"/>
      <point x="926" y="1481"/>
      <point x="724" y="1481" type="curve" smooth="yes"/>
      <point x="465" y="1481"/>
      <point x="283" y="1318"/>
      <point x="283" y="1061" type="curve" smooth="yes"/>
      <point x="283" y="989"/>
      <point x="295" y="895"/>
      <point x="321" y="828" type="curve"/>
      <point x="144" y="828" type="line"/>
      <point x="144" y="618" type="line"/>
      <point x="371" y="618" type="line"/>
      <point x="385" y="563"/>
      <point x="392" y="519"/>
      <point x="392" y="486" type="curve" smooth="yes"/>
      <point x="392" y="346"/>
      <point x="291" y="238"/>
      <point x="140" y="212" type="curve"/>
    </contour>
  </outline>
</glyph>
<glyph name="currency" format="2">
  <advance width="1229"/>
  <unicode hex="00A4"/>
  <outline>
    <contour>
      <point x="129" y="644" type="qcurve" smooth="yes"/>
      <point x="129" y="575"/>
      <point x="169" y="439"/>
      <point x="212" y="378" type="qcurve"/>
      <point x="102" y="270" type="line"/>
      <point x="234" y="132" type="line"/>
      <point x="344" y="244" type="line"/>
      <point x="410" y="202"/>
      <point x="544" y="160"/>
      <point x="613" y="160" type="qcurve" smooth="yes"/>
      <point x="683" y="160"/>
      <point x="817" y="201"/>
      <point x="882" y="244" type="qcurve"/>
      <point x="993" y="132" type="line"/>
      <point x="1126" y="270" type="line"/>
      <point x="1017" y="376" type="line"/>
      <point x="1059" y="437"/>
      <point x="1101" y="571"/>
      <point x="1101" y="646" type="qcurve" smooth="yes"/>
      <point x="1101" y="721"/>
      <point x="1059" y="856"/>
      <point x="1017" y="916" type="qcurve"/>
      <point x="1126" y="1023" type="line"/>
      <point x="991" y="1155" type="line"/>
      <point x="882" y="1049" type="line"/>
      <point x="822" y="1090"/>
      <point x="692" y="1130"/>
      <point x="618" y="1130" type="qcurve" smooth="yes"/>
      <point x="542" y="1130"/>
      <point x="406" y="1089"/>
      <point x="346" y="1047" type="qcurve"/>
      <point x="236" y="1157" type="line"/>
      <point x="104" y="1019" type="line"/>
      <point x="212" y="914" type="line"/>
      <point x="170" y="853"/>
      <point x="129" y="719"/>
    </contour>
    <contour>
      <point x="316" y="642" type="qcurve" smooth="yes"/>
      <point x="316" y="704"/>
      <point x="362" y="813"/>
      <point x="443" y="894"/>
      <point x="551" y="942"/>
      <point x="614" y="942" type="qcurve" smooth="yes"/>
      <point x="676" y="942"/>
      <point x="784" y="897"/>
      <point x="864" y="817"/>
      <point x="911" y="710"/>
      <point x="911" y="648" type="qcurve" smooth="yes"/>
      <point x="911" y="587"/>
      <point x="865" y="477"/>
      <point x="784" y="394"/>
      <point x="675" y="346"/>
      <point x="613" y="346" type="qcurve" smooth="yes"/>
      <point x="552" y="346"/>
      <point x="444" y="393"/>
      <point x="363" y="473"/>
      <point x="316" y="581"/>
    </contour>
  </outline>
</glyph>
<glyph name="yen" format="2">
  <advance width="1355"/>
  <unicode hex="00A5"/>
  <outline>
    <contour>
      <point x="784" y="0" type="line"/>
      <point x="784" y="200" type="line"/>
      <point x="1091" y="200" type="line"/>
      <point x="1091" y="388" type="line"/>
      <point x="784" y="388" type="line"/>
      <point x="784" y="508" type="line"/>
      <point x="1091" y="508" type="line"/>
      <point x="1091" y="696" type="line"/>
      <point x="872" y="696" type="line"/>
      <point x="1357" y="1447" type="line"/>
      <point x="1101" y="1447" type="line"/>
      <point x="678" y="761" type="line"/>
      <point x="254" y="1447" type="line"/>
      <point x="-2" y="1447" type="line"/>
      <point x="482" y="698" type="line"/>
      <point x="264" y="698" type="line"/>
      <point x="264" y="508" type="line"/>
      <point x="570" y="508" type="line"/>
      <point x="570" y="388" type="line"/>
      <point x="264" y="388" type="line"/>
      <point x="264" y="200" type="line"/>
      <point x="570" y="200" type="line"/>
      <point x="570" y="0" type="line"/>
    </contour>
  </outline>
</glyph>
<glyph name="brokenbar" format="2">
  <advance width="658"/>
  <unicode hex="00A6"/>
  <outline>
    <contour>
      <point x="432.128" y="748.544" type="line"/>
      <point x="432.128" y="1510.4" type="line"/>
      <point x="226.304" y="1510.4" type="line"/>
      <point x="226.304" y="748.544" type="line"/>
    </contour>
    <contour>
      <point x="432.128" y="-314.368" type="line"/>
      <point x="432.128" y="430.08" type="line"/>
      <point x="226.304" y="430.08" type="line"/>
      <point x="226.304" y="-314.368" type="line"/>
    </contour>
  </outline>
</glyph>
<glyph name="section" format="2">
  <advance width="1139"/>
  <unicode hex="00A7"/>
  <outline>
    <contour>
      <point x="149.504" y="228.352" type="line"/>
      <point x="211.968" y="79.872"/>
      <point x="386.048" y="-18.432"/>
      <point x="583.68" y="-18.432" type="curve" smooth="yes"/>
      <point x="830.464" y="-18.432"/>
      <point x="996.352" y="108.544"/>
      <point x="996.352" y="297.984" type="curve" smooth="yes"/>
      <point x="996.352" y="390.144"/>
      <point x="945.152" y="468.992"/>
      <point x="875.52" y="521.216" type="curve"/>
      <point x="875.52" y="456.704" type="line"/>
      <point x="946.176" y="522.24"/>
      <point x="996.352" y="613.376"/>
      <point x="996.352" y="704.512" type="curve" smooth="yes"/>
      <point x="996.352" y="868.352"/>
      <point x="894.976" y="955.392"/>
      <point x="635.904" y="1011.71" type="curve" smooth="yes"/>
      <point x="603.136" y="1018.88" type="line" smooth="yes"/>
      <point x="430.08" y="1056.77"/>
      <point x="404.48" y="1101.82"/>
      <point x="404.48" y="1165.31" type="curve" smooth="yes"/>
      <point x="404.48" y="1239.04"/>
      <point x="460.8" y="1273.86"/>
      <point x="566.272" y="1273.86" type="curve" smooth="yes"/>
      <point x="656.384" y="1273.86"/>
      <point x="741.376" y="1230.85"/>
      <point x="780.288" y="1167.36" type="curve"/>
      <point x="935.936" y="1257.47" type="line"/>
      <point x="862.208" y="1391.62"/>
      <point x="731.136" y="1468.42"/>
      <point x="540.672" y="1468.42" type="curve" smooth="yes"/>
      <point x="322.56" y="1468.42"/>
      <point x="176.128" y="1352.7"/>
      <point x="176.128" y="1181.7" type="curve" smooth="yes"/>
      <point x="176.128" y="1050.62"/>
      <point x="219.136" y="986.112"/>
      <point x="310.272" y="917.504" type="curve"/>
      <point x="310.272" y="993.28" type="line"/>
      <point x="208.896" y="899.072"/>
      <point x="174.08" y="835.584"/>
      <point x="174.08" y="744.448" type="curve" smooth="yes"/>
      <point x="174.08" y="587.776"/>
      <point x="276.48" y="504.832"/>
      <point x="544.768" y="444.416" type="curve" smooth="yes"/>
      <point x="576.512" y="437.248" type="line" smooth="yes"/>
      <point x="716.8" y="405.504"/>
      <point x="786.432" y="359.424"/>
      <point x="786.432" y="297.984" type="curve" smooth="yes"/>
      <point x="786.432" y="227.328"/>
      <point x="710.656" y="176.128"/>
      <point x="591.872" y="176.128" type="curve" smooth="yes"/>
      <point x="464.896" y="176.128"/>
      <point x="358.4" y="237.568"/>
      <point x="323.584" y="328.704" type="curve"/>
    </contour>
    <contour>
      <point x="739.328" y="565.248" type="line"/>
      <point x="710.656" y="578.56"/>
      <point x="664.576" y="591.872"/>
      <point x="636.928" y="599.04" type="curve" smooth="yes"/>
      <point x="605.184" y="607.232" type="line" smooth="yes"/>
      <point x="411.648" y="657.408"/>
      <point x="384" y="675.84"/>
      <point x="384" y="752.64" type="curve" smooth="yes"/>
      <point x="384" y="816.128"/>
      <point x="433.152" y="873.472"/>
      <point x="504.832" y="891.904" type="curve"/>
      <point x="431.104" y="891.904" type="line"/>
      <point x="478.208" y="877.568"/>
      <point x="510.976" y="869.376"/>
      <point x="543.744" y="861.184" type="curve" smooth="yes"/>
      <point x="577.536" y="851.968" type="line" smooth="yes"/>
      <point x="754.688" y="803.84"/>
      <point x="786.432" y="780.288"/>
      <point x="786.432" y="698.368" type="curve" smooth="yes"/>
      <point x="786.432" y="626.688"/>
      <point x="751.616" y="585.728"/>
      <point x="683.008" y="576.512" type="curve"/>
    </contour>
  </outline>
  <guideline angle="249.578" x="761.856" y="933.888"/>
  <guideline angle="249.578" x="727.04" y="933.888"/>
  <guideline angle="30.0559" x="780.288" y="592.896"/>
  <guideline angle="0" x="0" y="224.256"/>
  <guideline angle="30.0559" x="780.288" y="1167.36"/>
  <guideline angle="0" x="0" y="1257.47"/>
  <guideline angle="90" x="310.272" y="0"/>
</glyph>
<glyph name="dieresis" format="2">
  <advance width="662"/>
  <unicode hex="00A8"/>
  <outline>
    <contour>
      <point x="60" y="1235" type="line"/>
      <point x="270" y="1235" type="line"/>
      <point x="270" y="1465" type="line"/>
      <point x="60" y="1465" type="line"/>
    </contour>
    <contour>
      <point x="392" y="1235" type="line"/>
      <point x="602" y="1235" type="line"/>
      <point x="602" y="1465" type="line"/>
      <point x="392" y="1465" type="line"/>
    </contour>
  </outline>
</glyph>
<glyph name="copyright" format="2">
  <advance width="1781"/>
  <unicode hex="00A9"/>
  <outline>
    <contour>
      <point x="891" y="-50" type="qcurve" smooth="yes"/>
      <point x="998" y="-50"/>
      <point x="1201" y="3"/>
      <point x="1380" y="101"/>
      <point x="1530" y="240"/>
      <point x="1637" y="412"/>
      <point x="1697" y="613"/>
      <point x="1697" y="724" type="qcurve" smooth="yes"/>
      <point x="1697" y="834"/>
      <point x="1638" y="1033"/>
      <point x="1531" y="1205"/>
      <point x="1382" y="1345"/>
      <point x="1203" y="1443"/>
      <point x="1000" y="1497"/>
      <point x="891" y="1497" type="qcurve" smooth="yes"/>
      <point x="784" y="1497"/>
      <point x="581" y="1444"/>
      <point x="401" y="1346"/>
      <point x="252" y="1207"/>
      <point x="144" y="1035"/>
      <point x="84" y="835"/>
      <point x="84" y="724" type="qcurve" smooth="yes"/>
      <point x="84" y="614"/>
      <point x="143" y="414"/>
      <point x="250" y="242"/>
      <point x="399" y="103"/>
      <point x="578" y="4"/>
      <point x="782" y="-50"/>
    </contour>
    <contour>
      <point x="891" y="142" type="qcurve" smooth="yes"/>
      <point x="812" y="142"/>
      <point x="659" y="183"/>
      <point x="523" y="257"/>
      <point x="409" y="362"/>
      <point x="326" y="492"/>
      <point x="279" y="642"/>
      <point x="279" y="724" type="qcurve" smooth="yes"/>
      <point x="279" y="806"/>
      <point x="325" y="956"/>
      <point x="408" y="1085"/>
      <point x="522" y="1190"/>
      <point x="658" y="1264"/>
      <point x="811" y="1305"/>
      <point x="891" y="1305" type="qcurve" smooth="yes"/>
      <point x="971" y="1305"/>
      <point x="1123" y="1265"/>
      <point x="1259" y="1191"/>
      <point x="1374" y="1086"/>
      <point x="1457" y="957"/>
      <point x="1503" y="807"/>
      <point x="1503" y="724" type="qcurve" smooth="yes"/>
      <point x="1503" y="601"/>
      <point x="1402" y="388"/>
      <point x="1233" y="232"/>
      <point x="1012" y="142"/>
    </contour>
    <contour>
      <point x="1271" y="522" type="qcurve"/>
      <point x="1091" y="598" type="line"/>
      <point x="1076" y="566"/>
      <point x="1042" y="518"/>
      <point x="998" y="485"/>
      <point x="943" y="468"/>
      <point x="906" y="468" type="qcurve" smooth="yes"/>
      <point x="851" y="468"/>
      <point x="773" y="507"/>
      <point x="723" y="575"/>
      <point x="700" y="668"/>
      <point x="700" y="722" type="qcurve" smooth="yes"/>
      <point x="700" y="776"/>
      <point x="724" y="869"/>
      <point x="775" y="938"/>
      <point x="853" y="977"/>
      <point x="908" y="977" type="qcurve" smooth="yes"/>
      <point x="941" y="977"/>
      <point x="995" y="963"/>
      <point x="1039" y="932"/>
      <point x="1076" y="883"/>
      <point x="1093" y="847" type="qcurve"/>
      <point x="1271" y="923" type="line"/>
      <point x="1241" y="988"/>
      <point x="1166" y="1082"/>
      <point x="1076" y="1143"/>
      <point x="970" y="1172"/>
      <point x="908" y="1172" type="qcurve" smooth="yes"/>
      <point x="806" y="1172"/>
      <point x="657" y="1097"/>
      <point x="558" y="972"/>
      <point x="510" y="809"/>
      <point x="510" y="722" type="qcurve" smooth="yes"/>
      <point x="510" y="628"/>
      <point x="561" y="464"/>
      <point x="662" y="341"/>
      <point x="811" y="270"/>
      <point x="908" y="270" type="qcurve" smooth="yes"/>
      <point x="969" y="270"/>
      <point x="1075" y="299"/>
      <point x="1165" y="360"/>
      <point x="1240" y="456"/>
    </contour>
  </outline>
</glyph>
<glyph name="ordfeminine" format="2">
  <advance width="733"/>
  <unicode hex="00AA"/>
  <anchor x="656" y="742" name="ogonek"/>
  <anchor x="357" y="1540" name="top"/>
  <anchor x="357" y="1686" name="center"/>
  <anchor x="357" y="641" name="bottom"/>
  <outline>
    <contour>
      <point x="283" y="729" type="curve" smooth="yes"/>
      <point x="379" y="729"/>
      <point x="448" y="758"/>
      <point x="503" y="839" type="curve" name=".iv01"/>
      <point x="515" y="742" type="line"/>
      <point x="676" y="742" type="line"/>
      <point x="664" y="787"/>
      <point x="656" y="854"/>
      <point x="656" y="897" type="curve" smooth="yes"/>
      <point x="656" y="1161" type="line" smooth="yes" name=".sh01"/>
      <point x="656" y="1355"/>
      <point x="542" y="1468"/>
      <point x="354" y="1468" type="curve" smooth="yes" name=".dv04"/>
      <point x="228" y="1468"/>
      <point x="134" y="1416"/>
      <point x="64" y="1320" type="curve"/>
      <point x="196" y="1223" type="line" name=".sh04"/>
      <point x="230" y="1283"/>
      <point x="285" y="1319"/>
      <point x="357" y="1319" type="curve" smooth="yes" name=".dv03"/>
      <point x="448" y="1319"/>
      <point x="491" y="1261"/>
      <point x="491" y="1155" type="curve" name=".dv06"/>
      <point x="310" y="1155" type="line" smooth="yes"/>
      <point x="175" y="1155"/>
      <point x="29" y="1114"/>
      <point x="29" y="952" type="curve" smooth="yes" name=".sh02"/>
      <point x="29" y="809"/>
      <point x="153" y="729"/>
    </contour>
    <contour>
      <point x="314" y="873" type="curve" smooth="yes" name=".dv02"/>
      <point x="250" y="873"/>
      <point x="204" y="903"/>
      <point x="204" y="949" type="curve" smooth="yes" name=".sh03"/>
      <point x="204" y="1018"/>
      <point x="284" y="1031"/>
      <point x="337" y="1031" type="curve" smooth="yes" name=".sv01"/>
      <point x="491" y="1031" type="line" name=".dv05"/>
      <point x="491" y="942"/>
      <point x="397" y="873"/>
    </contour>
  </outline>
</glyph>
<glyph name="guillemotleft" format="2">
  <advance width="977"/>
  <unicode hex="00AB"/>
  <outline>
    <contour>
      <point x="454.656" y="159.744" type="line"/>
      <point x="454.656" y="375.808" type="line"/>
      <point x="270.336" y="522.24" type="line"/>
      <point x="454.656" y="670.72" type="line"/>
      <point x="454.656" y="886.784" type="line"/>
      <point x="16.384" y="522.24" type="line"/>
    </contour>
    <contour>
      <point x="826.368" y="159.744" type="line"/>
      <point x="826.368" y="375.808" type="line"/>
      <point x="642.048" y="522.24" type="line"/>
      <point x="826.368" y="670.72" type="line"/>
      <point x="826.368" y="886.784" type="line"/>
      <point x="388.096" y="522.24" type="line"/>
    </contour>
  </outline>
</glyph>
<glyph name="logicalnot" format="2">
  <advance width="1331"/>
  <unicode hex="00AC"/>
  <outline>
    <contour>
      <point x="1109" y="298" type="line"/>
      <point x="1109" y="816" type="line"/>
      <point x="138" y="816" type="line"/>
      <point x="138" y="594" type="line"/>
      <point x="870" y="594" type="line"/>
      <point x="870" y="298" type="line"/>
    </contour>
  </outline>
</glyph>
<glyph name="uni00AD" format="2">
  <advance width="1033"/>
  <unicode hex="00AD"/>
  <outline>
    <contour>
      <point x="889" y="520" type="line"/>
      <point x="889" y="709" type="line"/>
      <point x="144" y="709" type="line"/>
      <point x="144" y="520" type="line"/>
    </contour>
  </outline>
</glyph>
<glyph name="registered" format="2">
  <advance width="1781"/>
  <unicode hex="00AE"/>
  <outline>
    <contour>
      <point x="891" y="-48" type="curve" smooth="yes"/>
      <point x="962" y="-48"/>
      <point x="1032" y="-39"/>
      <point x="1100" y="-22" type="curve" smooth="yes"/>
      <point x="1235" y="14"/>
      <point x="1355" y="80"/>
      <point x="1455" y="173" type="curve" smooth="yes"/>
      <point x="1505" y="219"/>
      <point x="1548" y="271"/>
      <point x="1584" y="328" type="curve" smooth="yes"/>
      <point x="1655" y="443"/>
      <point x="1697" y="578"/>
      <point x="1697" y="726" type="curve" smooth="yes"/>
      <point x="1697" y="799"/>
      <point x="1687" y="869"/>
      <point x="1668" y="936" type="curve" smooth="yes"/>
      <point x="1628" y="1068"/>
      <point x="1556" y="1184"/>
      <point x="1457" y="1277" type="curve" smooth="yes"/>
      <point x="1407" y="1324"/>
      <point x="1352" y="1363"/>
      <point x="1293" y="1396" type="curve" smooth="yes"/>
      <point x="1173" y="1461"/>
      <point x="1036" y="1499"/>
      <point x="891" y="1499" type="curve" smooth="yes"/>
      <point x="820" y="1499"/>
      <point x="750" y="1490"/>
      <point x="683" y="1473" type="curve" smooth="yes"/>
      <point x="547" y="1437"/>
      <point x="426" y="1371"/>
      <point x="327" y="1279" type="curve" smooth="yes"/>
      <point x="277" y="1232"/>
      <point x="234" y="1180"/>
      <point x="198" y="1123" type="curve" smooth="yes"/>
      <point x="126" y="1008"/>
      <point x="84" y="874"/>
      <point x="84" y="726" type="curve" smooth="yes"/>
      <point x="84" y="653"/>
      <point x="94" y="583"/>
      <point x="114" y="516" type="curve" smooth="yes"/>
      <point x="153" y="383"/>
      <point x="225" y="267"/>
      <point x="325" y="175" type="curve" smooth="yes"/>
      <point x="374" y="128"/>
      <point x="429" y="89"/>
      <point x="489" y="56" type="curve" smooth="yes"/>
      <point x="608" y="-11"/>
      <point x="746" y="-48"/>
    </contour>
    <contour>
      <point x="891" y="136" type="curve" smooth="yes"/>
      <point x="810" y="136"/>
      <point x="733" y="151"/>
      <point x="658" y="181" type="curve" smooth="yes"/>
      <point x="583" y="211"/>
      <point x="516" y="253"/>
      <point x="459" y="306" type="curve" smooth="yes"/>
      <point x="401" y="359"/>
      <point x="355" y="421"/>
      <point x="320" y="493" type="curve" smooth="yes"/>
      <point x="285" y="564"/>
      <point x="268" y="642"/>
      <point x="268" y="726" type="curve" smooth="yes"/>
      <point x="268" y="893"/>
      <point x="342" y="1040"/>
      <point x="458" y="1146" type="curve" smooth="yes"/>
      <point x="515" y="1199"/>
      <point x="582" y="1240"/>
      <point x="657" y="1270" type="curve" smooth="yes"/>
      <point x="732" y="1300"/>
      <point x="810" y="1315"/>
      <point x="891" y="1315" type="curve" smooth="yes"/>
      <point x="1054" y="1315"/>
      <point x="1208" y="1252"/>
      <point x="1323" y="1147" type="curve" smooth="yes"/>
      <point x="1438" y="1042"/>
      <point x="1512" y="894"/>
      <point x="1512" y="726" type="curve" smooth="yes"/>
      <point x="1512" y="643"/>
      <point x="1495" y="565"/>
      <point x="1461" y="494" type="curve" smooth="yes"/>
      <point x="1427" y="422"/>
      <point x="1381" y="360"/>
      <point x="1324" y="307" type="curve" smooth="yes"/>
      <point x="1209" y="201"/>
      <point x="1055" y="136"/>
    </contour>
    <contour>
      <point x="616" y="296" type="line"/>
      <point x="805" y="296" type="line"/>
      <point x="805" y="618" type="line"/>
      <point x="904" y="618" type="line"/>
      <point x="1080" y="296" type="line"/>
      <point x="1296" y="296" type="line"/>
      <point x="1093" y="646" type="line"/>
      <point x="1176" y="682"/>
      <point x="1237" y="758"/>
      <point x="1237" y="881" type="curve" smooth="yes"/>
      <point x="1237" y="972"/>
      <point x="1207" y="1036"/>
      <point x="1156" y="1079" type="curve" smooth="yes"/>
      <point x="1104" y="1122"/>
      <point x="1031" y="1141"/>
      <point x="946" y="1141" type="curve" smooth="yes"/>
      <point x="616" y="1141" type="line"/>
    </contour>
    <contour>
      <point x="946" y="797" type="curve" smooth="yes"/>
      <point x="795" y="797" type="line"/>
      <point x="795" y="963" type="line"/>
      <point x="946" y="963" type="line" smooth="yes"/>
      <point x="989" y="963"/>
      <point x="1017" y="959"/>
      <point x="1035" y="947" type="curve"/>
      <point x="1053" y="934"/>
      <point x="1059" y="913"/>
      <point x="1059" y="881" type="curve" smooth="yes"/>
      <point x="1059" y="850"/>
      <point x="1052" y="829"/>
      <point x="1034" y="816" type="curve" smooth="yes"/>
      <point x="1016" y="803"/>
      <point x="987" y="797"/>
    </contour>
  </outline>
</glyph>
<glyph name="macron" format="2">
  <advance width="652"/>
  <unicode hex="00AF"/>
  <outline>
    <contour>
      <point x="40" y="1263" type="line"/>
      <point x="612" y="1263" type="line"/>
      <point x="612" y="1448" type="line"/>
      <point x="40" y="1448" type="line"/>
    </contour>
  </outline>
</glyph>
<glyph name="degree" format="2">
  <advance width="898"/>
  <unicode hex="00B0"/>
  <outline>
    <contour>
      <point x="449" y="868" type="curve" smooth="yes"/>
      <point x="533" y="868"/>
      <point x="609" y="902"/>
      <point x="663" y="956" type="curve" smooth="yes"/>
      <point x="717" y="1010"/>
      <point x="749" y="1085"/>
      <point x="749" y="1168" type="curve" smooth="yes"/>
      <point x="749" y="1252"/>
      <point x="716" y="1328"/>
      <point x="662" y="1382" type="curve" smooth="yes"/>
      <point x="608" y="1436"/>
      <point x="532" y="1468"/>
      <point x="449" y="1468" type="curve" smooth="yes"/>
      <point x="366" y="1468"/>
      <point x="291" y="1435"/>
      <point x="236" y="1380" type="curve" smooth="yes"/>
      <point x="181" y="1325"/>
      <point x="148" y="1251"/>
      <point x="148" y="1168" type="curve" smooth="yes"/>
      <point x="148" y="1085"/>
      <point x="182" y="1010"/>
      <point x="237" y="956" type="curve" smooth="yes"/>
      <point x="292" y="902"/>
      <point x="368" y="868"/>
    </contour>
    <contour>
      <point x="449" y="1036" type="curve" smooth="yes"/>
      <point x="413" y="1036"/>
      <point x="379" y="1051"/>
      <point x="355" y="1075" type="curve" smooth="yes"/>
      <point x="331" y="1099"/>
      <point x="316" y="1132"/>
      <point x="316" y="1168" type="curve" smooth="yes"/>
      <point x="316" y="1204"/>
      <point x="331" y="1237"/>
      <point x="355" y="1261" type="curve" smooth="yes"/>
      <point x="379" y="1285"/>
      <point x="413" y="1300"/>
      <point x="449" y="1300" type="curve" smooth="yes"/>
      <point x="486" y="1300"/>
      <point x="520" y="1286"/>
      <point x="544" y="1263" type="curve" smooth="yes"/>
      <point x="568" y="1239"/>
      <point x="583" y="1206"/>
      <point x="583" y="1169" type="curve" smooth="yes"/>
      <point x="583" y="1130"/>
      <point x="568" y="1098"/>
      <point x="544" y="1074" type="curve" smooth="yes"/>
      <point x="520" y="1050"/>
      <point x="486" y="1036"/>
    </contour>
  </outline>
</glyph>
<glyph name="plusminus" format="2">
  <advance width="1363"/>
  <unicode hex="00B1"/>
  <outline>
    <contour>
      <point x="776.192" y="108.544" type="line"/>
      <point x="776.192" y="544.768" type="line"/>
      <point x="1243.14" y="544.768" type="line"/>
      <point x="1243.14" y="734.208" type="line"/>
      <point x="776.192" y="734.208" type="line"/>
      <point x="776.192" y="1170.43" type="line"/>
      <point x="586.752" y="1170.43" type="line"/>
      <point x="586.752" y="734.208" type="line"/>
      <point x="119.808" y="734.208" type="line"/>
      <point x="119.808" y="544.768" type="line"/>
      <point x="586.752" y="544.768" type="line"/>
      <point x="586.752" y="108.544" type="line"/>
    </contour>
    <contour>
      <point x="1241.09" y="-188.416" type="line"/>
      <point x="1241.09" y="0" type="line"/>
      <point x="121.856" y="0" type="line"/>
      <point x="121.856" y="-188.416" type="line"/>
    </contour>
  </outline>
</glyph>
<glyph name="twosuperior" format="2">
  <advance width="855"/>
  <unicode hex="00B2"/>
  <outline>
    <contour>
      <point x="31.744" y="931.664" type="line"/>
      <point x="806.912" y="931.664" type="line"/>
      <point x="806.912" y="1107.79" type="line"/>
      <point x="337.92" y="1107.79" type="line"/>
      <point x="508.928" y="1203.02"/>
      <point x="759.808" y="1417.28"/>
      <point x="759.808" y="1621.06" type="curve" smooth="yes"/>
      <point x="759.808" y="1772.61"/>
      <point x="627.712" y="1899.58"/>
      <point x="428.032" y="1899.58" type="curve" smooth="yes"/>
      <point x="223.232" y="1899.58"/>
      <point x="69.632" y="1747.01"/>
      <point x="69.632" y="1539.14" type="curve"/>
      <point x="260.096" y="1528.9" type="line"/>
      <point x="264.192" y="1635.39"/>
      <point x="311.296" y="1724.48"/>
      <point x="428.032" y="1724.48" type="curve" smooth="yes"/>
      <point x="522.24" y="1724.48"/>
      <point x="564.224" y="1665.09"/>
      <point x="564.224" y="1588.29" type="curve" smooth="yes"/>
      <point x="564.224" y="1423.42"/>
      <point x="177.152" y="1101.65"/>
      <point x="31.744" y="1065.81" type="curve"/>
    </contour>
  </outline>
</glyph>
<glyph name="threesuperior" format="2">
  <advance width="889"/>
  <unicode hex="00B3"/>
  <outline>
    <contour>
      <point x="434.176" y="473.088" type="curve" smooth="yes"/>
      <point x="628.736" y="473.088"/>
      <point x="829.44" y="564.224"/>
      <point x="829.44" y="781.312" type="curve" smooth="yes"/>
      <point x="829.44" y="889.856"/>
      <point x="776.192" y="970.752"/>
      <point x="675.84" y="1022.98" type="curve"/>
      <point x="739.328" y="1075.2"/>
      <point x="771.072" y="1139.71"/>
      <point x="771.072" y="1218.56" type="curve" smooth="yes"/>
      <point x="771.072" y="1400.83"/>
      <point x="587.776" y="1486.85"/>
      <point x="429.056" y="1486.85" type="curve" smooth="yes"/>
      <point x="246.784" y="1486.85"/>
      <point x="88.064" y="1381.38"/>
      <point x="88.064" y="1189.89" type="curve"/>
      <point x="271.36" y="1179.65" type="line"/>
      <point x="274.432" y="1260.54"/>
      <point x="342.016" y="1304.58"/>
      <point x="433.152" y="1304.58" type="curve" smooth="yes"/>
      <point x="504.832" y="1304.58"/>
      <point x="583.68" y="1276.93"/>
      <point x="583.68" y="1192.96" type="curve" smooth="yes"/>
      <point x="583.68" y="1135.62"/>
      <point x="546.816" y="1091.58"/>
      <point x="460.8" y="1091.58" type="curve" smooth="yes"/>
      <point x="339.968" y="1091.58" type="line"/>
      <point x="339.968" y="926.72" type="line"/>
      <point x="461.824" y="926.72" type="line" smooth="yes"/>
      <point x="575.488" y="926.72"/>
      <point x="643.072" y="876.544"/>
      <point x="643.072" y="794.624" type="curve" smooth="yes"/>
      <point x="643.072" y="700.416"/>
      <point x="546.816" y="653.312"/>
      <point x="435.2" y="653.312" type="curve" smooth="yes"/>
      <point x="337.92" y="653.312"/>
      <point x="221.184" y="696.32"/>
      <point x="221.184" y="811.008" type="curve"/>
      <point x="34.816" y="801.792" type="line"/>
      <point x="34.816" y="572.416"/>
      <point x="232.448" y="473.088"/>
    </contour>
  </outline>
</glyph>
<glyph name="acute" format="2">
  <advance width="546"/>
  <unicode hex="00B4"/>
  <outline>
    <contour>
      <point x="217.064" y="1191.94" type="line"/>
      <point x="532.456" y="1508.35" type="line"/>
      <point x="266.216" y="1508.35" type="line"/>
      <point x="34.792" y="1191.94" type="line"/>
    </contour>
  </outline>
  <guideline angle="90" x="34.792" y="0"/>
  <guideline angle="90" x="519" y="0"/>
</glyph>
<glyph name="micro" format="2">
  <advance width="1192"/>
  <unicode hex="00B5"/>
  <outline>
    <contour>
      <point x="520" y="-24" type="qcurve" smooth="yes"/>
      <point x="565" y="-24"/>
      <point x="649" y="-5"/>
      <point x="724" y="28"/>
      <point x="790" y="73"/>
      <point x="817" y="100" type="qcurve"/>
      <point x="817" y="0" type="line"/>
      <point x="1049" y="0" type="line"/>
      <point x="1049" y="1064" type="line"/>
      <point x="817" y="1064" type="line"/>
      <point x="817" y="466" type="line" smooth="yes"/>
      <point x="817" y="409"/>
      <point x="771" y="309"/>
      <point x="694" y="236"/>
      <point x="593" y="193"/>
      <point x="537" y="193" type="qcurve" smooth="yes"/>
      <point x="482" y="193"/>
      <point x="411" y="234"/>
      <point x="371" y="303"/>
      <point x="356" y="392"/>
      <point x="356" y="439" type="qcurve" smooth="yes"/>
      <point x="356" y="1064" type="line"/>
      <point x="123" y="1064" type="line"/>
      <point x="123" y="-272" type="line"/>
      <point x="333" y="-272" type="line"/>
      <point x="354" y="39" type="line"/>
      <point x="325" y="21" type="line"/>
      <point x="346" y="10"/>
      <point x="392" y="-7"/>
      <point x="440" y="-18"/>
      <point x="492" y="-24"/>
    </contour>
  </outline>
</glyph>
<glyph name="uni00B5" format="2">
  <advance width="1191"/>
  <unicode hex="00B5"/>
  <outline>
    <contour>
      <point x="332.392" y="-272.384" type="line"/>
      <point x="352.838" y="38.8459" type="line"/>
      <point x="324.433" y="20.7895" type="line"/>
      <point x="381.488" y="-9.33018"/>
      <point x="445.147" y="-23.552"/>
      <point x="518.76" y="-23.552" type="curve" smooth="yes"/>
      <point x="638.568" y="-23.552"/>
      <point x="743.016" y="29.696"/>
      <point x="815.72" y="100.352" type="curve"/>
      <point x="815.72" y="0" type="line"/>
      <point x="1048.17" y="0" type="line"/>
      <point x="1048.17" y="1063.94" type="line"/>
      <point x="815.72" y="1063.94" type="line"/>
      <point x="815.72" y="465.92" type="line" smooth="yes"/>
      <point x="815.72" y="314.368"/>
      <point x="684.648" y="192.512"/>
      <point x="536.168" y="192.512" type="curve" smooth="yes"/>
      <point x="387.688" y="192.512"/>
      <point x="354.92" y="313.344"/>
      <point x="354.92" y="439.296" type="curve" smooth="yes"/>
      <point x="354.92" y="1063.94" type="line"/>
      <point x="122.472" y="1063.94" type="line"/>
      <point x="122.472" y="-272.384" type="line"/>
    </contour>
  </outline>
</glyph>
<glyph name="paragraph" format="2">
  <advance width="1292"/>
  <unicode hex="00B6"/>
  <outline>
    <contour>
      <point x="705" y="-252" type="line"/>
      <point x="705" y="1448" type="line"/>
      <point x="530" y="1448" type="line" smooth="yes"/>
      <point x="441" y="1448"/>
      <point x="274" y="1394"/>
      <point x="145" y="1291"/>
      <point x="68" y="1140"/>
      <point x="68" y="1042" type="qcurve" smooth="yes"/>
      <point x="68" y="947"/>
      <point x="145" y="797"/>
      <point x="273" y="693"/>
      <point x="440" y="638"/>
      <point x="530" y="638" type="qcurve"/>
      <point x="530" y="-252" type="line"/>
    </contour>
    <contour>
      <point x="1065" y="-252" type="line"/>
      <point x="1065" y="1448" type="line"/>
      <point x="889" y="1448" type="line"/>
      <point x="889" y="-252" type="line"/>
    </contour>
  </outline>
</glyph>
<glyph name="periodcentered" format="2">
  <advance width="631"/>
  <unicode hex="00B7"/>
  <anchor x="316" y="819" name="_center"/>
  <outline>
    <contour>
      <point x="316.368" y="666.624" type="curve" smooth="yes"/>
      <point x="401.083" y="666.624"/>
      <point x="467.968" y="733.95"/>
      <point x="467.968" y="819.224" type="curve" smooth="yes"/>
      <point x="467.968" y="904.708"/>
      <point x="401.892" y="970.752"/>
      <point x="316.368" y="970.752" type="curve" smooth="yes"/>
      <point x="230.838" y="970.752"/>
      <point x="163.84" y="904.193"/>
      <point x="163.84" y="819.224" type="curve" smooth="yes"/>
      <point x="163.84" y="734.468"/>
      <point x="231.652" y="666.624"/>
    </contour>
  </outline>
  <guideline angle="90" x="316" y="0"/>
  <guideline angle="0" x="0" y="819"/>
</glyph>
<glyph name="cedilla" format="2">
  <advance width="574"/>
  <unicode hex="00B8"/>
  <outline>
    <contour>
      <point x="232" y="0" type="line"/>
      <point x="136" y="-178" type="line"/>
      <point x="147" y="-200" type="line"/>
      <point x="178" y="-200" type="line" smooth="yes"/>
      <point x="247" y="-200"/>
      <point x="350" y="-227"/>
      <point x="350" y="-312" type="curve" smooth="yes"/>
      <point x="350" y="-358"/>
      <point x="316" y="-392"/>
      <point x="268" y="-392" type="curve" smooth="yes"/>
      <point x="235" y="-392"/>
      <point x="206" y="-370"/>
      <point x="195" y="-342" type="curve"/>
      <point x="60" y="-402" type="line"/>
      <point x="96" y="-481"/>
      <point x="175" y="-535"/>
      <point x="262" y="-535" type="curve" smooth="yes"/>
      <point x="394" y="-535"/>
      <point x="497" y="-438"/>
      <point x="497" y="-304" type="curve" smooth="yes"/>
      <point x="497" y="-200"/>
      <point x="428" y="-122"/>
      <point x="318" y="-103" type="curve"/>
      <point x="374" y="0" type="line"/>
    </contour>
  </outline>
</glyph>
<glyph name="onesuperior" format="2">
  <advance width="833"/>
  <unicode hex="00B9"/>
  <outline>
    <contour>
      <point x="571.392" y="497.664" type="line"/>
      <point x="571.392" y="1462.27" type="line"/>
      <point x="386.048" y="1462.27" type="line"/>
      <point x="386.048" y="1436.67" type="line" smooth="yes"/>
      <point x="386.048" y="1368.06"/>
      <point x="345.088" y="1336.32"/>
      <point x="282.624" y="1336.32" type="curve" smooth="yes"/>
      <point x="123.904" y="1336.32" type="line"/>
      <point x="123.904" y="1187.84" type="line"/>
      <point x="378.88" y="1187.84" type="line"/>
      <point x="378.88" y="497.664" type="line"/>
    </contour>
  </outline>
</glyph>
<glyph name="ordmasculine" format="2">
  <advance width="774"/>
  <unicode hex="00BA"/>
  <anchor x="388" y="1540" name="top"/>
  <anchor x="850" y="1455" name="horn"/>
  <anchor x="480" y="742" name="ogonek"/>
  <outline>
    <contour>
      <point x="388" y="729" type="curve" smooth="yes"/>
      <point x="608" y="729"/>
      <point x="742" y="874"/>
      <point x="742" y="1098" type="curve" smooth="yes" name=".sh01"/>
      <point x="742" y="1322"/>
      <point x="601" y="1468"/>
      <point x="388" y="1468" type="curve" smooth="yes" name=".dv04"/>
      <point x="170" y="1468"/>
      <point x="32" y="1322"/>
      <point x="32" y="1098" type="curve" smooth="yes" name=".sh02"/>
      <point x="32" y="875"/>
      <point x="173" y="729"/>
    </contour>
    <contour>
      <point x="388" y="876" type="curve" smooth="yes" name=".dv02"/>
      <point x="264" y="876"/>
      <point x="210" y="982"/>
      <point x="210" y="1098" type="curve" smooth="yes" name=".sh03"/>
      <point x="210" y="1216"/>
      <point x="271" y="1321"/>
      <point x="388" y="1321" type="curve" smooth="yes" name=".dv03"/>
      <point x="510" y="1321"/>
      <point x="564" y="1213"/>
      <point x="564" y="1098" type="curve" smooth="yes" name=".ah01"/>
      <point x="564" y="978"/>
      <point x="509" y="876"/>
    </contour>
  </outline>
</glyph>
<glyph name="guillemotright" format="2">
  <advance width="979"/>
  <unicode hex="00BB"/>
  <outline>
    <contour>
      <point x="148.48" y="159.744" type="line"/>
      <point x="586.752" y="522.24" type="line"/>
      <point x="148.48" y="886.784" type="line"/>
      <point x="148.48" y="670.72" type="line"/>
      <point x="333.824" y="522.24" type="line"/>
      <point x="148.48" y="375.808" type="line"/>
    </contour>
    <contour>
      <point x="520.192" y="159.744" type="line"/>
      <point x="958.464" y="522.24" type="line"/>
      <point x="520.192" y="886.784" type="line"/>
      <point x="520.192" y="670.72" type="line"/>
      <point x="704.512" y="522.24" type="line"/>
      <point x="520.192" y="375.808" type="line"/>
    </contour>
  </outline>
</glyph>
<glyph name="questiondown" format="2">
  <advance width="1017"/>
  <unicode hex="00BF"/>
  <outline>
    <contour>
      <point x="652" y="753" type="line"/>
      <point x="652" y="1023" type="line"/>
      <point x="380" y="1023" type="line"/>
      <point x="380" y="753" type="line"/>
    </contour>
    <contour>
      <point x="528" y="-444" type="curve" smooth="yes"/>
      <point x="776" y="-444"/>
      <point x="975" y="-280"/>
      <point x="975" y="-24" type="curve"/>
      <point x="755" y="-24" type="line"/>
      <point x="755" y="-165"/>
      <point x="651" y="-237"/>
      <point x="518" y="-237" type="curve" smooth="yes"/>
      <point x="381" y="-237"/>
      <point x="283" y="-177"/>
      <point x="283" y="-40" type="curve" smooth="yes"/>
      <point x="283" y="65"/>
      <point x="346" y="109"/>
      <point x="433" y="154" type="curve" smooth="yes"/>
      <point x="562" y="221"/>
      <point x="625" y="280"/>
      <point x="625" y="440" type="curve" smooth="yes"/>
      <point x="625" y="589" type="line"/>
      <point x="413" y="589" type="line"/>
      <point x="413" y="442" type="line" smooth="yes"/>
      <point x="413" y="405"/>
      <point x="388" y="373"/>
      <point x="300" y="326" type="curve" smooth="yes"/>
      <point x="144" y="242"/>
      <point x="65" y="157"/>
      <point x="65" y="-36" type="curve" smooth="yes"/>
      <point x="65" y="-298"/>
      <point x="277" y="-444"/>
    </contour>
  </outline>
</glyph>
<glyph name="AE" format="2">
  <advance width="1903"/>
  <unicode hex="00C6"/>
  <anchor x="1082" y="1618" name="top"/>
  <outline>
    <contour>
      <point x="1799" y="0" type="line"/>
      <point x="1799" y="224" type="line"/>
      <point x="1034" y="224" type="line"/>
      <point x="1034" y="614" type="line"/>
      <point x="1709" y="614" type="line"/>
      <point x="1709" y="833" type="line"/>
      <point x="1034" y="833" type="line"/>
      <point x="1034" y="1229" type="line"/>
      <point x="1799" y="1229" type="line"/>
      <point x="1799" y="1447" type="line"/>
      <point x="585" y="1447" type="line"/>
      <point x="12" y="0" type="line"/>
      <point x="274" y="0" type="line"/>
      <point x="388" y="314" type="line"/>
      <point x="795" y="314" type="line"/>
      <point x="795" y="0" type="line"/>
    </contour>
    <contour>
      <point x="795" y="516" type="line"/>
      <point x="470" y="516" type="line"/>
      <point x="746" y="1229" type="line"/>
      <point x="795" y="1229" type="line"/>
    </contour>
  </outline>
</glyph>
<glyph name="Ccedilla" format="2">
  <advance width="1466"/>
  <unicode hex="00C7"/>
  <outline>
    <contour>
      <point x="515" y="-402" type="line"/>
      <point x="529" y="-432"/>
      <point x="571" y="-481"/>
      <point x="623" y="-516"/>
      <point x="684" y="-535"/>
      <point x="717" y="-535" type="qcurve" smooth="yes"/>
      <point x="767" y="-535"/>
      <point x="852" y="-501"/>
      <point x="916" y="-439"/>
      <point x="952" y="-354"/>
      <point x="952" y="-304" type="qcurve" smooth="yes"/>
      <point x="952" y="-265"/>
      <point x="927" y="-198"/>
      <point x="881" y="-145"/>
      <point x="814" y="-110"/>
      <point x="773" y="-103" type="qcurve"/>
      <point x="818" y="-19" type="line"/>
      <point x="922" y="-15"/>
      <point x="1110" y="38"/>
      <point x="1266" y="138"/>
      <point x="1384" y="284"/>
      <point x="1417" y="380" type="qcurve"/>
      <point x="1177" y="479" type="line"/>
      <point x="1153" y="425"/>
      <point x="1080" y="327"/>
      <point x="982" y="253"/>
      <point x="858" y="210"/>
      <point x="784" y="210" type="qcurve" smooth="yes"/>
      <point x="666" y="210"/>
      <point x="498" y="294"/>
      <point x="392" y="438"/>
      <point x="342" y="628"/>
      <point x="342" y="734" type="qcurve" smooth="yes"/>
      <point x="342" y="841"/>
      <point x="396" y="1026"/>
      <point x="506" y="1161"/>
      <point x="670" y="1238"/>
      <point x="780" y="1238" type="qcurve" smooth="yes"/>
      <point x="859" y="1238"/>
      <point x="987" y="1194"/>
      <point x="1085" y="1121"/>
      <point x="1153" y="1025"/>
      <point x="1172" y="973" type="qcurve"/>
      <point x="1415" y="1070" type="line"/>
      <point x="1379" y="1169"/>
      <point x="1255" y="1319"/>
      <point x="1090" y="1418"/>
      <point x="892" y="1468"/>
      <point x="782" y="1468" type="qcurve" smooth="yes"/>
      <point x="617" y="1468"/>
      <point x="358" y="1358"/>
      <point x="179" y="1161"/>
      <point x="84" y="888"/>
      <point x="84" y="724" type="qcurve" smooth="yes"/>
      <point x="84" y="573"/>
      <point x="164" y="317"/>
      <point x="317" y="124"/>
      <point x="538" y="3"/>
      <point x="679" y="-14" type="qcurve"/>
      <point x="591" y="-178" type="line"/>
      <point x="602" y="-200" type="line"/>
      <point x="633" y="-200" type="line" smooth="yes"/>
      <point x="659" y="-200"/>
      <point x="719" y="-211"/>
      <point x="771" y="-237"/>
      <point x="805" y="-280"/>
      <point x="805" y="-312" type="qcurve" smooth="yes"/>
      <point x="805" y="-347"/>
      <point x="759" y="-392"/>
      <point x="723" y="-392" type="qcurve" smooth="yes"/>
      <point x="698" y="-392"/>
      <point x="658" y="-363"/>
      <point x="650" y="-342" type="qcurve"/>
    </contour>
  </outline>
</glyph>
<glyph name="Eth" format="2">
  <advance width="1464"/>
  <unicode hex="00D0"/>
  <outline>
    <contour>
      <point x="64" y="824" type="line"/>
      <point x="64" y="636" type="line"/>
      <point x="809" y="636" type="line"/>
      <point x="809" y="824" type="line"/>
    </contour>
    <contour>
      <point x="209" y="0" type="line"/>
      <point x="627" y="0" type="line" smooth="yes"/>
      <point x="800" y="0"/>
      <point x="1080" y="89"/>
      <point x="1276" y="267"/>
      <point x="1382" y="535"/>
      <point x="1382" y="713" type="qcurve" smooth="yes"/>
      <point x="1382" y="891"/>
      <point x="1285" y="1165"/>
      <point x="1094" y="1352"/>
      <point x="813" y="1448"/>
      <point x="629" y="1448" type="qcurve" smooth="yes"/>
      <point x="209" y="1448" type="line"/>
    </contour>
    <contour>
      <point x="469" y="239" type="line"/>
      <point x="469" y="1209" type="line"/>
      <point x="625" y="1209" type="line" smooth="yes"/>
      <point x="751" y="1209"/>
      <point x="938" y="1160"/>
      <point x="1061" y="1047"/>
      <point x="1122" y="861"/>
      <point x="1122" y="724" type="qcurve" smooth="yes"/>
      <point x="1122" y="594"/>
      <point x="1054" y="409"/>
      <point x="922" y="293"/>
      <point x="728" y="239"/>
      <point x="602" y="239" type="qcurve" smooth="yes"/>
    </contour>
  </outline>
</glyph>
<glyph name="multiply" format="2">
  <advance width="1116"/>
  <unicode hex="00D7"/>
  <outline>
    <contour>
      <point x="226.304" y="176.128" type="line"/>
      <point x="558.08" y="505.856" type="line"/>
      <point x="866.304" y="197.632" type="line"/>
      <point x="1000.45" y="331.776" type="line"/>
      <point x="692.224" y="640" type="line"/>
      <point x="1020.93" y="970.752" type="line"/>
      <point x="888.832" y="1102.85" type="line"/>
      <point x="558.08" y="774.144" type="line"/>
      <point x="249.856" y="1082.37" type="line"/>
      <point x="115.712" y="948.224" type="line"/>
      <point x="423.936" y="640" type="line"/>
      <point x="94.208" y="308.224" type="line"/>
    </contour>
  </outline>
</glyph>
<glyph name="Oslash" format="2">
  <advance width="1565"/>
  <unicode hex="00D8"/>
  <outline>
    <contour>
      <point x="782" y="-20" type="qcurve" smooth="yes"/>
      <point x="947" y="-20"/>
      <point x="1207" y="90"/>
      <point x="1386" y="287"/>
      <point x="1481" y="560"/>
      <point x="1481" y="724" type="qcurve" smooth="yes"/>
      <point x="1481" y="808"/>
      <point x="1453" y="973"/>
      <point x="1394" y="1126"/>
      <point x="1301" y="1262"/>
      <point x="1236" y="1319" type="qcurve"/>
      <point x="1313" y="1447" type="line"/>
      <point x="1126" y="1447" type="line"/>
      <point x="1101" y="1404" type="line"/>
      <point x="1029" y="1436"/>
      <point x="871" y="1468"/>
      <point x="782" y="1468" type="qcurve" smooth="yes"/>
      <point x="617" y="1468"/>
      <point x="358" y="1359"/>
      <point x="178" y="1162"/>
      <point x="84" y="888"/>
      <point x="84" y="724" type="qcurve" smooth="yes"/>
      <point x="84" y="640"/>
      <point x="112" y="475"/>
      <point x="171" y="322"/>
      <point x="264" y="185"/>
      <point x="329" y="129" type="qcurve"/>
      <point x="250" y="0" type="line"/>
      <point x="436" y="0" type="line"/>
      <point x="463" y="44" type="line"/>
      <point x="535" y="12"/>
      <point x="693" y="-20"/>
    </contour>
    <contour>
      <point x="463" y="352" type="line"/>
      <point x="437" y="386"/>
      <point x="397" y="467"/>
      <point x="371" y="560"/>
      <point x="358" y="665"/>
      <point x="358" y="724" type="qcurve" smooth="yes"/>
      <point x="358" y="830"/>
      <point x="405" y="1017"/>
      <point x="507" y="1156"/>
      <point x="668" y="1237"/>
      <point x="782" y="1237" type="qcurve" smooth="yes"/>
      <point x="837" y="1237"/>
      <point x="933" y="1217"/>
      <point x="975" y="1197" type="qcurve"/>
    </contour>
    <contour>
      <point x="782" y="210" type="qcurve" smooth="yes"/>
      <point x="726" y="210"/>
      <point x="630" y="230"/>
      <point x="588" y="251" type="qcurve"/>
      <point x="1101" y="1097" type="line"/>
      <point x="1128" y="1062"/>
      <point x="1167" y="980"/>
      <point x="1193" y="887"/>
      <point x="1206" y="782"/>
      <point x="1206" y="724" type="qcurve" smooth="yes"/>
      <point x="1206" y="618"/>
      <point x="1159" y="431"/>
      <point x="1057" y="291"/>
      <point x="896" y="210"/>
    </contour>
  </outline>
</glyph>
<glyph name="Thorn" format="2">
  <advance width="1179"/>
  <unicode hex="00DE"/>
  <outline>
    <contour>
      <point x="424" y="0" type="line"/>
      <point x="424" y="407" type="line"/>
      <point x="629" y="407" type="line" smooth="yes"/>
      <point x="913" y="407"/>
      <point x="1130" y="542"/>
      <point x="1130" y="839" type="curve" smooth="yes"/>
      <point x="1130" y="1087"/>
      <point x="979" y="1248"/>
      <point x="686" y="1248" type="curve" smooth="yes"/>
      <point x="424" y="1248" type="line"/>
      <point x="424" y="1447" type="line"/>
      <point x="186" y="1447" type="line"/>
      <point x="186" y="0" type="line"/>
    </contour>
    <contour>
      <point x="629" y="623" type="curve" smooth="yes"/>
      <point x="424" y="623" type="line"/>
      <point x="424" y="1044" type="line"/>
      <point x="629" y="1044" type="line" smooth="yes"/>
      <point x="805" y="1044"/>
      <point x="893" y="971"/>
      <point x="893" y="825" type="curve" smooth="yes"/>
      <point x="893" y="690"/>
      <point x="805" y="623"/>
    </contour>
  </outline>
</glyph>
<glyph name="germandbls" format="2">
  <advance width="1222"/>
  <unicode hex="00DF"/>
  <outline>
    <contour>
      <point x="157" y="0" type="line"/>
      <point x="404" y="0" type="line"/>
      <point x="404" y="1044" type="line" smooth="yes"/>
      <point x="404" y="1178"/>
      <point x="483" y="1254"/>
      <point x="621" y="1254" type="curve" smooth="yes"/>
      <point x="736" y="1254"/>
      <point x="814" y="1195"/>
      <point x="814" y="1107" type="curve" smooth="yes"/>
      <point x="814" y="1051"/>
      <point x="786" y="1020"/>
      <point x="717" y="975" type="curve" smooth="yes"/>
      <point x="639" y="925"/>
      <point x="592" y="877"/>
      <point x="592" y="780" type="curve" smooth="yes"/>
      <point x="592" y="659"/>
      <point x="677" y="582"/>
      <point x="763" y="511" type="curve" smooth="yes"/>
      <point x="848" y="440"/>
      <point x="894" y="394"/>
      <point x="894" y="327" type="curve" smooth="yes"/>
      <point x="894" y="261"/>
      <point x="844" y="208"/>
      <point x="754" y="208" type="curve" smooth="yes"/>
      <point x="715" y="208"/>
      <point x="676" y="215"/>
      <point x="638" y="230" type="curve"/>
      <point x="550" y="18" type="line"/>
      <point x="623" y="-7"/>
      <point x="692" y="-18"/>
      <point x="759" y="-18" type="curve" smooth="yes"/>
      <point x="984" y="-18"/>
      <point x="1146" y="128"/>
      <point x="1146" y="330" type="curve" smooth="yes"/>
      <point x="1146" y="461"/>
      <point x="1081" y="558"/>
      <point x="923" y="665" type="curve" smooth="yes"/>
      <point x="850" y="714"/>
      <point x="841" y="738"/>
      <point x="841" y="770" type="curve" smooth="yes"/>
      <point x="841" y="790"/>
      <point x="848" y="812"/>
      <point x="904" y="849" type="curve" smooth="yes"/>
      <point x="1000" y="914"/>
      <point x="1062" y="986"/>
      <point x="1062" y="1091" type="curve" smooth="yes"/>
      <point x="1062" y="1321"/>
      <point x="883" y="1468"/>
      <point x="605" y="1468" type="curve" smooth="yes"/>
      <point x="352" y="1468"/>
      <point x="157" y="1299"/>
      <point x="157" y="1044" type="curve" smooth="yes"/>
    </contour>
  </outline>
</glyph>
<glyph name="ae" format="2">
  <advance width="1772"/>
  <unicode hex="00E6"/>
  <anchor x="884.736" y="1191.94" name="top"/>
  <outline>
    <contour>
      <point x="420.864" y="-20.48" type="curve" smooth="yes"/>
      <point x="611.364" y="-20.48"/>
      <point x="764.901" y="45.4814"/>
      <point x="878.931" y="176.311" type="curve"/>
      <point x="841.722" y="178.446" type="line"/>
      <point x="919.38" y="51.1427"/>
      <point x="1048.79" y="-12.288"/>
      <point x="1230.85" y="-12.288" type="curve" smooth="yes"/>
      <point x="1418.52" y="-12.288"/>
      <point x="1557.43" y="42.8905"/>
      <point x="1674.24" y="163.84" type="curve"/>
      <point x="1492.99" y="323.584" type="line"/>
      <point x="1429.07" y="249.763"/>
      <point x="1353.45" y="220.16"/>
      <point x="1228.8" y="220.16" type="curve" smooth="yes"/>
      <point x="1083.34" y="220.16"/>
      <point x="993.721" y="300.813"/>
      <point x="972.8" y="450.56" type="curve"/>
      <point x="1702.91" y="450.56" type="line"/>
      <point x="1708.22" y="459.413"/>
      <point x="1714.18" y="501.62"/>
      <point x="1714.18" y="530.432" type="curve" smooth="yes"/>
      <point x="1714.18" y="876.936"/>
      <point x="1538.25" y="1084.25"/>
      <point x="1233.92" y="1084.25" type="curve" smooth="yes"/>
      <point x="1092.75" y="1084.25"/>
      <point x="972.05" y="1020.62"/>
      <point x="884.736" y="913.408" type="curve"/>
      <point x="811.922" y="1021.56"/>
      <point x="686.517" y="1084.34"/>
      <point x="532.48" y="1084.34" type="curve" smooth="yes"/>
      <point x="344.096" y="1084.34"/>
      <point x="203.467" y="1012.67"/>
      <point x="94.208" y="867.328" type="curve"/>
      <point x="270.336" y="727.04" type="line"/>
      <point x="326.849" y="815.542"/>
      <point x="421.737" y="872.376"/>
      <point x="521.216" y="872.376" type="curve" smooth="yes"/>
      <point x="681.608" y="872.376"/>
      <point x="751.616" y="796.879"/>
      <point x="751.616" y="630.784" type="curve"/>
      <point x="466.944" y="630.784" type="line" smooth="yes"/>
      <point x="195.667" y="630.784"/>
      <point x="48.128" y="517.875"/>
      <point x="48.128" y="310.272" type="curve" smooth="yes"/>
      <point x="48.128" y="120.41"/>
      <point x="206.902" y="-20.48"/>
    </contour>
    <contour>
      <point x="974.848" y="630.784" type="line"/>
      <point x="995.177" y="784.382"/>
      <point x="1078.48" y="874.328"/>
      <point x="1212.42" y="874.328" type="curve" smooth="yes"/>
      <point x="1356.35" y="874.328"/>
      <point x="1436.91" y="789.789"/>
      <point x="1458.18" y="630.784" type="curve"/>
    </contour>
    <contour>
      <point x="456.704" y="184.32" type="curve" smooth="yes"/>
      <point x="344.436" y="184.32"/>
      <point x="282.624" y="229.406"/>
      <point x="282.624" y="311.296" type="curve" smooth="yes"/>
      <point x="282.624" y="393.472"/>
      <point x="363.219" y="450.56"/>
      <point x="479.232" y="450.56" type="curve" smooth="yes"/>
      <point x="751.616" y="450.56" type="line"/>
      <point x="730.722" y="301.166"/>
      <point x="601.293" y="184.32"/>
    </contour>
  </outline>
  <guideline angle="90" name="vertical" x="884.736" y="0"/>
</glyph>
<glyph name="ccedilla" format="2">
  <advance width="1055"/>
  <unicode hex="00E7"/>
  <outline>
    <contour>
      <point x="309" y="-402" type="line"/>
      <point x="323" y="-432"/>
      <point x="365" y="-481"/>
      <point x="417" y="-516"/>
      <point x="478" y="-535"/>
      <point x="511" y="-535" type="qcurve" smooth="yes"/>
      <point x="561" y="-535"/>
      <point x="646" y="-501"/>
      <point x="710" y="-439"/>
      <point x="746" y="-354"/>
      <point x="746" y="-304" type="qcurve" smooth="yes"/>
      <point x="746" y="-265"/>
      <point x="721" y="-198"/>
      <point x="675" y="-145"/>
      <point x="608" y="-110"/>
      <point x="567" y="-103" type="qcurve"/>
      <point x="613" y="-18" type="line"/>
      <point x="683" y="-12"/>
      <point x="807" y="33"/>
      <point x="910" y="111"/>
      <point x="989" y="220"/>
      <point x="1014" y="288" type="qcurve"/>
      <point x="777" y="379" type="line"/>
      <point x="766" y="341"/>
      <point x="727" y="280"/>
      <point x="672" y="237"/>
      <point x="604" y="214"/>
      <point x="564" y="214" type="qcurve" smooth="yes"/>
      <point x="495" y="214"/>
      <point x="400" y="267"/>
      <point x="340" y="355"/>
      <point x="314" y="469"/>
      <point x="314" y="530" type="qcurve" smooth="yes"/>
      <point x="314" y="591"/>
      <point x="342" y="706"/>
      <point x="402" y="795"/>
      <point x="497" y="849"/>
      <point x="564" y="849" type="qcurve" smooth="yes"/>
      <point x="602" y="849"/>
      <point x="670" y="828"/>
      <point x="725" y="787"/>
      <point x="766" y="725"/>
      <point x="777" y="684" type="qcurve"/>
      <point x="1024" y="782" type="line"/>
      <point x="993" y="853"/>
      <point x="901" y="965"/>
      <point x="785" y="1043"/>
      <point x="646" y="1084"/>
      <point x="568" y="1084" type="qcurve" smooth="yes"/>
      <point x="450" y="1084"/>
      <point x="262" y="998"/>
      <point x="130" y="848"/>
      <point x="60" y="646"/>
      <point x="60" y="530" type="qcurve" smooth="yes"/>
      <point x="60" y="433"/>
      <point x="112" y="252"/>
      <point x="215" y="106"/>
      <point x="371" y="5"/>
      <point x="474" y="-12" type="qcurve"/>
      <point x="385" y="-178" type="line"/>
      <point x="396" y="-200" type="line"/>
      <point x="427" y="-200" type="line" smooth="yes"/>
      <point x="453" y="-200"/>
      <point x="513" y="-211"/>
      <point x="565" y="-237"/>
      <point x="599" y="-280"/>
      <point x="599" y="-312" type="qcurve" smooth="yes"/>
      <point x="599" y="-347"/>
      <point x="553" y="-392"/>
      <point x="517" y="-392" type="qcurve" smooth="yes"/>
      <point x="492" y="-392"/>
      <point x="452" y="-363"/>
      <point x="444" y="-342" type="qcurve"/>
    </contour>
  </outline>
</glyph>
<glyph name="eth" format="2">
  <advance width="1228"/>
  <unicode hex="00F0"/>
  <outline>
    <contour>
      <point x="613.376" y="-16.384" type="curve" smooth="yes"/>
      <point x="983.04" y="-16.384"/>
      <point x="1142.78" y="241.664"/>
      <point x="1142.78" y="585.728" type="curve" smooth="yes"/>
      <point x="1142.78" y="965.632"/>
      <point x="1005.57" y="1250.3"/>
      <point x="671.744" y="1442.82" type="curve"/>
      <point x="740.352" y="1531.9" type="line"/>
      <point x="628.736" y="1589.25" type="line"/>
      <point x="556.032" y="1496.06" type="line"/>
      <point x="507.904" y="1517.57"/>
      <point x="456.704" y="1538.05"/>
      <point x="402.432" y="1555.46" type="curve"/>
      <point x="284.672" y="1374.21" type="line"/>
      <point x="338.944" y="1358.85"/>
      <point x="386.048" y="1344.51"/>
      <point x="428.032" y="1331.2" type="curve"/>
      <point x="354.304" y="1236.99" type="line"/>
      <point x="462.848" y="1174.53" type="line"/>
      <point x="547.84" y="1284.1" type="line"/>
      <point x="695.296" y="1216.51"/>
      <point x="792.576" y="1123.33"/>
      <point x="838.656" y="1005.57" type="curve"/>
      <point x="769.024" y="1058.82"/>
      <point x="678.912" y="1085.44"/>
      <point x="569.344" y="1085.44" type="curve" smooth="yes"/>
      <point x="261.12" y="1085.44"/>
      <point x="58.368" y="857.088"/>
      <point x="58.368" y="549.888" type="curve" smooth="yes"/>
      <point x="58.368" y="249.856"/>
      <point x="245.76" y="-16.384"/>
    </contour>
    <contour>
      <point x="600.064" y="214.016" type="curve" smooth="yes"/>
      <point x="405.504" y="214.016"/>
      <point x="310.272" y="373.76"/>
      <point x="310.272" y="548.864" type="curve" smooth="yes"/>
      <point x="310.272" y="729.088"/>
      <point x="409.6" y="883.712"/>
      <point x="600.064" y="883.712" type="curve" smooth="yes"/>
      <point x="795.648" y="883.712"/>
      <point x="890.88" y="728.064"/>
      <point x="890.88" y="550.912" type="curve" smooth="yes"/>
      <point x="890.88" y="368.64"/>
      <point x="792.576" y="214.016"/>
    </contour>
  </outline>
</glyph>
<glyph name="divide" format="2">
  <advance width="1296"/>
  <unicode hex="00F7"/>
  <outline>
    <contour>
      <point x="784" y="854" type="line"/>
      <point x="784" y="1124" type="line"/>
      <point x="512" y="1124" type="line"/>
      <point x="512" y="854" type="line"/>
    </contour>
    <contour>
      <point x="1210" y="550" type="line"/>
      <point x="1210" y="738" type="line"/>
      <point x="86" y="738" type="line"/>
      <point x="86" y="550" type="line"/>
    </contour>
    <contour>
      <point x="784" y="146" type="line"/>
      <point x="784" y="418" type="line"/>
      <point x="512" y="418" type="line"/>
      <point x="512" y="146" type="line"/>
    </contour>
  </outline>
</glyph>
<glyph name="oslash" format="2">
  <advance width="1176"/>
  <unicode hex="00F8"/>
  <outline>
    <contour>
      <point x="586" y="-20" type="qcurve" smooth="yes"/>
      <point x="702" y="-20"/>
      <point x="899" y="63"/>
      <point x="1043" y="211"/>
      <point x="1124" y="413"/>
      <point x="1124" y="533" type="qcurve" smooth="yes"/>
      <point x="1124" y="601"/>
      <point x="1097" y="730"/>
      <point x="1045" y="845"/>
      <point x="969" y="943"/>
      <point x="921" y="982" type="qcurve"/>
      <point x="975" y="1071" type="line"/>
      <point x="842" y="1071" type="line"/>
      <point x="821" y="1039" type="line"/>
      <point x="767" y="1062"/>
      <point x="653" y="1084"/>
      <point x="592" y="1084" type="qcurve" smooth="yes"/>
      <point x="477" y="1084"/>
      <point x="280" y="1000"/>
      <point x="136" y="852"/>
      <point x="54" y="648"/>
      <point x="54" y="529" type="qcurve" smooth="yes"/>
      <point x="54" y="461"/>
      <point x="81" y="334"/>
      <point x="132" y="220"/>
      <point x="206" y="123"/>
      <point x="253" y="85" type="qcurve"/>
      <point x="201" y="-1" type="line"/>
      <point x="334" y="-1" type="line"/>
      <point x="351" y="28" type="line"/>
      <point x="406" y="4"/>
      <point x="523" y="-20"/>
    </contour>
    <contour>
      <point x="378" y="294" type="line"/>
      <point x="346" y="339"/>
      <point x="314" y="459"/>
      <point x="314" y="531" type="qcurve" smooth="yes"/>
      <point x="314" y="610"/>
      <point x="352" y="735"/>
      <point x="422" y="822"/>
      <point x="525" y="868"/>
      <point x="589" y="868" type="qcurve" smooth="yes"/>
      <point x="620" y="868"/>
      <point x="675" y="859"/>
      <point x="701" y="848" type="qcurve"/>
    </contour>
    <contour>
      <point x="589" y="195" type="qcurve" smooth="yes"/>
      <point x="557" y="195"/>
      <point x="498" y="206"/>
      <point x="471" y="218" type="qcurve"/>
      <point x="796" y="774" type="line"/>
      <point x="830" y="729"/>
      <point x="864" y="607"/>
      <point x="864" y="531" type="qcurve" smooth="yes"/>
      <point x="864" y="452"/>
      <point x="827" y="327"/>
      <point x="756" y="241"/>
      <point x="654" y="195"/>
    </contour>
  </outline>
</glyph>
<glyph name="thorn" format="2">
  <advance width="1202"/>
  <unicode hex="00FE"/>
  <outline>
    <contour>
      <point x="394" y="-449" type="line"/>
      <point x="394" y="84" type="line"/>
      <point x="448" y="33"/>
      <point x="596" y="-20"/>
      <point x="684" y="-20" type="qcurve" smooth="yes"/>
      <point x="786" y="-20"/>
      <point x="955" y="61"/>
      <point x="1077" y="206"/>
      <point x="1144" y="409"/>
      <point x="1144" y="532" type="qcurve" smooth="yes"/>
      <point x="1144" y="656"/>
      <point x="1077" y="860"/>
      <point x="956" y="1005"/>
      <point x="787" y="1085"/>
      <point x="684" y="1085" type="qcurve" smooth="yes"/>
      <point x="596" y="1085"/>
      <point x="452" y="1033"/>
      <point x="394" y="981" type="qcurve"/>
      <point x="394" y="1448" type="line"/>
      <point x="157" y="1448" type="line"/>
      <point x="157" y="-449" type="line"/>
    </contour>
    <contour>
      <point x="645" y="195" type="qcurve" smooth="yes"/>
      <point x="582" y="195"/>
      <point x="483" y="241"/>
      <point x="414" y="328"/>
      <point x="377" y="453"/>
      <point x="377" y="532" type="qcurve" smooth="yes"/>
      <point x="377" y="610"/>
      <point x="414" y="734"/>
      <point x="483" y="821"/>
      <point x="582" y="867"/>
      <point x="645" y="867" type="qcurve" smooth="yes"/>
      <point x="708" y="867"/>
      <point x="807" y="821"/>
      <point x="876" y="735"/>
      <point x="912" y="611"/>
      <point x="912" y="532" type="qcurve" smooth="yes"/>
      <point x="912" y="453"/>
      <point x="876" y="328"/>
      <point x="807" y="241"/>
      <point x="708" y="195"/>
    </contour>
  </outline>
</glyph>
<glyph name="dcaron" format="2">
  <advance width="1349"/>
  <unicode hex="010F"/>
  <outline>
    <component base="d"/>
    <contour>
      <point x="1340" y="1022" type="line"/>
      <point x="1582" y="1447" type="line"/>
      <point x="1310" y="1447" type="line"/>
      <point x="1189" y="1022" type="line"/>
    </contour>
  </outline>
</glyph>
<glyph name="dcroat" format="2">
  <advance width="1223"/>
  <unicode hex="0111"/>
  <outline>
    <component base="d"/>
    <contour>
      <point x="543.744" y="1353.73" type="line"/>
      <point x="543.744" y="1185.79" type="line"/>
      <point x="1209.34" y="1185.79" type="line"/>
      <point x="1209.34" y="1353.73" type="line"/>
    </contour>
  </outline>
</glyph>
<glyph name="gcommaaccent" format="2">
  <advance width="1139"/>
  <unicode hex="0123"/>
  <anchor x="571" y="-465" name="m.uni0326"/>
  <anchor x="0" y="11" name="m.uni0328_1"/>
  <anchor x="571" y="1072" name="m.uni0308_2"/>
  <anchor x="0" y="11" name="m.uni031B_3_2"/>
  <outline>
    <contour>
      <point x="645" y="1192" type="line"/>
      <point x="786" y="1483" type="line"/>
      <point x="639" y="1483" type="line"/>
      <point x="375" y="1192" type="line"/>
    </contour>
    <contour>
      <point x="577" y="-467" type="curve"/>
      <point x="805" y="-467"/>
      <point x="1074" y="-375"/>
      <point x="1074" y="-112" type="curve" smooth="yes"/>
      <point x="1074" y="105"/>
      <point x="892" y="198"/>
      <point x="694" y="194" type="curve"/>
      <point x="470" y="194" type="line" smooth="yes"/>
      <point x="365" y="194"/>
      <point x="311" y="217"/>
      <point x="311" y="286" type="curve" smooth="yes"/>
      <point x="311" y="328"/>
      <point x="331" y="357"/>
      <point x="368" y="373" type="curve"/>
      <point x="434" y="347"/>
      <point x="505" y="333"/>
      <point x="584" y="333" type="curve" smooth="yes"/>
      <point x="807" y="333"/>
      <point x="1005" y="460"/>
      <point x="1002" y="697" type="curve" smooth="yes"/>
      <point x="1002" y="764"/>
      <point x="987" y="826"/>
      <point x="957" y="880" type="curve"/>
      <point x="1112" y="1004" type="line"/>
      <point x="982" y="1168" type="line"/>
      <point x="818" y="1028" type="line"/>
      <point x="747" y="1068"/>
      <point x="665" y="1084"/>
      <point x="572" y="1084" type="curve" smooth="yes"/>
      <point x="337" y="1084"/>
      <point x="142" y="946"/>
      <point x="140" y="705" type="curve" smooth="yes"/>
      <point x="140" y="623"/>
      <point x="162" y="553"/>
      <point x="208" y="493" type="curve"/>
      <point x="117" y="437"/>
      <point x="72" y="354"/>
      <point x="72" y="263" type="curve" smooth="yes"/>
      <point x="72" y="155"/>
      <point x="134" y="76"/>
      <point x="216" y="25" type="curve"/>
      <point x="68" y="-34" type="line"/>
      <point x="57" y="-62"/>
      <point x="51" y="-93"/>
      <point x="51" y="-128" type="curve" smooth="yes"/>
      <point x="51" y="-378"/>
      <point x="363" y="-470"/>
    </contour>
    <contour>
      <point x="577" y="518" type="curve" smooth="yes"/>
      <point x="462" y="518"/>
      <point x="396" y="592"/>
      <point x="396" y="700" type="curve" smooth="yes"/>
      <point x="396" y="810"/>
      <point x="462" y="882"/>
      <point x="577" y="881" type="curve"/>
      <point x="689" y="881"/>
      <point x="755" y="811"/>
      <point x="754" y="700" type="curve"/>
      <point x="754" y="592"/>
      <point x="688" y="518"/>
    </contour>
    <contour>
      <point x="585" y="-275" type="curve" smooth="yes"/>
      <point x="429" y="-275"/>
      <point x="288" y="-214"/>
      <point x="290" y="-110" type="curve"/>
      <point x="384" y="-22" type="line"/>
      <point x="592" y="-22" type="line" smooth="yes"/>
      <point x="750" y="-22"/>
      <point x="828" y="-44"/>
      <point x="828" y="-133" type="curve" smooth="yes"/>
      <point x="828" y="-225"/>
      <point x="717" y="-275"/>
    </contour>
  </outline>
</glyph>
<glyph name="uni0123" format="2">
  <advance width="1067"/>
  <unicode hex="0123"/>
  <outline>
    <component base="g"/>
    <contour>
      <point x="645" y="1192" type="line"/>
      <point x="786" y="1483" type="line"/>
      <point x="639" y="1483" type="line"/>
      <point x="375" y="1192" type="line"/>
    </contour>
  </outline>
</glyph>
<glyph name="Hbar" format="2">
  <advance width="1527"/>
  <unicode hex="0126"/>
  <outline>
    <contour>
      <point x="1340.42" y="0" type="line"/>
      <point x="1340.42" y="1068.03" type="line"/>
      <point x="1443.84" y="1068.03" type="line"/>
      <point x="1443.84" y="1214.46" type="line"/>
      <point x="1340.42" y="1214.46" type="line"/>
      <point x="1340.42" y="1446.91" type="line"/>
      <point x="1080.32" y="1446.91" type="line"/>
      <point x="1080.32" y="1214.46" type="line"/>
      <point x="446.464" y="1214.46" type="line"/>
      <point x="446.464" y="1446.91" type="line"/>
      <point x="186.368" y="1446.91" type="line"/>
      <point x="186.368" y="1214.46" type="line"/>
      <point x="80.896" y="1214.46" type="line"/>
      <point x="80.896" y="1068.03" type="line"/>
      <point x="186.368" y="1068.03" type="line"/>
      <point x="186.368" y="0" type="line"/>
      <point x="446.464" y="0" type="line"/>
      <point x="446.464" y="604.16" type="line"/>
      <point x="1080.32" y="604.16" type="line"/>
      <point x="1080.32" y="0" type="line"/>
    </contour>
    <contour>
      <point x="1080.32" y="842.752" type="line"/>
      <point x="446.464" y="842.752" type="line"/>
      <point x="446.464" y="1068.03" type="line"/>
      <point x="1080.32" y="1068.03" type="line"/>
    </contour>
  </outline>
</glyph>
<glyph name="hbar" format="2">
  <advance width="1220"/>
  <unicode hex="0127"/>
  <outline>
    <contour>
      <point x="1" y="1327" type="line"/>
      <point x="1" y="1159" type="line"/>
      <point x="668" y="1159" type="line"/>
      <point x="668" y="1327" type="line"/>
    </contour>
    <contour>
      <point x="157" y="0" type="line"/>
      <point x="411" y="0" type="line"/>
      <point x="411" y="592" type="line" smooth="yes"/>
      <point x="411" y="644"/>
      <point x="454" y="738"/>
      <point x="527" y="809"/>
      <point x="624" y="851"/>
      <point x="677" y="851" type="qcurve" smooth="yes"/>
      <point x="720" y="851"/>
      <point x="784" y="822"/>
      <point x="826" y="763"/>
      <point x="847" y="675"/>
      <point x="847" y="615" type="qcurve" smooth="yes"/>
      <point x="847" y="0" type="line"/>
      <point x="1101" y="0" type="line"/>
      <point x="1101" y="642" type="line" smooth="yes"/>
      <point x="1101" y="743"/>
      <point x="1046" y="907"/>
      <point x="946" y="1022"/>
      <point x="803" y="1084"/>
      <point x="714" y="1084" type="qcurve" smooth="yes"/>
      <point x="669" y="1084"/>
      <point x="583" y="1066"/>
      <point x="506" y="1031"/>
      <point x="439" y="981"/>
      <point x="411" y="948" type="qcurve"/>
      <point x="411" y="1448" type="line"/>
      <point x="157" y="1448" type="line"/>
    </contour>
  </outline>
</glyph>
<glyph name="dotlessi" format="2">
  <advance width="528"/>
  <unicode hex="0131"/>
  <anchor x="264.192" y="1191.94" name="top"/>
  <outline>
    <contour>
      <point x="148.48" y="0" type="line"/>
      <point x="379.904" y="0" type="line"/>
      <point x="379.904" y="1063.94" type="line"/>
      <point x="148.48" y="1063.94" type="line"/>
    </contour>
  </outline>
  <guideline angle="90" name="vertical" x="264.192" y="0"/>
</glyph>
<glyph name="Lcaron" format="2">
  <advance width="1126"/>
  <unicode hex="013D"/>
  <outline>
    <component base="L"/>
    <contour>
      <point x="833" y="981" type="line"/>
      <point x="1065" y="1447" type="line"/>
      <point x="803" y="1447" type="line"/>
      <point x="686" y="981" type="line"/>
    </contour>
  </outline>
</glyph>
<glyph name="lcaron" format="2">
  <advance width="851"/>
  <unicode hex="013E"/>
  <outline>
    <contour>
      <point x="697" y="981" type="line"/>
      <point x="939" y="1447" type="line"/>
      <point x="667" y="1447" type="line"/>
      <point x="544" y="981" type="line"/>
    </contour>
    <contour>
      <point x="372" y="-20" type="curve" smooth="yes"/>
      <point x="423" y="-20"/>
      <point x="482" y="-13"/>
      <point x="554" y="0" type="curve"/>
      <point x="554" y="210" type="line"/>
      <point x="526" y="206"/>
      <point x="500" y="204"/>
      <point x="469" y="204" type="curve" smooth="yes"/>
      <point x="422" y="204"/>
      <point x="398" y="225"/>
      <point x="398" y="272" type="curve" smooth="yes"/>
      <point x="398" y="1448" type="line"/>
      <point x="148" y="1448" type="line"/>
      <point x="148" y="204" type="line" smooth="yes"/>
      <point x="148" y="125"/>
      <point x="165" y="69"/>
      <point x="201" y="33" type="curve" smooth="yes"/>
      <point x="237" y="-3"/>
      <point x="293" y="-20"/>
    </contour>
  </outline>
</glyph>
<glyph name="Ldot" format="2">
  <advance width="1089"/>
  <unicode hex="013F"/>
  <outline>
    <contour>
      <point x="819.2" y="571.392" type="curve" smooth="yes"/>
      <point x="904.192" y="571.392"/>
      <point x="972.8" y="640"/>
      <point x="972.8" y="724.992" type="curve" smooth="yes"/>
      <point x="972.8" y="811.008"/>
      <point x="905.216" y="875.52"/>
      <point x="819.2" y="875.52" type="curve" smooth="yes"/>
      <point x="734.208" y="875.52"/>
      <point x="668.672" y="809.984"/>
      <point x="668.672" y="724.992" type="curve" smooth="yes"/>
      <point x="668.672" y="641.024"/>
      <point x="734.208" y="571.392"/>
    </contour>
    <contour>
      <point x="1064.96" y="0" type="line"/>
      <point x="1064.96" y="245.76" type="line"/>
      <point x="446.464" y="245.76" type="line"/>
      <point x="446.464" y="1446.91" type="line"/>
      <point x="186.368" y="1446.91" type="line"/>
      <point x="186.368" y="0" type="line"/>
    </contour>
  </outline>
</glyph>
<glyph name="ldot" format="2">
  <advance width="752"/>
  <unicode hex="0140"/>
  <outline>
    <component base="l"/>
    <contour>
      <point x="596.992" y="561.152" type="curve" smooth="yes"/>
      <point x="681.984" y="561.152"/>
      <point x="750.592" y="629.76"/>
      <point x="750.592" y="714.752" type="curve" smooth="yes"/>
      <point x="750.592" y="800.768"/>
      <point x="683.008" y="865.28"/>
      <point x="596.992" y="865.28" type="curve" smooth="yes"/>
      <point x="512" y="865.28"/>
      <point x="446.464" y="799.744"/>
      <point x="446.464" y="714.752" type="curve" smooth="yes"/>
      <point x="446.464" y="630.784"/>
      <point x="512" y="561.152"/>
    </contour>
  </outline>
</glyph>
<glyph name="Lslash" format="2">
  <advance width="1116"/>
  <unicode hex="0141"/>
  <outline>
    <component base="L" xOffset="27.648" yOffset="-1"/>
    <contour>
      <point x="66.496" y="642.211" type="line"/>
      <point x="66.496" y="361.724" type="line"/>
      <point x="758.848" y="822.927" type="line"/>
      <point x="758.848" y="1103.39" type="line"/>
    </contour>
  </outline>
  <guideline angle="213.633" x="759" y="1103"/>
  <guideline angle="33.6328" x="66" y="362"/>
  <guideline angle="90" x="759" y="0"/>
</glyph>
<glyph name="lslash" format="2">
  <advance width="592"/>
  <unicode hex="0142"/>
  <outline>
    <component base="l"/>
    <contour>
      <point x="76.8" y="555.008" type="line"/>
      <point x="76.8" y="321.536" type="line"/>
      <point x="506.88" y="800.768" type="line"/>
      <point x="506.88" y="1035.26" type="line"/>
    </contour>
  </outline>
</glyph>
<glyph name="Eng" format="2">
  <advance width="1486"/>
  <unicode hex="014A"/>
  <outline>
    <contour>
      <point x="1062" y="-378" type="line" smooth="yes"/>
      <point x="1135" y="-378"/>
      <point x="1195" y="-352"/>
      <point x="1236" y="-305" type="curve" smooth="yes"/>
      <point x="1277" y="-257"/>
      <point x="1300" y="-189"/>
      <point x="1300" y="-104" type="curve" smooth="yes"/>
      <point x="1300" y="1445" type="line"/>
      <point x="1053" y="1445" type="line"/>
      <point x="1053" y="414" type="line"/>
      <point x="444" y="1445" type="line"/>
      <point x="186" y="1445" type="line"/>
      <point x="186" y="0" type="line"/>
      <point x="436" y="0" type="line"/>
      <point x="436" y="1021" type="line"/>
      <point x="995" y="70" type="line" smooth="yes"/>
      <point x="1019" y="30"/>
      <point x="1033" y="0"/>
      <point x="1042" y="-25" type="curve" smooth="yes"/>
      <point x="1051" y="-50"/>
      <point x="1054" y="-72"/>
      <point x="1054" y="-95" type="curve" smooth="yes"/>
      <point x="1054" y="-122"/>
      <point x="1049" y="-146"/>
      <point x="1038" y="-165" type="curve" smooth="yes"/>
      <point x="1027" y="-184"/>
      <point x="1008" y="-193"/>
      <point x="983" y="-193" type="curve" smooth="yes"/>
      <point x="908" y="-193" type="line"/>
      <point x="908" y="-378" type="line"/>
    </contour>
  </outline>
</glyph>
<glyph name="eng" format="2">
  <advance width="1199"/>
  <unicode hex="014B"/>
  <outline>
    <contour>
      <point x="759.808" y="-377.856" type="line" smooth="yes"/>
      <point x="984.064" y="-377.856"/>
      <point x="1086.46" y="-270.336"/>
      <point x="1086.46" y="-58.368" type="curve" smooth="yes"/>
      <point x="1086.46" y="648.12" type="line" smooth="yes"/>
      <point x="1086.46" y="884.664"/>
      <point x="968.704" y="1084.34"/>
      <point x="705.536" y="1084.34" type="curve" smooth="yes"/>
      <point x="594.944" y="1084.34"/>
      <point x="479.232" y="1042.36"/>
      <point x="398.336" y="936.888" type="curve"/>
      <point x="398.336" y="1063.94" type="line"/>
      <point x="154.624" y="1063.94" type="line"/>
      <point x="154.624" y="7.168" type="line"/>
      <point x="398.336" y="7.168" type="line"/>
      <point x="398.336" y="595.896" type="line" smooth="yes"/>
      <point x="398.336" y="740.28"/>
      <point x="526.336" y="862.136"/>
      <point x="668.672" y="862.136" type="curve" smooth="yes"/>
      <point x="815.104" y="862.136"/>
      <point x="843.776" y="743.352"/>
      <point x="843.776" y="619.448" type="curve" smooth="yes"/>
      <point x="843.776" y="5.12" type="line" smooth="yes"/>
      <point x="843.776" y="-97.28"/>
      <point x="831.488" y="-172.032"/>
      <point x="714.752" y="-172.032" type="curve" smooth="yes"/>
      <point x="633.856" y="-172.032" type="line"/>
      <point x="633.856" y="-377.856" type="line"/>
    </contour>
  </outline>
</glyph>
<glyph name="OE" format="2">
  <advance width="2309"/>
  <unicode hex="0152"/>
  <outline>
    <contour>
      <point x="763" y="-20" type="curve" smooth="yes"/>
      <point x="856" y="-20"/>
      <point x="945" y="-6"/>
      <point x="1023" y="23" type="curve" smooth="yes"/>
      <point x="1101" y="51"/>
      <point x="1168" y="94"/>
      <point x="1221" y="151" type="curve"/>
      <point x="1221" y="0" type="line"/>
      <point x="2183" y="0" type="line"/>
      <point x="2183" y="246" type="line"/>
      <point x="1481" y="246" type="line"/>
      <point x="1481" y="604" type="line"/>
      <point x="2135" y="604" type="line"/>
      <point x="2135" y="843" type="line"/>
      <point x="1481" y="843" type="line"/>
      <point x="1481" y="1208" type="line"/>
      <point x="2183" y="1208" type="line"/>
      <point x="2183" y="1447" type="line"/>
      <point x="1221" y="1447" type="line"/>
      <point x="1221" y="1296" type="line"/>
      <point x="1173" y="1349"/>
      <point x="1109" y="1392"/>
      <point x="1031" y="1422" type="curve" smooth="yes"/>
      <point x="953" y="1452"/>
      <point x="862" y="1468"/>
      <point x="763" y="1468" type="curve" smooth="yes"/>
      <point x="554" y="1468"/>
      <point x="383" y="1397"/>
      <point x="266" y="1269" type="curve" smooth="yes"/>
      <point x="149" y="1141"/>
      <point x="84" y="955"/>
      <point x="84" y="724" type="curve" smooth="yes"/>
      <point x="84" y="495"/>
      <point x="149" y="308"/>
      <point x="266" y="180" type="curve" smooth="yes"/>
      <point x="383" y="51"/>
      <point x="554" y="-20"/>
    </contour>
    <contour>
      <point x="763" y="224" type="curve" smooth="yes"/>
      <point x="642" y="224"/>
      <point x="537" y="276"/>
      <point x="462" y="365" type="curve" smooth="yes"/>
      <point x="425" y="409"/>
      <point x="396" y="462"/>
      <point x="375" y="523" type="curve" smooth="yes"/>
      <point x="354" y="584"/>
      <point x="344" y="651"/>
      <point x="344" y="724" type="curve" smooth="yes"/>
      <point x="344" y="797"/>
      <point x="354" y="864"/>
      <point x="375" y="925" type="curve" smooth="yes"/>
      <point x="396" y="986"/>
      <point x="425" y="1038"/>
      <point x="462" y="1083" type="curve" smooth="yes"/>
      <point x="499" y="1127"/>
      <point x="544" y="1161"/>
      <point x="595" y="1186" type="curve" smooth="yes"/>
      <point x="646" y="1211"/>
      <point x="702" y="1223"/>
      <point x="763" y="1223" type="curve" smooth="yes"/>
      <point x="826" y="1223"/>
      <point x="885" y="1213"/>
      <point x="941" y="1193" type="curve" smooth="yes"/>
      <point x="996" y="1173"/>
      <point x="1045" y="1142"/>
      <point x="1086" y="1101" type="curve" smooth="yes"/>
      <point x="1127" y="1060"/>
      <point x="1160" y="1008"/>
      <point x="1185" y="946" type="curve" smooth="yes"/>
      <point x="1209" y="883"/>
      <point x="1221" y="809"/>
      <point x="1221" y="724" type="curve" smooth="yes"/>
      <point x="1221" y="633"/>
      <point x="1209" y="556"/>
      <point x="1185" y="493" type="curve" smooth="yes"/>
      <point x="1160" y="430"/>
      <point x="1127" y="378"/>
      <point x="1086" y="338" type="curve" smooth="yes"/>
      <point x="1045" y="298"/>
      <point x="996" y="269"/>
      <point x="941" y="251" type="curve" smooth="yes"/>
      <point x="885" y="233"/>
      <point x="826" y="224"/>
    </contour>
  </outline>
</glyph>
<glyph name="oe" format="2">
  <advance width="1921"/>
  <unicode hex="0153"/>
  <outline>
    <contour>
      <point x="568.684" y="-20.48" type="curve" smooth="yes"/>
      <point x="761.944" y="-20.48"/>
      <point x="904.036" y="48.9658"/>
      <point x="1002.8" y="181.308" type="curve"/>
      <point x="968.169" y="178.873" type="line"/>
      <point x="1053.87" y="56.9063"/>
      <point x="1206.81" y="-12.288"/>
      <point x="1390.69" y="-12.288" type="curve" smooth="yes"/>
      <point x="1568.46" y="-12.288"/>
      <point x="1721.15" y="51.9312"/>
      <point x="1848.42" y="180.224" type="curve"/>
      <point x="1661.02" y="351.232" type="line"/>
      <point x="1591.74" y="270.735"/>
      <point x="1500.81" y="230.4"/>
      <point x="1388.64" y="230.4" type="curve" smooth="yes"/>
      <point x="1241.92" y="230.4"/>
      <point x="1146.26" y="309.011"/>
      <point x="1124.45" y="447.488" type="curve"/>
      <point x="1854.56" y="447.488" type="line"/>
      <point x="1858.64" y="452.934"/>
      <point x="1862.75" y="495.552"/>
      <point x="1862.75" y="532.48" type="curve" smooth="yes"/>
      <point x="1862.75" y="883.436"/>
      <point x="1682.78" y="1077.25"/>
      <point x="1356.9" y="1077.25" type="curve" smooth="yes"/>
      <point x="1188.15" y="1077.25"/>
      <point x="1055.55" y="1010.41"/>
      <point x="960.611" y="877.514" type="curve"/>
      <point x="998.27" y="881.085" type="line"/>
      <point x="899.826" y="1007.32"/>
      <point x="754.253" y="1077.25"/>
      <point x="584.793" y="1077.25" type="curve" smooth="yes"/>
      <point x="251.063" y="1077.25"/>
      <point x="50.272" y="873.028"/>
      <point x="50.272" y="528.384" type="curve" smooth="yes"/>
      <point x="50.272" y="184.199"/>
      <point x="251.515" y="-20.48"/>
    </contour>
    <contour>
      <point x="578.656" y="190.464" type="curve" smooth="yes"/>
      <point x="406.221" y="190.464"/>
      <point x="310.368" y="310.464"/>
      <point x="310.368" y="526.336" type="curve" smooth="yes"/>
      <point x="310.368" y="739.641"/>
      <point x="411.044" y="863.232"/>
      <point x="584.8" y="863.232" type="curve" smooth="yes"/>
      <point x="752.068" y="863.232"/>
      <point x="853.088" y="734.066"/>
      <point x="853.088" y="528.384" type="curve" smooth="yes"/>
      <point x="853.088" y="315.216"/>
      <point x="751.774" y="190.464"/>
    </contour>
    <contour>
      <point x="1596.51" y="629.76" type="curve"/>
      <point x="1126.5" y="629.76" type="line"/>
      <point x="1151.24" y="780.589"/>
      <point x="1230.14" y="859.136"/>
      <point x="1356.9" y="859.136" type="curve" smooth="yes"/>
      <point x="1497.07" y="859.136"/>
      <point x="1575.15" y="784.399"/>
    </contour>
  </outline>
</glyph>
<glyph name="Scedilla" format="2">
  <advance width="1172"/>
  <unicode hex="015E"/>
  <outline>
    <contour>
      <point x="53" y="412" type="line"/>
      <point x="74" y="285"/>
      <point x="134" y="185"/>
      <point x="219" y="114" type="curve" smooth="yes"/>
      <point x="304" y="42"/>
      <point x="413" y="0"/>
      <point x="533" y="-12" type="curve"/>
      <point x="444" y="-178" type="line"/>
      <point x="455" y="-200" type="line"/>
      <point x="486" y="-200" type="line" smooth="yes"/>
      <point x="521" y="-200"/>
      <point x="563" y="-207"/>
      <point x="598" y="-224" type="curve" smooth="yes"/>
      <point x="633" y="-241"/>
      <point x="658" y="-269"/>
      <point x="658" y="-312" type="curve" smooth="yes"/>
      <point x="658" y="-359"/>
      <point x="624" y="-392"/>
      <point x="576" y="-392" type="curve" smooth="yes"/>
      <point x="543" y="-392"/>
      <point x="514" y="-370"/>
      <point x="503" y="-342" type="curve"/>
      <point x="368" y="-402" type="line"/>
      <point x="387" y="-442"/>
      <point x="415" y="-475"/>
      <point x="450" y="-499" type="curve" smooth="yes"/>
      <point x="485" y="-522"/>
      <point x="526" y="-535"/>
      <point x="570" y="-535" type="curve" smooth="yes"/>
      <point x="637" y="-535"/>
      <point x="694" y="-511"/>
      <point x="737" y="-470" type="curve" smooth="yes"/>
      <point x="780" y="-429"/>
      <point x="805" y="-371"/>
      <point x="805" y="-304" type="curve" smooth="yes"/>
      <point x="805" y="-252"/>
      <point x="788" y="-207"/>
      <point x="757" y="-172" type="curve" smooth="yes"/>
      <point x="726" y="-136"/>
      <point x="681" y="-112"/>
      <point x="626" y="-103" type="curve"/>
      <point x="675" y="-12" type="line"/>
      <point x="798" y="1"/>
      <point x="904" y="47"/>
      <point x="981" y="122" type="curve" smooth="yes"/>
      <point x="1058" y="197"/>
      <point x="1104" y="298"/>
      <point x="1104" y="422" type="curve" smooth="yes"/>
      <point x="1104" y="550"/>
      <point x="1044" y="642"/>
      <point x="957" y="713" type="curve" smooth="yes"/>
      <point x="870" y="784"/>
      <point x="757" y="833"/>
      <point x="649" y="878" type="curve" smooth="yes"/>
      <point x="585" y="905"/>
      <point x="527" y="929"/>
      <point x="484" y="960" type="curve" smooth="yes"/>
      <point x="440" y="991"/>
      <point x="413" y="1030"/>
      <point x="413" y="1083" type="curve" smooth="yes"/>
      <point x="413" y="1132"/>
      <point x="435" y="1170"/>
      <point x="468" y="1197" type="curve" smooth="yes"/>
      <point x="500" y="1224"/>
      <point x="544" y="1238"/>
      <point x="589" y="1238" type="curve" smooth="yes"/>
      <point x="641" y="1238"/>
      <point x="688" y="1220"/>
      <point x="728" y="1192" type="curve"/>
      <point x="767" y="1163"/>
      <point x="799" y="1122"/>
      <point x="823" y="1077" type="curve"/>
      <point x="1040" y="1211" type="line"/>
      <point x="940" y="1383"/>
      <point x="794" y="1468"/>
      <point x="597" y="1468" type="curve" smooth="yes"/>
      <point x="469" y="1468"/>
      <point x="357" y="1428"/>
      <point x="277" y="1359" type="curve" smooth="yes"/>
      <point x="197" y="1290"/>
      <point x="150" y="1190"/>
      <point x="150" y="1070" type="curve" smooth="yes"/>
      <point x="150" y="945"/>
      <point x="200" y="860"/>
      <point x="276" y="796" type="curve" smooth="yes"/>
      <point x="351" y="732"/>
      <point x="451" y="690"/>
      <point x="551" y="647" type="curve" smooth="yes"/>
      <point x="623" y="616"/>
      <point x="696" y="586"/>
      <point x="750" y="548" type="curve" smooth="yes"/>
      <point x="804" y="510"/>
      <point x="840" y="463"/>
      <point x="840" y="400" type="curve" smooth="yes"/>
      <point x="840" y="335"/>
      <point x="812" y="288"/>
      <point x="769" y="258" type="curve" smooth="yes"/>
      <point x="725" y="228"/>
      <point x="667" y="214"/>
      <point x="607" y="214" type="curve" smooth="yes"/>
      <point x="520" y="214"/>
      <point x="453" y="241"/>
      <point x="405" y="287" type="curve" smooth="yes"/>
      <point x="356" y="333"/>
      <point x="325" y="400"/>
      <point x="313" y="480" type="curve"/>
    </contour>
  </outline>
</glyph>
